<?xml version="1.0" encoding="UTF-8"?>
<svg width="52px" height="56px" viewBox="0 0 52 56" version="1.1" xmlns="http://www.w3.org/2000/svg" xmlns:xlink="http://www.w3.org/1999/xlink">
    <!-- Generator: Sketch 45.2 (43514) - http://www.bohemiancoding.com/sketch -->
    <title>logo</title>
    <desc>Created with Sketch.</desc>
    <defs></defs>
    <g id="Welcome" stroke="none" stroke-width="1" fill="none" fill-rule="evenodd">
        <g id="Desktop" transform="translate(-30.000000, -29.000000)">
            <g id="logo" transform="translate(30.000000, 30.000000)">
                <g id="logo2" transform="translate(14.765432, 18.423529)" fill="#F75455">
                    <polygon id="Path" points="12.823312 12.560969 8.91215609 12.560969 3.91359364 6.95488897 3.91359364 12.560969 0.616296296 12.560969 0.616296296 0.203294118 3.91359364 0.203294118 3.91359364 5.51431732 8.77184557 0.203294118 12.630385 0.203294118 7.10565808 6.06971844"></polygon>
                    <path d="M21.0159381,13.408271 C21.4134865,13.9347476 21.6122578,14.5740311 21.6122578,15.3261405 C21.6122578,16.0088245 21.4310252,16.6047176 21.0685545,17.1138379 C20.7060838,17.6229581 20.1886939,18.0163633 19.5163693,18.2940652 C18.8440447,18.5717672 18.0518828,18.7106161 17.1398598,18.7106161 L10.9135802,18.7106161 L10.9135802,6.35294118 L16.9820105,6.35294118 C18.2915819,6.35294118 19.3322079,6.6422097 20.1039196,7.22075543 C20.8756314,7.79930115 21.2614815,8.58032616 21.2614815,9.5638539 C21.2614815,10.2002542 21.0919413,10.7614351 20.7528558,11.2474135 C20.4137704,11.7333919 19.9343809,12.0862995 19.3146729,12.3061469 C20.0513069,12.5144234 20.6183896,12.8817944 21.0159381,13.408271 Z M14.1231835,11.1953447 L16.4207684,11.1953447 C17.0287837,11.1953447 17.4730959,11.1027788 17.7537183,10.9176441 C18.0343408,10.7325095 18.1746499,10.4374556 18.1746499,10.0324736 C18.1746499,9.61592067 18.0314177,9.30929603 17.7449489,9.11259049 C17.4584802,8.91588494 17.0170911,8.81753364 16.4207684,8.81753364 L14.1231835,8.81753364 L14.1231835,11.1953447 Z M18.1132641,15.9509668 C18.3880402,15.7542612 18.5254262,15.4244951 18.5254262,14.9616585 C18.5254262,14.487251 18.3909633,14.1516995 18.1220335,13.954994 C17.8531036,13.7582884 17.397099,13.6599372 16.7540059,13.6599372 L14.1231835,13.6599372 L14.1231835,16.2460236 L16.7540059,16.2460236 C17.3854064,16.2460236 17.8384879,16.1476723 18.1132641,15.9509668 Z" id="Combined-Shape"></path>
                </g>
                <g transform="translate(26.000000, 27.000000) rotate(-270.000000) translate(-26.000000, -27.000000) translate(-1.283951, 1.270588)">
                    <g id="lines" transform="translate(0.641975, 0.635294)" stroke-width="0.5" stroke="#F75455">
                        <polygon id="Path-2" points="13.1222471 5.13201464 20.5706532 7.43160228 12.7395373 12.3102781"></polygon>
                        <polygon id="Path-3" points="14.7887134 18.0632212 12.8338719 12.248682 6.77329251 15.8099962"></polygon>
                        <path d="" id="Path-4"></path>
                        <polyline id="Path-5" points="14.796099 18.1251484 11.4997589 23.7111859 6.49230293 15.9358377 6.85520584 26.050513 1.95652006 23.7111859 0.00234997262 32.5631412"></polyline>
                        <polyline id="Path-6" points="0.0530422391 32.3624571 7.91571492 36.4585976 13.7943393 30.7182387 11.6709712 23.8549101 6.92369076 26.0991938 7.91571492 36.5400634"></polyline>
                        <polyline id="Path-7" points="0.0513636873 32.5432715 6.9377906 26.1525108 13.8977381 30.698369"></polyline>
                        <polygon id="Path-8" points="7.96103582 36.5715238 10.3365224 44.3743585 14.4378961 37.7087335"></polygon>
                        <polyline id="Path-9" points="10.4046716 44.5154334 16.2087683 43.0013616 14.3794825 37.7272785"></polyline>
                        <polyline id="Path-10" points="10.5470128 44.592263 19.7105632 49.9537727 16.4481298 43.0669316 25.2021135 44.592263 19.7213059 49.9537727"></polyline>
                        <polygon id="Path-11" points="25.1591426 44.5806723 31.9525777 49.5305479 29.5881696 41.8330227"></polygon>
                        <polyline id="Path-12" points="29.7593818 41.8283865 38.020207 41.0683701 32.2402815 49.6077086"></polyline>
                        <polygon id="Path-13" points="37.9799218 41.1432127 37.2044308 34.0755572 45.198702 34.8683586"></polygon>
                        <polyline id="Path-14" points="38.0950704 41.1938804 45.7949236 40.8408619 45.3444003 34.8842544"></polyline>
                        <polyline id="Path-15" points="37.192681 34.1249003 43.5272 27.0211482 45.1335741 34.8756442 51.9790444 27.0211482 43.5339142 27.0211482 40.6081983 18.0999801 47.9599198 19.9915764 53.2003587 19.9915764 51.9790444 26.8269218 48.0522401 19.9972062 43.665177 27.1049322"></polyline>
                        <polyline id="Path-16" points="40.5977913 18.1142201 47.6221952 10.4385516 48.1287821 19.9856155"></polyline>
                        <polyline id="Path-17" points="40.7535609 18.075143 41.4256531 8.67180327 47.674566 10.4412008"></polyline>
                        <polygon id="Path-18" points="41.5720228 8.86354596 36.2630989 9.65137992 38.9175609 0.298045633"></polygon>
                        <polyline id="Path-19" points="36.1999854 9.70072303 29.6908969 6.46759023 39.0763519 0.409978326 26.0625392 1.05773084 20.7542868 7.31403983 24.9332095 10.5941976 29.7979885 6.48679762 20.7959148 7.31403983"></polyline>
                        <path d="M26.0759676,1.04746482 L29.6851899,6.43513638" id="Path-20"></path>
                    </g>
                    <g id="circles" fill="#F75455">
                        <ellipse id="Oval-5" cx="7.03548412" cy="16.1873783" rx="1" ry="1"></ellipse>
                        <ellipse id="Oval-5-Copy" cx="15.6153428" cy="18.5728866" rx="1" ry="1"></ellipse>
                        <ellipse id="Oval-5-Copy-2" cx="12.1833993" cy="24.3662641" rx="1" ry="1"></ellipse>
                        <ellipse id="Oval-5-Copy-3" cx="2.57395761" cy="24.0254772" rx="1" ry="1"></ellipse>
                        <ellipse id="Oval-5-Copy-4" cx="0.857985868" cy="32.8859369" rx="1" ry="1"></ellipse>
                        <ellipse id="Oval-5-Copy-5" cx="8.40826151" cy="36.9753798" rx="1" ry="1"></ellipse>
                        <ellipse id="Oval-5-Copy-6" cx="14.5857598" cy="31.1820023" rx="1" ry="1"></ellipse>
                        <ellipse id="Oval-5-Copy-7" cx="15.2721485" cy="38.3385275" rx="1" ry="1"></ellipse>
                        <ellipse id="Oval-5-Copy-8" cx="11.1538163" cy="45.1542657" rx="1" ry="1"></ellipse>
                        <ellipse id="Oval-5-Copy-9" cx="20.4200637" cy="50.6068563" rx="1" ry="1"></ellipse>
                        <ellipse id="Oval-5-Copy-10" cx="16.9881202" cy="43.4503311" rx="1" ry="1"></ellipse>
                        <ellipse id="Oval-5-Copy-11" cx="25.9111732" cy="45.1542657" rx="1" ry="1"></ellipse>
                        <ellipse id="Oval-5-Copy-12" cx="32.7750602" cy="50.2660693" rx="1" ry="1"></ellipse>
                        <ellipse id="Oval-5-Copy-13" cx="30.3726997" cy="42.4279704" rx="1" ry="1"></ellipse>
                        <ellipse id="Oval-5-Copy-14" cx="38.6093641" cy="41.7463966" rx="1" ry="1"></ellipse>
                        <ellipse id="Oval-5-Copy-15" cx="37.9229754" cy="34.5898714" rx="1" ry="1"></ellipse>
                        <ellipse id="Oval-5-Copy-16" cx="45.8164454" cy="35.2714453" rx="1" ry="1"></ellipse>
                        <ellipse id="Oval-5-Copy-18" cx="44.1004736" cy="27.4333463" rx="1" ry="1"></ellipse>
                        <ellipse id="Oval-5-Copy-19" cx="52.6803323" cy="27.4333463" rx="1" ry="1"></ellipse>
                        <ellipse id="Oval-5-Copy-20" cx="53.7099154" cy="20.2768212" rx="1" ry="1"></ellipse>
                        <ellipse id="Oval-5-Copy-21" cx="48.5620002" cy="20.2768212" rx="1" ry="1"></ellipse>
                        <ellipse id="Oval-5-Copy-22" cx="41.3549189" cy="18.5728866" rx="1" ry="1"></ellipse>
                        <ellipse id="Oval-5-Copy-23" cx="48.2188058" cy="10.7347877" rx="1" ry="1"></ellipse>
                        <ellipse id="Oval-5-Copy-24" cx="42.0413076" cy="9.37164005" rx="1" ry="1"></ellipse>
                        <ellipse id="Oval-5-Copy-25" cx="39.6389471" cy="0.851967277" rx="1" ry="1"></ellipse>
                        <ellipse id="Oval-5-Copy-26" cx="36.8933923" cy="10.0532139" rx="1" ry="1"></ellipse>
                        <ellipse id="Oval-5-Copy-27" cx="30.3726997" cy="6.98613167" rx="1" ry="1"></ellipse>
                        <ellipse id="Oval-5-Copy-28" cx="26.5975619" cy="1.5335411" rx="1" ry="1"></ellipse>
                        <ellipse id="Oval-5-Copy-29" cx="25.5679789" cy="11.0755746" rx="1" ry="1"></ellipse>
                        <ellipse id="Oval-5-Copy-30" cx="13.8993711" cy="5.28219712" rx="1" ry="1"></ellipse>
                        <ellipse id="Oval-5-Copy-31" cx="13.5561767" cy="12.4387222" rx="1" ry="1"></ellipse>
                        <ellipse id="Oval-5-Copy-17" cx="46.5028341" cy="41.4056097" rx="1" ry="1"></ellipse>
                    </g>
                </g>
            </g>
        </g>
    </g>
</svg>