<svg fill="none" height="432" viewBox="0 0 1732 432" width="1732" xmlns="http://www.w3.org/2000/svg"><g clip-rule="evenodd" fill="#e74e48" fill-rule="evenodd"><path d="m171.938 175.672c-4.948 6.194-7.943 14.017-8.043 22.55-.238 20.383 16.134 37.1 36.567 37.339 20.433.238 37.19-16.092 37.428-36.475.1-8.533-2.711-16.424-7.513-22.732-7.449-6.844-12.069-16.693-11.942-27.589.128-10.897 4.976-20.636 12.584-27.304 4.947-6.194 7.942-14.017 8.042-22.5496.238-20.383-16.133-37.1002-36.566-37.3389-20.433-.2388-37.191 16.0913-37.429 36.4742-.1 8.5333 2.712 16.4243 7.513 22.7323 7.45 6.844 12.069 16.693 11.942 27.589-.127 10.897-4.976 20.636-12.583 27.304zm29.165 4.968c9.974.117 17.964 8.276 17.848 18.225s-8.295 17.919-18.269 17.803c-9.973-.117-17.964-8.276-17.847-18.225.116-9.949 8.295-17.919 18.268-17.803zm19.019-81.95c.116-9.9488-7.875-18.1083-17.848-18.2249-9.973-.1165-18.153 7.8541-18.269 17.8029-.116 9.949 7.875 18.108 17.848 18.225 9.973.116 18.153-7.854 18.269-17.803z"/><path d="m204.58 59.8413c-7.925-.1839-15.964 2.1724-22.813 7.2624-16.361 12.1586-19.744 35.3113-7.555 51.7123 12.188 16.402 35.332 19.842 51.693 7.683 6.85-5.09 11.425-12.107 13.535-19.749.932-10.0727 5.969-19.7148 14.716-26.2147 8.747-6.5001 19.432-8.5421 29.346-6.5289 7.925.184 15.964-2.1723 22.813-7.2624 16.361-12.1585 19.744-35.3111 7.556-51.7126-12.189-16.40157-35.333-19.84121-51.694-7.68266-6.85 5.09016-11.425 12.10716-13.535 19.74906-.932 10.0728-5.969 19.7148-14.716 26.2147-8.747 6.5001-19.432 8.5421-29.346 6.5288zm13.716 26.2146c5.949 8.0056 4.298 19.3061-3.688 25.2411-7.986 5.934-19.282 4.255-25.231-3.75-5.95-8.0058-4.299-19.3064 3.687-25.2409 7.986-5.9346 19.283-4.2557 25.232 3.7498zm76.722-34.5143c7.986-5.9345 9.637-17.2351 3.688-25.2406-5.949-8.0056-17.246-9.6844-25.232-3.7499s-9.637 17.2352-3.688 25.2407 17.246 9.6844 25.232 3.7498z"/><path d="m317.657 20.4925c-3.516-7.1051-9.335-13.13076-17.023-16.83451-18.364-8.84719-40.441-1.09537-49.31 17.31421-8.869 18.4095-1.172 40.5055 17.193 49.3527 7.688 3.7038 16.027 4.4984 23.775 2.8198 9.354-3.8505 20.233-3.8647 30.05.865 9.818 4.7297 16.587 13.246 19.406 22.9613 3.516 7.105 9.335 13.131 17.023 16.835 18.364 8.847 40.441 1.095 49.31-17.3145s1.172-40.5055-17.193-49.3527c-7.688-3.7038-16.027-4.4984-23.775-2.8197-9.354 3.8504-20.233 3.8646-30.05-.8651-9.818-4.7298-16.587-13.2462-19.406-22.9615zm-16.852 24.3178c-4.329 8.9857-15.104 12.7693-24.068 8.451-8.963-4.3183-12.72-15.1032-8.391-24.0888 4.328-8.9856 15.104-12.7692 24.068-8.451 8.963 4.3183 12.72 15.1032 8.391 24.0888zm66.186 51.9319c8.964 4.3178 19.74.5346 24.069-8.451 4.328-8.9856.571-19.7706-8.392-24.0888-8.964-4.3183-19.739-.5347-24.068 8.451-4.329 8.9856-.572 19.7705 8.391 24.0888z"/><path d="m406.781 98.985c3.852-6.9285 5.509-15.1395 4.193-23.571-3.144-20.1404-22.06-33.9128-42.25-30.7614-20.19 3.1513-34.009 22.0331-30.865 42.1736 1.316 8.4317 5.396 15.7468 11.177 21.1718 8.481 5.515 14.669 14.462 16.35 25.229 1.68 10.767-1.487 21.175-7.884 29.011-3.852 6.929-5.509 15.14-4.193 23.571 3.143 20.141 22.059 33.913 42.249 30.762s34.009-22.033 30.866-42.174c-1.316-8.431-5.397-15.747-11.178-21.172-8.481-5.514-14.669-14.462-16.349-25.229-1.681-10.767 1.486-21.174 7.884-29.011zm-29.586-.0653c-9.855 1.5383-19.088-5.184-20.622-15.0145-1.535-9.8305 5.21-19.0466 15.065-20.5847 9.855-1.5382 19.087 5.184 20.622 15.0145 1.534 9.8305-5.211 19.0466-15.065 20.5847zm-5.172 83.9693c1.534 9.83 10.767 16.552 20.621 15.014 9.855-1.538 16.6-10.754 15.066-20.585-1.535-9.83-10.767-16.552-20.622-15.014s-16.6 10.754-15.065 20.585z"/><path d="m424.601 202.422c5.175-6.006 8.459-13.711 8.876-22.235.997-20.36-14.74-37.675-35.15-38.674s-37.764 14.695-38.761 35.055c-.417 8.524 2.098 16.514 6.662 22.996 7.189 7.117 11.439 17.131 10.906 28.016-.533 10.884-5.741 20.435-13.591 26.815-5.175 6.006-8.459 13.712-8.876 22.235-.997 20.36 14.74 37.675 35.15 38.675 20.411.999 37.764-14.696 38.761-35.056.418-8.523-2.098-16.513-6.662-22.996-7.189-7.116-11.439-17.131-10.906-28.015.533-10.885 5.741-20.436 13.591-26.816zm-28.96-6.051c-9.962-.487-17.644-8.939-17.157-18.876.486-9.938 8.957-17.599 18.919-17.111s17.643 8.939 17.157 18.877c-.487 9.938-8.957 17.598-18.919 17.11zm-22.056 81.186c-.487 9.937 7.194 18.389 17.156 18.876 9.962.488 18.433-7.172 18.919-17.11.487-9.938-7.194-18.389-17.157-18.877-9.962-.488-18.432 7.173-18.918 17.111z"/><path d="m415.383 305.166c5.854-5.347 10.033-12.606 11.463-21.019 3.416-20.096-10.146-39.163-30.291-42.588-20.146-3.424-39.246 10.09-42.663 30.186-1.43 8.414.116 16.646 3.874 23.626 6.29 7.923 9.316 18.372 7.49 29.116-1.826 10.743-8.135 19.606-16.69 25.005-5.854 5.346-10.033 12.605-11.463 21.018-3.416 20.096 10.146 39.164 30.291 42.588 20.146 3.425 39.246-10.09 42.662-30.186 1.431-8.413-.115-16.646-3.873-23.626-6.29-7.923-9.316-18.372-7.49-29.115 1.826-10.744 8.135-19.606 16.69-25.005zm-28.033-9.459c-9.833-1.672-16.452-10.979-14.785-20.787 1.667-9.809 10.99-16.406 20.823-14.734 9.833 1.671 16.453 10.978 14.785 20.787-1.667 9.809-10.99 16.405-20.823 14.734zm-31.574 77.978c-1.668 9.808 4.952 19.115 14.785 20.787 9.832 1.671 19.155-4.925 20.823-14.734 1.667-9.809-4.952-19.116-14.785-20.787-9.833-1.672-19.156 4.925-20.823 14.734z"/><path d="m178.268 169.487c6.308-4.801 14.199-7.612 22.732-7.513 20.383.239 36.713 16.996 36.474 37.429s-16.956 36.805-37.339 36.566c-8.533-.099-16.356-3.094-22.55-8.042-6.668-7.607-16.406-12.456-27.303-12.583-10.897-.128-20.746 4.492-27.59 11.942-6.308 4.801-14.199 7.613-22.7318 7.513-20.3829-.238-36.713-16.996-36.4742-37.429.2387-20.433 16.9559-36.804 37.339-36.566 8.533.1 16.356 3.095 22.55 8.042 6.668 7.608 16.407 12.456 27.303 12.583 10.897.128 20.746-4.492 27.59-11.942zm4.286 29.274c-.117 9.974 7.854 18.153 17.802 18.269 9.949.116 18.109-7.874 18.225-17.848.117-9.973-7.854-18.152-17.802-18.268-9.949-.117-18.109 7.874-18.225 17.847zm-82.372 17.099c-9.9493-.117-17.9199-8.296-17.8034-18.269.1166-9.973 8.2761-17.964 18.2254-17.848 9.948.116 17.919 8.296 17.802 18.269-.116 9.973-8.276 17.964-18.224 17.848z"/><path d="m61.7066 199.414c.0013-7.927 2.5448-15.908 7.7935-22.637 12.5375-16.073 35.7629-18.913 51.8749-6.345 16.112 12.569 19.01 35.787 6.473 51.859-5.249 6.729-12.371 11.139-20.06 13.07-10.0919.696-19.849 5.507-26.5516 14.099-6.7026 8.593-8.9938 19.228-7.2128 29.186-.0013 7.927-2.5448 15.908-7.7935 22.637-12.5376 16.073-35.7628 18.913-51.8751 6.345-16.11225-12.568-19.01012-35.787-6.47258-51.859 5.24878-6.729 12.37088-11.139 20.05988-13.07 10.0919-.696 19.8489-5.507 26.5515-14.099 6.7027-8.593 8.9938-19.228 7.2128-29.186zm25.8869 14.325c7.8643 6.135 19.2005 4.748 25.3195-3.097 6.12-7.845 4.706-19.178-3.159-25.312-7.864-6.135-19.2002-4.748-25.3197 3.097s-4.7051 19.177 3.1592 25.312zm-36.2976 75.894c-6.1196 7.845-17.4557 9.232-25.32 3.097-7.8643-6.134-9.2788-17.467-3.1593-25.312 6.1196-7.845 17.4557-9.231 25.32-3.097 7.8643 6.135 9.2788 17.467 3.1593 25.312z"/><path d="m19.7262 311.541c-7.021-3.681-12.90908-9.639-16.43217-17.412-8.41564-18.566-.15006-40.455 18.46167-48.892 18.6118-8.436 40.5219-.224 48.9375 18.342 3.5232 7.772 4.1227 16.127 2.2635 23.834-4.068 9.262-4.3365 20.137.1625 30.063 4.4991 9.925 12.8549 16.891 22.5016 19.937 7.0212 3.681 12.9092 9.639 16.4322 17.411 8.416 18.566.15 40.456-18.4616 48.892-18.6117 8.437-40.5218.225-48.9374-18.341-3.5232-7.773-4.1228-16.128-2.2635-23.835 4.068-9.261 4.3364-20.137-.1626-30.062-4.4991-9.926-12.8549-16.892-22.5017-19.937zm24.7049-16.279c9.0844-4.118 13.1188-14.802 9.0111-23.864-4.1076-9.062-14.8018-13.07-23.8861-8.952-9.0843 4.117-13.1187 14.802-9.0111 23.864s14.8018 13.07 23.8861 8.952zm50.3711 67.382c4.1076 9.062.0732 19.746-9.0111 23.864-9.0843 4.117-19.7785.109-23.8861-8.953-4.1077-9.062-.0733-19.746 9.011-23.864 9.0843-4.117 19.7785-.109 23.8862 8.953z"/><path d="m96.1147 402.474c-7.0167 3.69-15.2641 5.154-23.6626 3.642-20.0615-3.614-33.3881-22.846-29.7658-42.957s22.8219-33.485 42.8834-29.872c8.3986 1.513 15.6173 5.763 20.9053 11.669 5.315 8.608 14.115 15.003 24.84 16.935s21.203-.992 29.187-7.204c7.017-3.689 15.264-5.154 23.663-3.641 20.061 3.613 33.388 22.846 29.766 42.957-3.623 20.111-22.822 33.485-42.884 29.871-8.398-1.513-15.617-5.763-20.905-11.669-5.315-8.607-14.115-15.003-24.84-16.934-10.725-1.932-21.203.991-29.1873 7.203zm.626-29.579c1.7681-9.816-4.7366-19.203-14.5285-20.967s-19.1631 4.764-20.9312 14.58c-1.768 9.816 4.7366 19.203 14.5286 20.967 9.7919 1.764 19.1631-4.764 20.9311-14.58zm84.0663-3.208c9.792 1.763 16.297 11.15 14.529 20.967-1.768 9.816-11.139 16.343-20.931 14.58-9.792-1.764-16.297-11.151-14.529-20.967s11.14-16.344 20.931-14.58z"/><path d="m199.107 422.707c-6.125 5.033-13.905 8.136-22.436 8.354-20.378.521-37.32-15.617-37.843-36.044-.522-20.428 15.574-37.411 35.952-37.931 8.531-.219 16.46 2.483 22.834 7.197 6.947 7.354 16.859 11.836 27.753 11.558 10.894-.279 20.564-5.262 27.126-12.961 6.125-5.033 13.905-8.136 22.436-8.354 20.378-.521 37.321 15.617 37.843 36.045s-15.574 37.41-35.952 37.931c-8.531.218-16.46-2.484-22.834-7.198-6.947-7.354-16.859-11.836-27.753-11.558-10.894.279-20.564 5.262-27.126 12.961zm-5.372-29.094c-.255-9.971-8.525-17.847-18.471-17.593s-17.803 8.543-17.548 18.514c.255 9.97 8.525 17.847 18.471 17.593s17.803-8.543 17.548-18.514zm81.678-20.153c9.946-.254 18.216 7.623 18.471 17.593.255 9.971-7.602 18.26-17.548 18.514-9.946.255-18.216-7.622-18.471-17.593-.254-9.971 7.602-18.26 17.548-18.514z"/><path d="m302.038 415.892c-5.482 5.728-12.837 9.736-21.281 10.969-20.17 2.946-38.915-11.058-41.868-31.278s11.004-39 31.175-41.945c8.444-1.234 16.638.504 23.529 4.424 7.773 6.474 18.149 9.743 28.932 8.168 10.783-1.574 19.791-7.675 25.388-16.101 5.482-5.727 12.837-9.735 21.281-10.968 20.17-2.946 38.916 11.058 41.868 31.278 2.953 20.22-11.004 38.999-31.174 41.945-8.445 1.233-16.639-.504-23.53-4.425-7.773-6.473-18.149-9.743-28.932-8.168s-19.791 7.675-25.388 16.101zm-8.801-28.246c-1.442-9.869-10.591-16.705-20.436-15.267s-16.658 10.604-15.217 20.474c1.442 9.869 10.591 16.704 20.436 15.266s16.658-10.604 15.217-20.473zm78.694-29.744c9.845-1.437 18.995 5.398 20.436 15.267s-5.371 19.035-15.216 20.473c-9.846 1.438-18.995-5.397-20.436-15.266-1.442-9.87 5.371-19.036 15.216-20.474z"/></g><g fill="#7a3762"><path d="m592.352 341.487h-89.352v-204.108h79.424c13.821 0 25.696 1.655 35.624 4.964 10.123 3.31 17.715 7.787 22.776 13.432 9.149 10.512 13.724 22.387 13.724 35.624 0 15.963-5.159 27.838-15.476 35.624-3.504 2.726-5.937 4.478-7.3 5.256-1.363.584-3.796 1.655-7.3 3.212 12.653 2.726 22.679 8.468 30.076 17.228 7.592 8.566 11.388 19.272 11.388 32.12 0 14.211-4.867 26.767-14.6 37.668-11.291 12.654-30.952 18.98-58.984 18.98zm-43.8-121.472h21.608c12.653 0 21.997-1.362 28.032-4.088 6.229-2.725 9.344-8.565 9.344-17.52 0-9.149-2.823-15.184-8.468-18.104s-15.184-4.38-28.616-4.38h-21.9zm0 82.928h31.244c13.043 0 22.776-1.557 29.2-4.672 6.619-3.309 9.928-9.636 9.928-18.98 0-9.538-3.504-15.768-10.512-18.688-6.813-3.114-17.812-4.672-32.996-4.672h-26.864z"/><path d="m743.74 341.487h-43.8v-157.096h43.8zm-40.296-176.952c-4.866-5.061-7.3-11.193-7.3-18.396 0-7.202 2.434-13.237 7.3-18.104 5.062-5.061 11.194-7.592 18.396-7.592 7.203 0 13.238 2.531 18.104 7.592 5.062 4.867 7.592 10.902 7.592 18.104 0 7.203-2.53 13.335-7.592 18.396-4.866 4.867-10.901 7.3-18.104 7.3-7.202 0-13.334-2.433-18.396-7.3z"/><path d="m829.002 341.487h-43.8v-216.664h43.8v111.252l48.764-51.976h55.188l-59.86 63.656 62.196 93.732h-51.976l-40.004-60.152-14.308 14.892z"/><path d="m1094.93 318.711c-17.71 16.742-38.54 25.112-62.48 25.112-23.75 0-43.414-7.3-58.988-21.9-15.573-14.794-23.36-34.553-23.36-59.276 0-24.722 7.884-44.384 23.652-58.984 15.963-14.6 34.746-21.9 56.356-21.9s39.91 6.522 54.9 19.564c15.18 13.043 22.77 30.952 22.77 53.728v23.36h-114.462c1.363 8.566 5.84 15.574 13.432 21.024 7.59 5.451 16.16 8.176 25.7 8.176 15.37 0 28.03-5.158 37.96-15.476zm-31.53-71.54c-.98-9.344-4.48-16.546-10.51-21.608-6.04-5.061-13.44-7.592-22.2-7.592-8.56 0-16.45 2.628-23.65 7.884s-11.386 12.362-12.554 21.316z"/><path d="m1205.39 267.319 51.98-129.94h49.35l-82.05 204.108h-38.55l-82.05-204.108h49.35z"/><path d="m1370.51 341.487h-43.8v-157.096h43.8zm-40.29-176.952c-4.87-5.061-7.3-11.193-7.3-18.396 0-7.202 2.43-13.237 7.3-18.104 5.06-5.061 11.19-7.592 18.39-7.592 7.21 0 13.24 2.531 18.11 7.592 5.06 4.867 7.59 10.902 7.59 18.104 0 7.203-2.53 13.335-7.59 18.396-4.87 4.867-10.9 7.3-18.11 7.3-7.2 0-13.33-2.433-18.39-7.3z"/><path d="m1454.32 341.487-62.2-157.388h45.55l39.13 98.988 39.13-98.988h45.55l-62.2 157.388z"/><path d="m1719.14 318.711c-17.71 16.742-38.54 25.112-62.49 25.112-23.75 0-43.41-7.3-58.98-21.9-15.57-14.794-23.36-34.553-23.36-59.276 0-24.722 7.88-44.384 23.65-58.984 15.96-14.6 34.75-21.9 56.36-21.9s39.9 6.522 54.89 19.564c15.19 13.043 22.78 30.952 22.78 53.728v23.36h-114.46c1.36 8.566 5.84 15.574 13.43 21.024 7.59 5.451 16.15 8.176 25.69 8.176 15.38 0 28.04-5.158 37.96-15.476zm-31.53-71.54c-.98-9.344-4.48-16.546-10.52-21.608-6.03-5.061-13.43-7.592-22.19-7.592-8.56 0-16.45 2.628-23.65 7.884s-11.39 12.362-12.56 21.316z"/></g></svg>