<svg height="24" viewBox="0 0 147 24" width="147" xmlns="http://www.w3.org/2000/svg"><g fill="#fff"><path d="m25.1069041 3.7180575s-.8740046-2.89389457-1.9665772-3.50836628c-1.0920387-.6144717-5.2432272.31712083-5.2432272.31712083s-4.5482934.97113246-11.36072593 2.73546775l1.07255715 3.44878924c3.13814368.07961416 6.55436758.17873112 7.80572878.17873112 2.5419524 0 3.455454.43574058 4.4887811 1.84341512 1.0322595 1.40714022 3.1378768 5.55001532 4.388971 8.36483002.1192917.257811.2185679.4955848.3378595.7531286l3.4957517-1.0309766c-1.4896775-8.52325694-3.0191189-13.1021398-3.0191189-13.1021398zm3.5453898 16.9102614-2.5072591.7242751c.2105399.4204548.4261882.8383266.6468969 1.2535223 0 0 .6874613 1.4693888 1.6983711 1.3908433.7077436-.0587755.3237153-2.2722095.3237153-2.2722095-.0608467-.3916589-.1214266-.7440451-.1617242-1.0964312zm-.39497-2.777145-3.3004017.952164c.2441876.5156219.488642.9914367.692532 1.428246l2.8726063-.81324c-.0813958-.535659-.1833408-1.0512809-.2650035-1.56717zm-24.29599464-13.89934999.84464876 2.7517646c.4715622.02003712 1.00183616.02003712 1.53237699.04007424l-.98208766-3.17387994c-.45208056.12102421-.92337589.24124694-1.39493809.3820411zm-3.27104576.82312493c-.64662999.17712815-.70720986.5706572-.68719448.98368905.04056449.78679095 1.5566623.72748107 1.5566623.72748107s.86920095.02003712 2.20329231.05930988l-.7680566-2.3801428c-.76832346.19689811-1.51583094.39352906-2.30470353.6096628z"/><path d="m112.244509 9.72655663 4.402833-9.3421801h.672839l4.403892 9.3421801h-.771303l-2.0831-4.44726263h-3.81496l-2.078866 4.44726263h-.7316zm3.106388-5.07481615h3.222056l-1.601896-3.51090047-1.619896 3.51090047zm-78.7870006 5.00970747v-9.66144795h3.9139532c.5423473 0 1.0222281.07582938 1.4407011.22958.419267.15218173.7612449.36084327 1.0251396.62572315.4055033.41340089.6085196.92119628.6085196 1.52338618v.02667102c0 .33181893-.047644.62153947-.1424026.86916163-.0947586.24683772-.2188976.46203628-.3740053.64664161-.1489831.17938799-.3250338.3350489-.5219663.46151332-.1937522.12315738-.3851221.22748815-.5746393.3132538.2785246.07253746.549593.17058156.809683.29285831.2530211.11688604.4842547.27512576.6839558.46805033.1957975.19168893.3548782.41678735.4695579.66442229.1193747.25337474.1784003.54675601.1784003.87857493v.02667103c0 .40451054-.0809948.76953751-.2443078 1.09534238-.1629582.32501093-.399534.60855687-.6913671.82863212-.2969808.22670371-.6543107.40189574-1.0704015.52557608-.4163554.1228959-.8808842.18538977-1.392263.18538977zm.700896-5.20137277h3.1333859c.3528301 0 .6778679-.04366727.9756428-.13178624.2969808-.08707306.554523-.21389116.7702444-.38019285.2147613-.16514176.3876651-.37739861.5050262-.61997058.1217569-.24683772.1821059-.53237457.1821059-.85582611v-.02667103c0-.5347279-.2024869-.96486354-.6074608-1.28988397-.4062973-.32606635-.9920536-.48896878-1.759651-.48896878h-3.1995581v3.79329956zm0 4.54034973h3.4438658c.8118005 0 1.4563177-.17649943 1.9346104-.53211309.4780279-.35430626.7167772-.83516915.7167772-1.44180422v-.02667103c0-.59748324-.2456312-1.05978101-.7368936-1.38767772-.4917918-.3281582-1.2069809-.49236803-2.1453026-.49236803h-3.2133219v3.88037261zm10.8546225-3.98391894v-.02693251c0-.63801275.1138162-1.24883151.3435661-1.83350221.2292205-.58362477.5505527-1.09743422.9655847-1.54012093.4137086-.44373264.9152938-.79673149 1.5034323-1.05899657.5884032-.26278804 1.2416551-.39483576 1.9597558-.39483576.7146597 0 1.364206.13204772 1.9507564.39483576.5865503.26226508 1.0876062.61317209 1.503697 1.05219807.4171495.43850303.7371583.94734434.9624084 1.52756987.2257206.58327765.3402296 1.20278372.3377429 1.82722667.0035971.00354516.0056812.00831795.0058232.01333551-.0002202.00469591-.0023139.00911458-.0058232.01228959 0 .63879719-.1154043 1.25013891-.3443601 1.83480961-.2294852.58362477-.5518761 1.09821866-.968761 1.5432587-.4160907.445563-.9195288.79986926-1.5103142 1.0626573-.5905207.26278804-1.2427139.39326687-1.9571089.39326687-.7226004 0-1.3750583-.13074031-1.9565795-.39326687-.5823154-.26278804-1.0799303-.61447949-1.4944329-1.0558588-.4147674-.44085635-.7337174-.95152803-.9587028-1.5312306-.225007-.58326065-.3391456-1.20252794-.3366842-1.8267037zm.7268354-.02693251c0 .57813368.1016405 1.12358228.3043921 1.63529989.2022223.51276352.482263.95832652.8395929 1.33616604.3573299.37783951.7826847.67697336 1.2784468.89897042.4960268.22147409 1.0383742.33155744 1.6267773.33155744.5889326 0 1.128633-.10851446 1.6198954-.32528191.4804613-.20985271.9131927-.51319294 1.272359-.89191044.3573299-.37888544.6349884-.82157215.833505-1.32936755.1979872-.50857983.2972455-1.05141363.2972455-1.62850138v-.02693251c0-.57708776-.1016405-1.12175192-.303598-1.63163916-.2035457-.51041019-.4827923-.95492727-.8395928-1.33512011-.3573299-.38045433-.7848023-.68168002-1.2829466-.90236967-.4986737-.22225854-1.0399623-.33286485-1.6265126-.33286485-.5862857 0-1.1249274.10929891-1.6161898.32606635-.4817005.20974436-.914944.51449989-1.273153.89557117-.3568005.38045432-.6344591.82314104-.8324463 1.32936755-.1990459.5062265-.2977749 1.04749142-.2977749 1.62536362zm12.9761032.02693251v-.02693251c0-.63801275.1151397-1.24883151.3443602-1.83350221.2294851-.58362477.551082-1.09743422.9647906-1.54012093.4147673-.44373264.9155585-.79673149 1.5044911-1.05899657.5884032-.26278804 1.2413904-.39483576 1.9597558-.39483576.7146597 0 1.364206.13204772 1.9507563.39483576.5862857.26226508 1.0873416.61317209 1.5036971 1.05219807.4163554.43850303.7368935.94734434.9621437 1.52756987.2252671.58337878.3395002 1.20284934.3369488 1.82722667.0041685.00322829.006686.00810654.0068819.01333551 0 .00392221-.0018528.00836738-.0068819.01228959 0 .63879719-.1143455 1.25013891-.343566 1.83480961-.2294852.58362477-.5516114 1.09821866-.9682316 1.5432587-.4171495.445563-.9205876.79986926-1.511373 1.0626573s-1.2419198.39326687-1.9565795.39326687c-.7226004 0-1.3750583-.13074031-1.9571089-.39326687-.5815213-.26278804-1.0799303-.61447949-1.4936389-1.0558588-.4147673-.44085635-.7337173-.95152803-.9587028-1.5312306-.2257389-.58309073-.3402495-1.20242897-.3377429-1.8267037zm.7278942-.02693251c0 .57813368.1016405 1.12358228.3035981 1.63529989.2030163.51276352.483057.95832652.8395928 1.33616604.3573299.37783951.7834788.67697336 1.2792409.89897042.4960268.22147409 1.0383741.33155744 1.6267773.33155744.5881385 0 1.1278389-.10851446 1.6198954-.32528191.4804613-.20985271.9131927-.51319294 1.272359-.89191044.3573299-.37888544.6349884-.82157215.8327109-1.32936755.1987813-.50857983.2980396-1.05141363.2980396-1.62850138v-.02693251c0-.57708776-.1016405-1.12175192-.3038627-1.63163916-.203281-.51041019-.4833217-.95492727-.8406516-1.33512011-.3568005-.38045433-.7842729-.68168002-1.2816231-.90236967-.4986737-.22225854-1.040227-.33286485-1.6267773-.33286485-.5862857 0-1.1254568.10929891-1.6161898.32606635-.4816057.20977512-.9147567.51452888-1.2728884.89557117-.3568004.38045432-.634459.82314104-.8332403 1.32936755-.1982519.5062265-.2969808 1.04749142-.2969808 1.62536362zm13.3649311 4.67187449v-9.39996732h.6659569l3.8313703 5.55855532 3.824753-5.55855532h.6715154v9.39996732h-.7114834v-8.16159503l-3.77208 5.40846543h-.052673l-3.7789619-5.40846543v8.16159503zm13.975568 0v-9.34244158h6.7442704v.64454977h-6.0436391v3.66831181h4.6407885v.63801275h-4.6407885v3.7522471h6.1090172v.63932015zm11.2715072 0v-9.34244158h3.979596c.586815 0 1.105076.08262788 1.557164.24762216.452089.16525577.823182.39039059 1.113546.67723485.225923.2224741.404558.48731139.525407.77895081.127063.30232929.191331.62679975.188988.95414283v.02614806c0 .39039059-.069613.73920576-.208045 1.04592254-.135934.30186752-.333973.57248483-.581522.79463965-.249601.22356594-.543406.40346461-.882472.54048047-.354857.14078392-.725781.23825249-1.104546.2902435l3.127033 3.98705671h-.893325l-3.020893-3.87043635h-3.100829v3.87043635h-.700366zm.700367-4.49563654h3.199823c.397033 0 .76495-.04837392 1.104281-.14616768.339331-.0985782.630224-.23873182.872679-.42019938.238945-.17845807.43537-.40650839.575434-.66808302.141079-.26226507.211221-.56349076.211221-.90210818v-.02614807c0-.63016833-.236632-1.12724301-.710689-1.49174701-.473793-.36528845-1.144779-.54780193-2.013223-.54780193h-3.239526v4.20199379zm24.174821 4.49563654v-9.34244158h.661457l6.54496 8.13047884v-8.13047884h.674162v9.34244158h-.528848l-6.677569-8.30017977v8.30017977zm12.805114-6.48864194c.220221-.58231737.534672-1.09586533.944939-1.54116685.410003-.445563.902854-.80143815 1.481199-1.06840987.577021-.26671025 1.218362-.40084982 1.923493-.40084982.388299 0 .742982.02640955 1.064578.07844419.321333.05229613.620431.13230921.895972.24082367.275276.10851446.536524.23742441.782685.38777578.253221.15435131.494247.32742331.721012.51773165l-.456059.52113091c-.379734-.32716727-.806237-.597219-1.265742-.80143815-.474322-.21232227-1.068019-.31926785-1.782149-.31926785-.577551 0-1.105341.11086779-1.583633.33286485-.471464.21651811-.893247.52579566-1.239538.90890668-.347536.38437653-.616725.82889361-.806507 1.33485864-.189781.50622651-.284011 1.03938552-.284011 1.59973852 0 .62964536.092641 1.18973688.277129 1.7066841.185547.51720869.454471.96251021.807301 1.33616604.352036.37365582.778715.66625265 1.278977.87883641.499997.2133682 1.065372.31952933 1.695861.31952933.299098 0 .593697-.02876287.882207-.08445824.279598-.05414608.554015-.13173807.820271-.23193332.257807-.0972708.499468-.21179932.723659-.34175519.2085-.11911501.407347-.25400674.594756-.40346462v-2.68409871h-2.901783v-.63958163h3.582827v3.6037261c-.431443.37365582-.966379.69919921-1.602426.97950645-.637371.28004576-1.345678.42019938-2.125716.42019938-.749069 0-1.419261-.12655663-2.010046-.38097728-.590521-.25337474-1.08893-.59852917-1.494433-1.03572479-.405239-.4361497-.715983-.94551398-.931705-1.52756987-.215721-.58205589-.323979-1.20359536-.323979-1.86278804 0-.65631639.109846-1.26164406.330861-1.84369995zm-102.695015 16.01961109v-.0264096c0-.6563164.1077283-1.2768099.3250378-1.8601732.2162508-.5828403.5161432-1.0922046.8994125-1.5296617.3782137-.43255.8419026-.7841987 1.3626179-1.0333715.5259366-.2520673 1.0989879-.3791469 1.7215359-.3791469.3848575 0 .733982.0355614 1.0465795.1066841.3125974.0716457.6032257.1733617.8695026.3048864.2660014.1312329.5178594.2887513.7517162.4701422.2403383.1864066.4685959.387532.6834265.6021899l-.4518238.5062265c-.1862097-.1928817-.3839324-.3745867-.5921088-.5441412-.2039308-.1675516-.4260382-.31225-.6622514-.431443-.243394-.1221357-.4995367-.2177045-.7638918-.2850139-.2752764-.0719072-.5722572-.1074686-.8938541-.1074686-.5174665 0-.9978767.1061612-1.440701.317699-.4422261.2111162-.8347329.5114818-1.1521903.8817127-.3250379.3760091-.5801979.816604-.7641566 1.3217846-.1850174.505965-.2773938 1.0501062-.2773938 1.633208v.0258866c0 .5841478.0947586 1.1295964.2829523 1.6400066.1884584.5098872.4454712.9525739.7699797 1.3288445.3188279.3707988.7113553.6729513 1.153249.8877268.4428244.21546.9232345.324236 1.4409658.324236.6251949 0 1.1683363-.1234189 1.6273067-.3697336.4589703-.2463148.9073531-.6048047 1.3448837-1.0762543l.4327662.4539304c-.2223835.2326681-.4593028.4513455-.709366.6547475-.2411125.1968916-.5023632.3683927-.7795085.5117176-.2752763.1427684-.5727865.2538977-.8935893.3341722-.3210675.0797516-.6696626.1197581-1.0471089.1197581-.6180483 0-1.1895114-.1236803-1.7146539-.3726099-.5190865-.2435388-.9820507-.589735-1.3602357-1.0171596-.3811519-.4303972-.6776033-.9366237-.8904131-1.519987-.2125451-.5836247-.3186853-1.207779-.3186853-1.8729857zm14.2206699 0v-.0264096c0-.6380127.1146102-1.2493545.3440954-1.8340251.2289558-.5836248.5508174-1.0974343.9642613-1.540121.4147673-.4437326.9158232-.7962085 1.5050204-1.0589966.5876091-.2625265 1.2413904-.3943127 1.9597558-.3943127.7143951 0 1.364206.1317862 1.9504917.3943127.5865504.2627881 1.0878709.6136951 1.5039617 1.0527211.4163555.438503.7368936.9468214.9618791 1.5275698.2249854.5791796.3366841 1.189214.3366841 1.8269652.0052938.0041837.0068819.0091519.0068819.0130741 0 .0044451-.0015881.0083673-.0068819.0128125 0 .6387972-.1138162 1.2498774-.343566 1.8345481-.2289558.5838863-.5516115 1.0982187-.9679669 1.5435202-.4171496.4450401-.9205877.7998693-1.511373 1.0623958-.5897267.2625266-1.2421845.3935284-1.9563149.3935284-.7228651 0-1.3750582-.1310018-1.9573736-.3935284-.5815212-.2625265-1.0796655-.6144794-1.4936388-1.0555973-.4145027-.4413793-.7337173-.951528-.9587028-1.5312306-.2255149-.5794411-.3372135-1.1892139-.3372135-1.8272266zm.7273648-.0264096c0 .5778722.1013758 1.1230593.3038627 1.6350384.2030163.513025.483057.9583265.8393282 1.3361661.3568004.377578.7834788.6772348 1.2795056.8987089.4957621.2222585 1.0383741.3328648 1.6265126.3328648.5878738 0 1.1281036-.1092989 1.619366-.3260663.4808043-.2097763.9138267-.5132201 1.2731531-.8921719.3568004-.378624.634459-.8215722.8324462-1.3291061.199046-.5091028.2977749-1.0516751.2977749-1.6290243v-.0264096c0-.5770877-.1011111-1.1217519-.3038627-1.6321621-.2027517-.5098872-.4827924-.9544043-.8401223-1.3348586-.3565358-.3801929-.7842728-.6814186-1.2818878-.9021082-.4986736-.2222586-1.0402269-.3328649-1.6265126-.3328649-.586815 0-1.1249273.1090375-1.6164544.3260664-.4814741.20987-.9145201.5146133-1.2726237.8955712-.3573299.3801928-.634459.823141-.8327109 1.3293675-.1987813.505965-.2977749 1.0469685-.2977749 1.6251021zm15.4234157 4.6713515v-9.3419186h.661722l3.8083423 5.5245629 3.800931-5.5245629h.6678098v9.3419186h-.7072484v-8.1111292l-3.749052 5.3752574h-.0524084l-3.7559339-5.3752574v8.1111292zm15.9795269 0v-9.3419186h.661722l3.8078129 5.5245629 3.8011957-5.5245629h.6678098v9.3419186h-.7075131v-8.1111292l-3.7485226 5.3752574h-.0529378l-3.7551398-5.3752574v8.1111292h-.6741624zm15.9792622 0v-9.3419186h6.7437415v.6445498h-6.0431102v3.6683118h5.4345902v.6380128h-5.4345902v3.7522471h6.1090172v.6387971h-6.8093838zm13.3019355 0v-9.3419186h3.980125c.586286 0 1.105076.0823664 1.557164.2476222.451559.1649943.823182.3901291 1.113281.6772348.225813.2225166.404512.487227.525672.7786894.126867.3022789.190955.6266598.188459.9538813v.0269325c0 .3901291-.069084.7386828-.208046 1.0453996-.135823.3022094-.334182.5729836-.582315.7949011-.248808.2233045-.543406.4034646-.882473.5404805-.354535.1406501-.725093.2381157-1.103487.2902435l3.126768 3.9865337h-.89253l-3.021423-3.8699133h-3.100299v3.8699133zm.700896-4.495375h3.199558c.396768 0 .76495-.0486354 1.104281-.1459062.339331-.0985782.630489-.2387318.872415-.4204609.239034-.1782584.435481-.4062454.575433-.6678215.141344-.262788.211751-.5634908.211751-.9023697v-.0256251c0-.6304298-.237161-1.1275045-.710954-1.4920085-.473793-.3652884-1.145044-.5478019-2.012958-.5478019h-3.239791v4.2019938zm12.898284-.1495669v-.0264096c0-.6597156.122022-1.2833469.365271-1.8695865.234302-.571794.577552-1.0938319 1.011111-1.5377676.430649-.438503.941233-.7847034 1.532548-1.0388626.590785-.2536362 1.235832-.3812387 1.934875-.3812387.432502 0 .82477.0358228 1.176277.107207.352301.0721687.677868.1746691.97776.3064553.29654.1306277.579728.2890243.845681.4730185.263365.182252.519584.3843765.767068.6050662l-.506085.5088413c-.211456-.1949954-.434167-.3777277-.667015-.547279-.231935-.1696788-.48122-.3148953-.743776-.4332734-.276185-.1237231-.564183-.2199018-.859709-.2871057-.308098-.0716457-.643194-.1074686-1.004494-.1074686-.581786 0-1.121222.1066841-1.619895.3192679-.487978.2059919-.928641.5075328-1.295387.8864193-.365271.378101-.651135.8205263-.858651 1.3285831-.207781.5085799-.311009 1.0553359-.311009 1.6420984v.0256251c0 .5867626.105611 1.1356104.317626 1.6486354.212281.5127635.500262.9572806.866062 1.3361661.367694.3789899.807916.6820686 1.295122.8916489.49788.2170289 1.038374.3263278 1.62016.3263278.702749 0 1.313651-.1242033 1.829529-.3720869.516673-.2476222 1.02064-.607681 1.511638-1.0814839l.487557.4562837c-.252091.2353949-.518797.4550292-.798566.6576238-.27414.1998131-.567607.3723581-.87612.5151169-.308892.1430299-.643194.2546821-1.004494.3357411-.360771.0800131-.75304.1200196-1.176542.1200196-.694279 0-1.337472-.1242033-1.928258-.3744403-.590256-.249191-1.100311-.5904232-1.529107-1.0223892-.427472-.4327505-.761774-.9413303-1.000788-1.5278314-.239014-.5867625-.358389-1.2140546-.358389-1.8826606zm14.63729-4.6969767h6.743477v.6445498h-6.042845v3.6683118h5.43459v.6380128h-5.434326v3.7522471h6.109017v.6387971h-6.809913z"/></g></svg>