<?xml version="1.0" encoding="UTF-8"?>
<svg width="147px" height="24px" viewBox="0 0 147 24" version="1.1" xmlns="http://www.w3.org/2000/svg" xmlns:xlink="http://www.w3.org/1999/xlink">
    <!-- Generator: Sketch 45.2 (43514) - http://www.bohemiancoding.com/sketch -->
    <title>boomerang-logo</title>
    <desc>Created with Sketch.</desc>
    <defs></defs>
    <g id="Welcome" stroke="none" stroke-width="1" fill="none" fill-rule="evenodd">
        <g id="Desktop" transform="translate(-629.000000, -1292.000000)" fill-rule="nonzero" fill="#FFFFFF">
            <g id="Group-7" transform="translate(112.000000, 906.000000)">
                <g id="Group-5" transform="translate(400.000000, 272.000000)">
                    <g id="boomerang-logo" transform="translate(117.000000, 114.000000)">
                        <path d="M25.1069041,3.7180575 C25.1069041,3.7180575 24.2328995,0.824162929 23.1403269,0.209691223 C22.0482882,-0.404780484 17.8970997,0.526812055 17.8970997,0.526812055 C17.8970997,0.526812055 13.3488063,1.49794451 6.53637377,3.2622798 L7.60893092,6.71106904 C10.7470746,6.7906832 14.1632985,6.88980016 15.4146597,6.88980016 C17.9566121,6.88980016 18.8701137,7.32554074 19.9034408,8.73321528 C20.9357003,10.1403555 23.0413176,14.2832306 24.2924118,17.0980453 C24.4117035,17.3558563 24.5109797,17.5936301 24.6302713,17.8511739 L28.126023,16.8201973 C26.6363455,8.29694036 25.1069041,3.7180575 25.1069041,3.7180575 Z M28.6522939,20.6283189 L26.1450348,21.352594 C26.3555747,21.7730488 26.571223,22.1909206 26.7919317,22.6061163 C26.7919317,22.6061163 27.479393,24.0755051 28.4903028,23.9969596 C29.1980464,23.9381841 28.8140181,21.7247501 28.8140181,21.7247501 C28.7531714,21.3330912 28.6925915,20.980705 28.6522939,20.6283189 L28.6522939,20.6283189 Z M28.2573239,17.8511739 L24.9569222,18.8033379 C25.2011098,19.3189598 25.4455642,19.7947746 25.6494542,20.2315839 L28.5220605,19.4183439 C28.4406647,18.8826849 28.3387197,18.367063 28.257057,17.8511739 L28.2573239,17.8511739 Z M3.96132926,3.95182391 L4.80597802,6.70358851 C5.27754022,6.72362563 5.80781418,6.72362563 6.33835501,6.74366275 L5.35626735,3.56978281 C4.90418679,3.69080702 4.43289146,3.81102975 3.96132926,3.95182391 Z M0.690283503,4.77494884 C0.0436535062,4.95207699 -0.0169263573,5.34560604 0.0030890161,5.75863789 C0.0436535062,6.54542884 1.55975132,6.48611896 1.55975132,6.48611896 C1.55975132,6.48611896 2.42895227,6.50615608 3.76304363,6.54542884 L2.99498703,4.16528604 C2.22666357,4.36218415 1.47915609,4.5588151 0.690283503,4.77494884 Z" id="Shape"></path>
                        <path d="M112.244509,9.72655663 L116.647342,0.384376532 L117.320181,0.384376532 L121.724073,9.72655663 L120.95277,9.72655663 L118.86967,5.279294 L115.05471,5.279294 L112.975844,9.72655663 L112.244244,9.72655663 L112.244509,9.72655663 Z M115.350897,4.65174048 L118.572953,4.65174048 L116.971057,1.14084001 L115.351161,4.65174048 L115.350897,4.65174048 Z M36.5638964,9.66144795 L36.5638964,0 L40.4778496,0 C41.0201969,0 41.5000777,0.0758293839 41.9185507,0.229579997 C42.3378177,0.381761726 42.6797956,0.590423272 42.9436903,0.855303154 C43.3491936,1.26870404 43.5522099,1.77649943 43.5522099,2.37868933 L43.5522099,2.40536035 C43.5522099,2.73717928 43.5045659,3.02689982 43.4098073,3.27452198 C43.3150487,3.5213597 43.1909097,3.73655826 43.035802,3.92116359 C42.8868189,4.10055158 42.7107682,4.25621249 42.5138357,4.38267691 C42.3200835,4.50583429 42.1287136,4.61016506 41.9391964,4.69593071 C42.217721,4.76846817 42.4887894,4.86651227 42.7488794,4.98878902 C43.0019005,5.10567506 43.2331341,5.26391478 43.4328352,5.45683935 C43.6286327,5.64852828 43.7877134,5.8736267 43.9023931,6.12126164 C44.0217678,6.37463638 44.0807934,6.66801765 44.0807934,6.99983657 L44.0807934,7.0265076 C44.0807934,7.43101814 43.9997986,7.79604511 43.8364856,8.12184998 C43.6735274,8.44686091 43.4369516,8.73040685 43.1451185,8.9504821 C42.8481377,9.17718581 42.4908078,9.35237784 42.074717,9.47605818 C41.6583616,9.59895408 41.1938328,9.66144795 40.682454,9.66144795 L36.5638964,9.66144795 L36.5638964,9.66144795 Z M37.2647924,4.46007518 L40.3981783,4.46007518 C40.7510084,4.46007518 41.0760462,4.41640791 41.3738211,4.32828894 C41.6708019,4.24121588 41.9283441,4.11439778 42.1440655,3.94809609 C42.3588268,3.78295433 42.5317306,3.57069748 42.6490917,3.32812551 C42.7708486,3.08128779 42.8311976,2.79575094 42.8311976,2.4722994 L42.8311976,2.44562837 C42.8311976,1.91090047 42.6287107,1.48076483 42.2237368,1.1557444 C41.8174395,0.829678052 41.2316832,0.666775617 40.4640858,0.666775617 L37.2645277,0.666775617 L37.2645277,4.46007518 L37.2647924,4.46007518 Z M37.2647924,9.00042491 L40.7086582,9.00042491 C41.5204587,9.00042491 42.1649759,8.82392548 42.6432686,8.46831182 C43.1212965,8.11400556 43.3600458,7.63314267 43.3600458,7.0265076 L43.3600458,6.99983657 C43.3600458,6.40235333 43.1144146,5.94005556 42.6231522,5.61215885 C42.1313604,5.28400065 41.4161713,5.11979082 40.4778496,5.11979082 L37.2645277,5.11979082 L37.2645277,9.00016343 L37.2647924,9.00042491 Z M48.1194149,5.01650597 L48.1194149,4.98957346 C48.1194149,4.35156071 48.2332311,3.74074195 48.462981,3.15607125 C48.6922015,2.57244648 49.0135337,2.05863703 49.4285657,1.61595032 C49.8422743,1.17221768 50.3438595,0.819218827 50.931998,0.556953751 C51.5204012,0.294165713 52.1736531,0.162117993 52.8917538,0.162117993 C53.6064135,0.162117993 54.2559598,0.294165713 54.8425102,0.556953751 C55.4290605,0.819218827 55.9301164,1.17012584 56.3462072,1.60915182 C56.7633567,2.04765485 57.0833655,2.55649616 57.3086156,3.13672169 C57.5343362,3.71999934 57.6488452,4.33950541 57.6463585,4.96394836 C57.6499556,4.96749352 57.6520397,4.97226631 57.6521817,4.97728387 C57.6519615,4.98197978 57.6498678,4.98639845 57.6463585,4.98957346 C57.6463585,5.62837065 57.5309542,6.23971237 57.3019984,6.82438307 C57.0725132,7.40800784 56.7501223,7.92260173 56.3332374,8.36764177 C55.9171467,8.81320477 55.4137086,9.16751103 54.8229232,9.43029907 C54.2324025,9.69308711 53.5802093,9.82356594 52.8658143,9.82356594 C52.1432139,9.82356594 51.490756,9.69282563 50.9092348,9.43029907 C50.3269194,9.16751103 49.8293045,8.81581958 49.4148019,8.37444027 C49.0000345,7.93358392 48.6810845,7.42291224 48.4560991,6.84320967 C48.2310921,6.25994902 48.1169535,5.64068173 48.1194149,5.01650597 L48.1194149,5.01650597 Z M48.8462503,4.98957346 C48.8462503,5.56770714 48.9478908,6.11315574 49.1506424,6.62487335 C49.3528647,7.13763687 49.6329054,7.58319987 49.9902353,7.96103939 C50.3475652,8.3388789 50.77292,8.63801275 51.2686821,8.86000981 C51.7647089,9.0814839 52.3070563,9.19156725 52.8954594,9.19156725 C53.484392,9.19156725 54.0240924,9.08305279 54.5153548,8.86628534 C54.9958161,8.65643263 55.4285475,8.3530924 55.7877138,7.9743749 C56.1450437,7.59548946 56.4227022,7.15280275 56.6212188,6.64500735 C56.819206,6.13642752 56.9184643,5.59359372 56.9184643,5.01650597 L56.9184643,4.98957346 C56.9184643,4.4124857 56.8168238,3.86782154 56.6148663,3.3579343 C56.4113206,2.84752411 56.132074,2.40300703 55.7752735,2.02281419 C55.4179436,1.64235986 54.9904712,1.34113417 54.4923269,1.12044452 C53.9936532,0.898185978 53.4523646,0.78757967 52.8658143,0.78757967 C52.2795286,0.78757967 51.7408869,0.896878575 51.2496245,1.11364602 C50.767924,1.32339038 50.3346805,1.62814591 49.9764715,2.00921719 C49.619671,2.38967151 49.3420124,2.83235823 49.1440252,3.33858474 C48.9449793,3.84481124 48.8462503,4.38607616 48.8462503,4.96394836 L48.8462503,4.98957346 L48.8462503,4.98957346 Z M61.8223535,5.01650597 L61.8223535,4.98957346 C61.8223535,4.35156071 61.9374932,3.74074195 62.1667137,3.15607125 C62.3961988,2.57244648 62.7177957,2.05863703 63.1315043,1.61595032 C63.5462716,1.17221768 64.0470628,0.819218827 64.6359954,0.556953751 C65.2243986,0.294165713 65.8773858,0.162117993 66.5957512,0.162117993 C67.3104109,0.162117993 67.9599572,0.294165713 68.5465075,0.556953751 C69.1327932,0.819218827 69.6338491,1.17012584 70.0502046,1.60915182 C70.46656,2.04765485 70.7870981,2.55649616 71.0123483,3.13672169 C71.2376154,3.72010047 71.3518485,4.33957103 71.3492971,4.96394836 C71.3534656,4.96717665 71.3559831,4.9720549 71.356179,4.97728387 C71.356179,4.98120608 71.3543262,4.98565125 71.3492971,4.98957346 C71.3492971,5.62837065 71.2349516,6.23971237 71.0057311,6.82438307 C70.7762459,7.40800784 70.4541197,7.92260173 70.0374995,8.36764177 C69.62035,8.81320477 69.1169119,9.16751103 68.5261265,9.43029907 C67.9353411,9.69308711 67.2842067,9.82356594 66.569547,9.82356594 C65.8469466,9.82356594 65.1944887,9.69282563 64.6124381,9.43029907 C64.0309168,9.16751103 63.5325078,8.81581958 63.1187992,8.37444027 C62.7040319,7.93358392 62.3850819,7.42291224 62.1600964,6.84320967 C61.9343575,6.26011894 61.8198469,5.6407807 61.8223535,5.01650597 L61.8223535,5.01650597 Z M62.5502477,4.98957346 C62.5502477,5.56770714 62.6518882,6.11315574 62.8538458,6.62487335 C63.0568621,7.13763687 63.3369028,7.58319987 63.6934386,7.96103939 C64.0507685,8.3388789 64.4769174,8.63801275 64.9726795,8.86000981 C65.4687063,9.0814839 66.0110536,9.19156725 66.5994568,9.19156725 C67.1875953,9.19156725 67.7272957,9.08305279 68.2193522,8.86628534 C68.6998135,8.65643263 69.1325449,8.3530924 69.4917112,7.9743749 C69.8490411,7.59548946 70.1266996,7.15280275 70.3244221,6.64500735 C70.5232034,6.13642752 70.6224617,5.59359372 70.6224617,5.01650597 L70.6224617,4.98957346 C70.6224617,4.4124857 70.5208212,3.86782154 70.318599,3.3579343 C70.115318,2.84752411 69.8352773,2.40300703 69.4779474,2.02281419 C69.1211469,1.64235986 68.6936745,1.34113417 68.1963243,1.12044452 C67.6976506,0.898185978 67.1560973,0.78757967 66.569547,0.78757967 C65.9832613,0.78757967 65.4440902,0.896878575 64.9533572,1.11364602 C64.4717515,1.32342114 64.0386005,1.6281749 63.6804688,2.00921719 C63.3236684,2.38967151 63.0460098,2.83235823 62.8472285,3.33858474 C62.6489766,3.84481124 62.5502477,4.38607616 62.5502477,4.96394836 L62.5502477,4.98957346 L62.5502477,4.98957346 Z M75.9151788,9.66144795 L75.9151788,0.261480634 L76.5811357,0.261480634 L80.412506,5.82003595 L84.237259,0.261480634 L84.9087744,0.261480634 L84.9087744,9.66144795 L84.197291,9.66144795 L84.197291,1.49985292 L80.425211,6.90831835 L80.372538,6.90831835 L76.5935761,1.49985292 L76.5935761,9.66144795 L75.9151788,9.66144795 L75.9151788,9.66144795 Z M89.8907468,9.66144795 L89.8907468,0.319006374 L96.6350172,0.319006374 L96.6350172,0.963556137 L90.5913781,0.963556137 L90.5913781,4.63186795 L95.2321666,4.63186795 L95.2321666,5.2698807 L90.5913781,5.2698807 L90.5913781,9.0221278 L96.7003953,9.0221278 L96.7003953,9.66144795 L89.8907468,9.66144795 L89.8907468,9.66144795 Z M101.162254,9.66144795 L101.162254,0.319006374 L105.14185,0.319006374 C105.728665,0.319006374 106.246926,0.401634254 106.699014,0.566628534 C107.151103,0.731884295 107.522196,0.957019121 107.81256,1.24386338 C108.038483,1.46633748 108.217118,1.73117477 108.337967,2.02281419 C108.46503,2.32514348 108.529298,2.64961394 108.526955,2.97695702 L108.526955,3.00310508 C108.526955,3.39349567 108.457342,3.74231084 108.31891,4.04902762 C108.182976,4.35089514 107.984937,4.62151245 107.737388,4.84366727 C107.487787,5.06723321 107.193982,5.24713188 106.854916,5.38414774 C106.500059,5.52493166 106.129135,5.62240023 105.75037,5.67439124 L108.877403,9.66144795 L107.984078,9.66144795 L104.963185,5.7910116 L101.862356,5.7910116 L101.862356,9.66144795 L101.16199,9.66144795 L101.162254,9.66144795 Z M101.862621,5.16581141 L105.062444,5.16581141 C105.459477,5.16581141 105.827394,5.11743749 106.166725,5.01964373 C106.506056,4.92106553 106.796949,4.78091191 107.039404,4.59944435 C107.278349,4.42098628 107.474774,4.19293596 107.614838,3.93136133 C107.755917,3.66909626 107.826059,3.36787057 107.826059,3.02925315 L107.826059,3.00310508 C107.826059,2.37293675 107.589427,1.87586207 107.11537,1.51135807 C106.641577,1.14606962 105.970591,0.963556137 105.102147,0.963556137 L101.862621,0.963556137 L101.862621,5.16554993 L101.862621,5.16581141 Z M126.037442,9.66144795 L126.037442,0.319006374 L126.698899,0.319006374 L133.243859,8.44948521 L133.243859,0.319006374 L133.918021,0.319006374 L133.918021,9.66144795 L133.389173,9.66144795 L126.711604,1.36126818 L126.711604,9.66144795 L126.037442,9.66144795 L126.037442,9.66144795 Z M138.842556,3.17280601 C139.062777,2.59048864 139.377228,2.07694068 139.787495,1.63163916 C140.197498,1.18607616 140.690349,0.830201013 141.268694,0.563229286 C141.845715,0.296519039 142.487056,0.162379474 143.192187,0.162379474 C143.580486,0.162379474 143.935169,0.188789018 144.256765,0.240823664 C144.578098,0.293119791 144.877196,0.373132865 145.152737,0.481647328 C145.428013,0.590161791 145.689261,0.719071744 145.935422,0.869423108 C146.188643,1.02377442 146.429669,1.19684642 146.656434,1.38715476 L146.200375,1.90828567 C145.820641,1.5811184 145.394138,1.31106667 144.934633,1.10684752 C144.460311,0.894525249 143.866614,0.78757967 143.152484,0.78757967 C142.574933,0.78757967 142.047143,0.898447459 141.568851,1.12044452 C141.097387,1.33696263 140.675604,1.64624018 140.329313,2.0293512 C139.981777,2.41372773 139.712588,2.85824481 139.522806,3.36420984 C139.333025,3.87043635 139.238795,4.40359536 139.238795,4.96394836 C139.238795,5.59359372 139.331436,6.15368524 139.515924,6.67063246 C139.701471,7.18784115 139.970395,7.63314267 140.323225,8.0067985 C140.675261,8.38045432 141.10194,8.67305115 141.602202,8.88563491 C142.102199,9.09900311 142.667574,9.20516424 143.298063,9.20516424 C143.597161,9.20516424 143.89176,9.17640137 144.18027,9.120706 C144.459868,9.06655992 144.734285,8.98896793 145.000541,8.88877268 C145.258348,8.79150188 145.500009,8.67697336 145.7242,8.54701749 C145.9327,8.42790248 146.131547,8.29301075 146.318956,8.14355287 L146.318956,5.45945416 L143.417173,5.45945416 L143.417173,4.81987253 L147,4.81987253 L147,8.42359863 C146.568557,8.79725445 146.033621,9.12279784 145.397574,9.40310508 C144.760203,9.68315084 144.051896,9.82330446 143.271858,9.82330446 C142.522789,9.82330446 141.852597,9.69674783 141.261812,9.44232718 C140.671291,9.18895244 140.172882,8.84379801 139.767379,8.40660239 C139.36214,7.97045269 139.051396,7.46108841 138.835674,6.87903252 C138.619953,6.29697663 138.511695,5.67543716 138.511695,5.01624448 C138.511695,4.35992809 138.621541,3.75460042 138.842556,3.17254453 L138.842556,3.17280601 Z M36.147541,19.1924171 L36.147541,19.1660075 C36.147541,18.5096911 36.2552693,17.8891976 36.4725788,17.3058343 C36.6888296,16.722994 36.988722,16.2136297 37.3719913,15.7761726 C37.750205,15.3436226 38.2138939,14.9919739 38.7346092,14.7428011 C39.2605458,14.4907338 39.8335971,14.3636542 40.4561451,14.3636542 C40.8410026,14.3636542 41.1901271,14.3992156 41.5027246,14.4703383 C41.815322,14.541984 42.1059503,14.6437 42.3722272,14.7752247 C42.6382286,14.9064576 42.8900866,15.063976 43.1239434,15.2453669 C43.3642817,15.4317735 43.5925393,15.6328989 43.8073699,15.8475568 L43.3555461,16.3537833 C43.1693364,16.1609016 42.9716137,15.9791966 42.7634373,15.8096421 C42.5595065,15.6420905 42.3373991,15.4973921 42.1011859,15.3781991 C41.8577919,15.2560634 41.6016492,15.1604946 41.3372941,15.0931852 C41.0620177,15.021278 40.7650369,14.9857166 40.44344,14.9857166 C39.9259735,14.9857166 39.4455633,15.0918778 39.002739,15.3034156 C38.5605129,15.5145318 38.1680061,15.8148974 37.8505487,16.1851283 C37.5255108,16.5611374 37.2703508,17.0017323 37.0863921,17.5069129 C36.9013747,18.0128779 36.8089983,18.5570191 36.8089983,19.1401209 L36.8089983,19.1660075 C36.8089983,19.7501553 36.9037569,20.2956039 37.0919506,20.8060141 C37.280409,21.3159013 37.5374218,21.758588 37.8619303,22.1348586 C38.1807582,22.5056574 38.5732856,22.8078099 39.0151793,23.0225854 C39.4580037,23.2380454 39.9384138,23.3468214 40.4561451,23.3468214 C41.08134,23.3468214 41.6244814,23.2234025 42.0834518,22.9770878 C42.5424221,22.730773 42.9908049,22.3722831 43.4283355,21.9008335 L43.8611017,22.3547639 C43.6387182,22.587432 43.4017989,22.8061094 43.1517357,23.0095114 C42.9106232,23.206403 42.6493725,23.3779041 42.3722272,23.521229 C42.0969509,23.6639974 41.7994407,23.7751267 41.4786379,23.8554012 C41.1575704,23.9351528 40.8089753,23.9751593 40.431529,23.9751593 C39.8134807,23.9751593 39.2420176,23.851479 38.7168751,23.6025494 C38.1977886,23.3590106 37.7348244,23.0128144 37.3566394,22.5853898 C36.9754875,22.1549926 36.6790361,21.6487661 36.4662263,21.0654028 C36.2536812,20.4817781 36.147541,19.8576238 36.147541,19.1924171 L36.147541,19.1924171 Z M50.3682109,19.1924171 L50.3682109,19.1660075 C50.3682109,18.5279948 50.4828211,17.916653 50.7123063,17.3319824 C50.9412621,16.7483576 51.2631237,16.2345481 51.6765676,15.7918614 C52.0913349,15.3481288 52.5923908,14.9956529 53.181588,14.7328648 C53.7691971,14.4703383 54.4229784,14.3385521 55.1413438,14.3385521 C55.8557389,14.3385521 56.5055498,14.4703383 57.0918355,14.7328648 C57.6783859,14.9956529 58.1797064,15.3465599 58.5957972,15.7855859 C59.0121527,16.2240889 59.3326908,16.7324073 59.5576763,17.3131557 C59.7826617,17.8923353 59.8943604,18.5023697 59.8943604,19.1401209 C59.8996542,19.1443046 59.9012423,19.1492728 59.9012423,19.153195 C59.9012423,19.1576401 59.8996542,19.1615623 59.8943604,19.1660075 C59.8943604,19.8048047 59.7805442,20.4158849 59.5507944,21.0005556 C59.3218386,21.5844419 58.9991829,22.0987743 58.5828275,22.5440758 C58.1656779,22.9891159 57.6622398,23.3439451 57.0714545,23.6064716 C56.4817278,23.8689982 55.82927,24 55.1151396,24 C54.3922745,24 53.7400814,23.8689982 53.157766,23.6064716 C52.5762448,23.3439451 52.0781005,22.9919922 51.6641272,22.5508743 C51.2496245,22.109495 50.9304099,21.5993463 50.7054244,21.0196437 C50.4799095,20.4402026 50.3682109,19.8304298 50.3682109,19.1924171 L50.3682109,19.1924171 Z M51.0955757,19.1660075 C51.0955757,19.7438797 51.1969515,20.2890668 51.3994384,20.8010459 C51.6024547,21.3140709 51.8824954,21.7593724 52.2387666,22.137212 C52.595567,22.51479 53.0222454,22.8144468 53.5182722,23.0359209 C54.0140343,23.2581794 54.5566463,23.3687857 55.1447848,23.3687857 C55.7326586,23.3687857 56.2728884,23.2594868 56.7641508,23.0427194 C57.2449551,22.8329431 57.6779775,22.5294993 58.0373039,22.1505475 C58.3941043,21.7719235 58.6717629,21.3289753 58.8697501,20.8214414 C59.0687961,20.3123386 59.167525,19.7697663 59.167525,19.1924171 L59.167525,19.1660075 C59.167525,18.5889198 59.0664139,18.0442556 58.8636623,17.5338454 C58.6609106,17.0239582 58.3808699,16.5794411 58.02354,16.1989868 C57.6670042,15.8187939 57.2392672,15.5175682 56.7416522,15.2968786 C56.2429786,15.07462 55.7014253,14.9640137 55.1151396,14.9640137 C54.5283246,14.9640137 53.9902123,15.0730512 53.4986852,15.2900801 C53.0172111,15.4999501 52.5841651,15.8046934 52.2260615,16.1856513 C51.8687316,16.5658441 51.5916025,17.0087923 51.3933506,17.5150188 C51.1945693,18.0209838 51.0955757,18.5619873 51.0955757,19.1401209 L51.0955757,19.1660075 L51.0955757,19.1660075 Z M66.5189914,23.837359 L66.5189914,14.4954404 L67.1807134,14.4954404 L70.9890557,20.0200033 L74.7899867,14.4954404 L75.4577965,14.4954404 L75.4577965,23.837359 L74.7505481,23.837359 L74.7505481,15.7262298 L71.0014961,21.1014872 L70.9490877,21.1014872 L67.1931538,15.7262298 L67.1931538,23.837359 L66.5189914,23.837359 L66.5189914,23.837359 Z M82.4985183,23.837359 L82.4985183,14.4954404 L83.1602403,14.4954404 L86.9680532,20.0200033 L90.7692489,14.4954404 L91.4370587,14.4954404 L91.4370587,23.837359 L90.7295456,23.837359 L90.7295456,15.7262298 L86.981023,21.1014872 L86.9280852,21.1014872 L83.1729454,15.7262298 L83.1729454,23.837359 L82.498783,23.837359 L82.4985183,23.837359 Z M98.4777805,23.837359 L98.4777805,14.4954404 L105.221522,14.4954404 L105.221522,15.1399902 L99.1784118,15.1399902 L99.1784118,18.808302 L104.613002,18.808302 L104.613002,19.4463148 L99.1784118,19.4463148 L99.1784118,23.1985619 L105.287429,23.1985619 L105.287429,23.837359 L98.4780452,23.837359 L98.4777805,23.837359 Z M111.779716,23.837359 L111.779716,14.4954404 L115.759841,14.4954404 C116.346127,14.4954404 116.864917,14.5778068 117.317005,14.7430626 C117.768564,14.9080569 118.140187,15.1331917 118.430286,15.4202974 C118.656099,15.642814 118.834798,15.9075244 118.955958,16.1989868 C119.082825,16.5012657 119.146913,16.8256466 119.144417,17.1528681 L119.144417,17.1798006 C119.144417,17.5699297 119.075333,17.9184834 118.936371,18.2252002 C118.800548,18.5274096 118.602189,18.7981838 118.354056,19.0201013 C118.105248,19.2434058 117.81065,19.4235659 117.471583,19.5605818 C117.117048,19.7012319 116.74649,19.7986975 116.368096,19.8508253 L119.494864,23.837359 L118.602334,23.837359 L115.580911,19.9674457 L112.480612,19.9674457 L112.480612,23.837359 L111.779716,23.837359 Z M112.480612,19.341984 L115.68017,19.341984 C116.076938,19.341984 116.44512,19.2933486 116.784451,19.1960778 C117.123782,19.0974996 117.41494,18.957346 117.656866,18.7756169 C117.8959,18.5973585 118.092347,18.3693715 118.232299,18.1077954 C118.373643,17.8450074 118.44405,17.5443046 118.44405,17.2054257 L118.44405,17.1798006 C118.44405,16.5493708 118.206889,16.0522961 117.733096,15.6877921 C117.259303,15.3225037 116.588052,15.1399902 115.720138,15.1399902 L112.480347,15.1399902 L112.480347,19.341984 L112.480612,19.341984 Z M125.378896,19.1924171 L125.378896,19.1660075 C125.378896,18.5062919 125.500918,17.8826606 125.744167,17.296421 C125.978469,16.724627 126.321719,16.2025891 126.755278,15.7586534 C127.185927,15.3201504 127.696511,14.97395 128.287826,14.7197908 C128.878611,14.4661546 129.523658,14.3385521 130.222701,14.3385521 C130.655203,14.3385521 131.047471,14.3743749 131.398978,14.4457591 C131.751279,14.5179278 132.076846,14.6204282 132.376738,14.7522144 C132.673278,14.8828421 132.956466,15.0412387 133.222419,15.2252329 C133.485784,15.4074849 133.742003,15.6096094 133.989487,15.8302991 L133.483402,16.3391404 C133.271946,16.144145 133.049235,15.9614127 132.816387,15.7918614 C132.584452,15.6221826 132.335167,15.4769661 132.072611,15.358588 C131.796426,15.2348649 131.508428,15.1386862 131.212902,15.0714823 C130.904804,14.9998366 130.569708,14.9640137 130.208408,14.9640137 C129.626622,14.9640137 129.087186,15.0706978 128.588513,15.2832816 C128.100535,15.4892735 127.659872,15.7908144 127.293126,16.1697009 C126.927855,16.5478019 126.641991,16.9902272 126.434475,17.498284 C126.226694,18.0068639 126.123466,18.5536199 126.123466,19.1403824 L126.123466,19.1660075 C126.123466,19.7527701 126.229077,20.3016179 126.441092,20.8146429 C126.653373,21.3274064 126.941354,21.7719235 127.307154,22.150809 C127.674848,22.5297989 128.11507,22.8328776 128.602276,23.0424579 C129.100156,23.2594868 129.64065,23.3687857 130.222436,23.3687857 C130.925185,23.3687857 131.536087,23.2445824 132.051965,22.9966988 C132.568638,22.7490766 133.072605,22.3890178 133.563603,21.9152149 L134.05116,22.3714986 C133.799069,22.6068935 133.532363,22.8265278 133.252594,23.0291224 C132.978454,23.2289355 132.684987,23.4014805 132.376474,23.5442393 C132.067582,23.6872692 131.73328,23.7989214 131.37198,23.8799804 C131.011209,23.9599935 130.61894,24 130.195438,24 C129.501159,24 128.857966,23.8757967 128.26718,23.6255597 C127.676924,23.3763687 127.166869,23.0351365 126.738073,22.6031705 C126.310601,22.17042 125.976299,21.6618402 125.737285,21.0753391 C125.498271,20.4885766 125.378896,19.8612845 125.378896,19.1926785 L125.378896,19.1924171 Z M140.016186,14.4954404 L146.759663,14.4954404 L146.759663,15.1399902 L140.716818,15.1399902 L140.716818,18.808302 L146.151408,18.808302 L146.151408,19.4463148 L140.717082,19.4463148 L140.717082,23.1985619 L146.826099,23.1985619 L146.826099,23.837359 L140.016186,23.837359 L140.016186,14.4954404 L140.016186,14.4954404 Z" id="Shape"></path>
                    </g>
                </g>
            </g>
        </g>
    </g>
</svg>