<?xml version="1.0" encoding="UTF-8"?>
<svg width="102px" height="20px" viewBox="0 0 102 20" version="1.1" xmlns="http://www.w3.org/2000/svg" xmlns:xlink="http://www.w3.org/1999/xlink">
    <!-- Generator: Sketch 45.2 (43514) - http://www.bohemiancoding.com/sketch -->
    <title>Shape</title>
    <desc>Created with Sketch.</desc>
    <defs></defs>
    <g id="Welcome" stroke="none" stroke-width="1" fill="none" fill-rule="evenodd">
        <g id="Desktop" transform="translate(-252.000000, -1295.000000)" fill="#FFFFFF">
            <g id="Group-7" transform="translate(112.000000, 906.000000)">
                <g id="Group-6" transform="translate(0.000000, 272.000000)">
                    <g id="logo" transform="translate(140.000000, 117.000000)">
                        <g id="Group">
                            <path d="M3.38813179e-21,10.9768 C3.38813179e-21,9.7544 0.238535433,8.588 0.716409449,7.4784 C1.19348031,6.3688 1.8343937,5.4152 2.63834646,4.6176 C3.44149606,3.82 4.40286614,3.1848 5.52165354,2.7104 C6.63598282,2.23744175 7.83541106,1.9957203 9.04667717,2 C10.2787087,2 11.3830394,2.1896 12.358063,2.568 C13.3330866,2.9464 14.2534961,3.5304 15.1184882,4.32 C15.2289048,4.409539 15.2919633,4.54459767 15.2895591,4.6864 C15.2898835,4.81645542 15.2353957,4.94067637 15.1393701,5.0288 L13.1355118,7.056 C13.0462918,7.1363519 12.9296934,7.1798333 12.8094331,7.1776 C12.6911202,7.18067856 12.5771308,7.13322369 12.4962047,7.0472 C11.5195748,6.1328 10.3622362,5.676 9.02659843,5.676 C7.59859843,5.676 6.40351181,6.1856 5.44374803,7.204 C4.4831811,8.224 4.00289764,9.448 4.00289764,10.8784 C4.00289764,12.292 4.48719685,13.5 5.45659843,14.5024 C6.42519685,15.5056 7.62349606,16.0064 9.05149606,16.0064 C9.66108661,16.0064 10.2722835,15.9 10.8866929,15.6864 C11.4741325,15.4874012 12.0197417,15.1823098 12.4962047,14.7864 C12.5797323,14.712 12.6929764,14.6792 12.8343307,14.688 C12.9764882,14.696 13.0849134,14.7408 13.1604094,14.8224 L15.1642677,16.9088 C15.2488441,16.9931723 15.294254,17.1088615 15.2895591,17.228 C15.2895591,17.3744 15.2413701,17.492 15.1425827,17.5824 C13.4784567,19.1936 11.4464882,20 9.04667717,20 C8.22264567,20 7.41869291,19.8936 6.6348189,19.6808 C5.87608838,19.4783993 5.1474971,19.1771309 4.46792126,18.7848 C3.80200711,18.3963733 3.1892255,17.923935 2.64477165,17.3792 C2.09597032,16.8351069 1.62053479,16.2222344 1.2304252,15.556 C0.835563577,14.8759755 0.531032769,14.1477526 0.324472441,13.3896 C0.107525177,12.6033255 -0.00162232617,11.7914279 3.38813179e-21,10.976 M17.9054173,13.112 L17.9054173,2.872 C17.9054173,2.7512 17.9536063,2.6424 18.0515906,2.5448 C18.1368451,2.45369422 18.255853,2.40136261 18.3808819,2.4 L21.4457008,2.4 C21.5838425,2.4 21.6978898,2.4464 21.7870394,2.5392 C21.8750123,2.62761381 21.9236304,2.74752947 21.9219685,2.872 L21.9219685,12.9184 C21.9219685,13.7904 22.2167244,14.5288 22.8078425,15.1344 C23.3981575,15.7392 24.136252,16.0416 25.0229291,16.0416 C25.9168346,16.0416 26.6653701,15.7392 27.2685354,15.1336 C27.8708976,14.5288 28.1728819,13.7904 28.1728819,12.9184 L28.1728819,2.872 C28.1708983,2.74594359 28.2204075,2.62449205 28.3100561,2.53549673 C28.3997047,2.44650141 28.5218012,2.39759761 28.6483465,2.4 L31.7155748,2.4 C31.8368504,2.4 31.9460787,2.448 32.044063,2.5448 C32.1359378,2.62916705 32.188819,2.74753827 32.1902362,2.872 L32.1902362,13.112 C32.1964494,14.3246972 31.8638626,15.5152092 31.2296693,16.5504 C30.5952181,17.6022336 29.695286,18.4702274 28.6194331,19.068 C27.5236972,19.6881894 26.2831721,20.0096598 25.0229291,20 C23.7687984,20.0095747 22.5345107,19.6879972 21.4457008,19.068 C20.375173,18.4698684 19.4815786,17.6015754 18.8547402,16.5504 C18.2273866,15.5131087 17.8989376,14.3237597 17.9054173,13.1128 M35.0060787,10.9768 C35.0060787,9.7544 35.2446142,8.588 35.721685,7.4784 C36.1995591,6.3688 36.8396693,5.4152 37.643622,4.6176 C38.4475748,3.82 39.4089449,3.1848 40.5269291,2.7104 C41.6415003,2.23731363 42.8412173,1.99558907 44.0527559,2 C45.2847874,2 46.388315,2.1896 47.3641417,2.568 C48.3391654,2.9464 49.2595748,3.5304 50.1245669,4.32 C50.2347905,4.40968855 50.2978028,4.54464836 50.2956378,4.6864 C50.2959622,4.81645542 50.2414744,4.94067637 50.1454488,5.0288 L48.1407874,7.056 C48.051771,7.13616137 47.9354964,7.17962909 47.8155118,7.1776 C47.6971989,7.18067856 47.5832096,7.13322369 47.5022835,7.0472 C46.5248504,6.1328 45.368315,5.676 44.0326772,5.676 C42.603874,5.676 41.4095906,6.1856 40.4498268,7.204 C39.4892598,8.224 39.0089764,9.448 39.0089764,10.8784 C39.0089764,12.292 39.4932756,13.5 40.4626772,14.5024 C41.4304724,15.5056 42.6295748,16.0064 44.0575748,16.0064 C44.6671654,16.0064 45.2783622,15.9 45.8919685,15.6864 C46.4797215,15.4875574 47.0256217,15.1824555 47.5022835,14.7864 C47.585811,14.712 47.698252,14.6792 47.8404094,14.688 C47.9825669,14.696 48.0909921,14.7408 48.1664882,14.8224 L50.1703465,16.9088 C50.2549228,16.9931723 50.3003328,17.1088615 50.2956378,17.228 C50.2956378,17.3744 50.2474488,17.492 50.1486614,17.5824 C48.4837323,19.1936 46.4517638,20 44.0527559,20 C43.2279213,20 42.4247717,19.8936 41.6408976,19.6808 C40.8821792,19.4783639 40.1535925,19.1770974 39.474,18.7848 C38.807854,18.3963565 38.1948088,17.923923 37.6500472,17.3792 C37.1015696,16.8350221 36.6264101,16.2221574 36.2365039,15.556 C35.8416423,14.8759755 35.5371115,14.1477526 35.3305512,13.3896 C35.1136757,12.6035838 35.0045289,11.7919601 35.0060787,10.9768 M52.9114961,19.3984 L52.9114961,3.0144 C52.9114961,2.8416 52.9661102,2.6968 53.0769449,2.5776 C53.1823731,2.46136299 53.3333388,2.39654172 53.4905669,2.4 L56.3297008,2.4 C56.4879213,2.4 56.6236535,2.4616 56.7385039,2.584 C56.8496316,2.69947213 56.9110262,2.85364875 56.9095748,3.0136 L56.9095748,9.6168 L62.4737953,2.6576 C62.611937,2.4856 62.7709606,2.4 62.950063,2.4 L66.1056378,2.4 C66.3417638,2.4 66.5104252,2.5088 66.6124252,2.7256 C66.7161093,2.92100121 66.6947144,3.15886887 66.557811,3.3328 L60.6883937,10.6968 L67.083874,19.0424 C67.1540558,19.1391111 67.1924892,19.2550771 67.1939055,19.3744 C67.2000835,19.4721764 67.1786611,19.5697231 67.132063,19.656 C67.0368796,19.8576116 66.8303475,19.9834355 66.6068031,19.976 L63.1460315,19.976 C63.0536908,19.9736405 62.9625393,19.9546687 62.8769764,19.92 C62.7789921,19.8832 62.7179528,19.8448 62.6938583,19.804 L56.9095748,11.912 L56.9095748,19.3984 C56.9119989,19.5568762 56.850352,19.7096682 56.7385039,19.8224 C56.6337575,19.9367651 56.4851117,20.0013426 56.3297008,20 L53.4905669,20 C53.334433,20.0037451 53.1840591,19.9412138 53.0769449,19.828 C52.9662093,19.7126819 52.9066,19.5579019 52.9114961,19.3984 M72.1790551,11.0184 C72.1790551,12.3792 72.6673701,13.5512 73.6448031,14.5336 C74.6214331,15.516 75.7876063,16.0064 77.1417165,16.0064 C78.5118898,16.0064 79.6860945,15.516 80.6635276,14.5336 C81.6401575,13.5512 82.1284724,12.3792 82.1284724,11.0184 C82.1284724,9.6408 81.6401575,8.4584 80.6635276,7.4728 C79.6860945,6.4864 78.5118898,5.9928 77.1417165,5.9928 C75.7876063,5.9928 74.6214331,6.4864 73.6448031,7.4728 C72.6673701,8.4592 72.1790551,9.6408 72.1790551,11.0184 M68.2010551,11.0184 C68.2010551,10.1968 68.3062677,9.3952 68.5174961,8.6144 C68.7279213,7.8336 69.0234803,7.1136 69.4057795,6.4544 C69.7899774,5.79140916 70.2580223,5.18028231 70.7984409,4.636 C71.3365893,4.09006504 71.9437836,3.61621853 72.6047244,3.2264 C73.2617008,2.84 73.9773071,2.5384 74.7515433,2.3232 C75.5257795,2.1072 76.3225039,2 77.1417165,2 C78.3657165,2 79.5318898,2.236 80.6386299,2.7072 C81.7453701,3.1792 82.6987087,3.8176 83.4978425,4.6224 C84.2961732,5.4272 84.9306614,6.3872 85.4013071,7.5016 C85.8711496,8.6152 86.1064724,9.788 86.1064724,11.0184 C86.1114257,12.2252156 85.8715733,13.4205909 85.4013071,14.5328 C84.9306614,15.6448 84.2961732,16.5992 83.4978425,17.3976 C82.6987087,18.196 81.7453701,18.8296 80.6386299,19.2976 C79.5318898,19.7656 78.3657165,20 77.1417165,20 C75.9169134,20 74.7515433,19.7656 73.6448031,19.2976 C72.5372598,18.8288 71.5871339,18.1952 70.7920157,17.3968 C69.9968976,16.5992 69.3672283,15.644 68.9005984,14.532 C68.4343249,13.4190717 68.1967319,12.2243405 68.2018583,11.0184 M91.7397638,7.212 C91.7397638,8.0816 92.0554016,8.8304 92.6874803,9.4584 C93.3203622,10.0864 94.0745197,10.4 94.9507559,10.4 C95.8374331,10.4 96.5972126,10.0864 97.2292913,9.4584 C97.8613701,8.8304 98.1770079,8.0824 98.1770079,7.212 C98.1770079,6.332 97.8613701,5.576 97.2292913,4.9456 C96.5972126,4.3152 95.8374331,4 94.9507559,4 C94.0745197,4 93.3203622,4.3152 92.6882835,4.9456 C92.0554016,5.576 91.7397638,6.3312 91.7397638,7.212 M87.9167717,7.1144 C87.9167717,6.4664 88.0002992,5.8344 88.165748,5.2184 C88.332,4.6024 88.5641102,4.0344 88.8644882,3.5144 C89.1665314,2.99130236 89.5347021,2.50896502 89.9599843,2.0792 C90.3830969,1.64866231 90.8607047,1.27485146 91.3807559,0.9672 C91.9097654,0.657250393 92.4773618,0.41786893 93.0689764,0.2552 C93.6807368,0.0847713292 94.3131105,-0.0010988037 94.9483465,-3.38813179e-21 C95.912126,-3.38813179e-21 96.8293228,0.1864 97.699937,0.5584 C98.5411425,0.910745102 99.3048729,1.42388135 99.9479528,2.0688 C100.588711,2.72312872 101.096988,3.49423241 101.445024,4.34 C101.814472,5.2184 102,6.144 102,7.1144 C102.003978,8.06608806 101.815507,9.00882824 101.445827,9.8864 C101.098346,10.7295707 100.589618,11.4974136 99.9479528,12.1472 C99.3033803,12.7876747 98.5394894,13.2966593 97.6991339,13.6456 C96.8298664,14.0147731 95.8941248,14.2034197 94.9491496,14.2 C94.0039041,14.2035286 93.0678783,14.0148798 92.1983622,13.6456 C91.3592936,13.2969883 90.5971357,12.787614 89.9551654,12.1464 C89.3295118,11.5168 88.8339685,10.7632 88.4669291,9.8864 C88.0999234,9.00815102 87.9128728,8.06568601 87.9167717,7.1144" id="Shape"></path>
                        </g>
                    </g>
                </g>
            </g>
        </g>
    </g>
</svg>