<svg height="20" viewBox="0 0 102 20" width="102" xmlns="http://www.w3.org/2000/svg"><path d="m0 10.9768c0-1.2224.23853543-2.3888.71640945-3.4984.47707086-1.1096 1.11798425-2.0632 1.92193701-2.8608.8031496-.7976 1.76451968-1.4328 2.88330708-1.9072 1.11432928-.47295825 2.31375752-.7146797 3.52502363-.7104 1.23203153 0 2.33636223.1896 3.31138583.568s1.8954331.9624 2.7604252 1.752c.1104166.089539.1734751.22459767.1710709.3664.0003244.13005542-.0541634.25427637-.150189.3424l-2.0038583 2.0272c-.08922.0803519-.2058184.1238333-.3260787.1216-.1183129.00307856-.2323023-.04437631-.3132284-.1304-.9766299-.9144-2.1339685-1.3712-3.46960627-1.3712-1.428 0-2.62308662.5096-3.5828504 1.528-.96056693 1.02-1.44085039 2.244-1.44085039 3.6744 0 1.4136.48429921 2.6216 1.45370079 3.624.96859842 1.0032 2.16689763 1.504 3.59489763 1.504.60959055 0 1.22078744-.1064 1.83519684-.32.5874396-.1989988 1.1330488-.5040902 1.6095118-.9.0835276-.0744.1967717-.1072.338126-.0984.1421575.008.2505827.0528.3260787.1344l2.0038583 2.0864c.0845764.0843723.1299863.2000615.1252914.3192 0 .1464-.048189.264-.1469764.3544-1.664126 1.6112-3.6960945 2.4176-6.09590553 2.4176-.8240315 0-1.62798426-.1064-2.41185827-.3192-.75873052-.2024007-1.4873218-.5036691-2.16689764-.896-.66591415-.3884267-1.27869576-.860865-1.82314961-1.4056-.54880133-.5440931-1.02423686-1.1569656-1.41434645-1.8232-.39486162-.6800245-.69939243-1.4082474-.90595276-2.1664-.21694726-.7862745-.32609477-1.5981721-.32447244-2.4136m17.9054173 2.136v-10.24c0-.1208.048189-.2296.1461733-.3272.0852545-.09110578.2042624-.14343739.3292913-.1448h3.0648189c.1381417 0 .252189.0464.3413386.1392.0879729.08841381.136591.20832947.1349291.3328v10.0464c0 .872.2947559 1.6104.885874 2.216.590315.6048 1.3284095.9072 2.2150866.9072.8939055 0 1.642441-.3024 2.2456063-.908.6023622-.6048.9043465-1.3432.9043465-2.2152v-10.0464c-.0019836-.12605641.0475256-.24750795.1371742-.33650327s.2117451-.13789912.3382904-.13549673h3.0672283c.1212756 0 .2305039.048.3284882.1448.0918748.08436705.144756.20273827.1461732.3272v10.24c.0062132 1.2126972-.3263736 2.4032092-.9605669 3.4384-.6344512 1.0518336-1.5343833 1.9198274-2.6102362 2.5176-1.0957359.6201894-2.336261.9416598-3.596504.932-1.2541307.0095747-2.4884184-.3120028-3.5772283-.932-1.0705278-.5981316-1.9641222-1.4664246-2.5909606-2.5176-.6273536-1.0372913-.9558026-2.2266403-.9493229-3.4376m17.1006614-2.136c0-1.2224.2385355-2.3888.7156063-3.4984.4778741-1.1096 1.1179843-2.0632 1.921937-2.8608.8039528-.7976 1.7653229-1.4328 2.8833071-1.9072 1.1145712-.47308637 2.3142882-.71481093 3.5258268-.7104 1.2320315 0 2.3355591.1896 3.3113858.568.9750237.3784 1.8954331.9624 2.7604252 1.752.1102236.08968855.1732359.22464836.1710709.3664.0003244.13005542-.0541634.25427637-.150189.3424l-2.0046614 2.0272c-.0890164.08016137-.205291.12362909-.3252756.1216-.1183129.00307856-.2323022-.04437631-.3132283-.1304-.9774331-.9144-2.1339685-1.3712-3.4696063-1.3712-1.4288032 0-2.6230866.5096-3.5828504 1.528-.960567 1.02-1.4408504 2.244-1.4408504 3.6744 0 1.4136.4842992 2.6216 1.4537008 3.624.9677952 1.0032 2.1668976 1.504 3.5948976 1.504.6095906 0 1.2207874-.1064 1.8343937-.32.587753-.1988426 1.1336532-.5039445 1.610315-.9.0835275-.0744.1959685-.1072.3381259-.0984.1421575.008.2505827.0528.3260788.1344l2.0038583 2.0864c.0845763.0843723.1299863.2000615.1252913.3192 0 .1464-.048189.264-.1469764.3544-1.6649291 1.6112-3.6968976 2.4176-6.0959055 2.4176-.8248346 0-1.6279842-.1064-2.4118583-.3192-.7587184-.2024361-1.4873051-.5037026-2.1668976-.896-.666146-.3884435-1.2791912-.860877-1.8239528-1.4056-.5484776-.5441779-1.0236371-1.1570426-1.4135433-1.8232-.3948616-.6800245-.6993924-1.4082474-.9059527-2.1664-.2168755-.7860162-.3260223-1.5976399-.3244725-2.4128m17.9054174 8.4216v-16.384c0-.1728.0546141-.3176.1654488-.4368.1054282-.11623701.2563939-.18105828.413622-.1776h2.8391339c.1582205 0 .2939527.0616.4088031.184.1111277.11547213.1725223.26964875.1710709.4296v6.6032l5.5642205-6.9592c.1381417-.172.2971653-.2576.4762677-.2576h3.1555748c.236126 0 .4047874.1088.5067874.3256.1036841.19540121.0822892.43326887-.0546142.6072l-5.8694173 7.364 6.3954803 8.3456c.0701818.0967111.1086152.2126771.1100315.332.006178.0977764-.0152444.1953231-.0618425.2816-.0951834.2016116-.3017155.3274355-.5252599.32h-3.4607716c-.0923407-.0023595-.1834922-.0213313-.2690551-.056-.0979843-.0368-.1590236-.0752-.1831181-.116l-5.7842835-7.892v7.4864c.0024241.1584762-.0592228.3112682-.1710709.424-.1047464.1143651-.2533922.1789426-.4088031.1776h-2.8391339c-.1561339.0037451-.3065078-.0587862-.413622-.172-.1107356-.1153181-.1703449-.2700981-.1654488-.4296m19.267559-8.38c0 1.3608.488315 2.5328 1.465748 3.5152.97663.9824 2.1428032 1.4728 3.4969134 1.4728 1.3701733 0 2.544378-.4904 3.5218111-1.4728.9766299-.9824 1.4649448-2.1544 1.4649448-3.5152 0-1.3776-.4883149-2.56-1.4649448-3.5456-.9774331-.9864-2.1516378-1.48-3.5218111-1.48-1.3541102 0-2.5202834.4936-3.4969134 1.48-.977433.9864-1.465748 2.168-1.465748 3.5456m-3.978 0c0-.8216.1052126-1.6232.316441-2.404.2104252-.7808.5059842-1.5008.8882834-2.16.3841979-.66299084.8522428-1.27411769 1.3926614-1.8184.5381484-.54593496 1.1453427-1.01978147 1.8062835-1.4096.6569764-.3864 1.3725827-.688 2.1468189-.9032.7742362-.216 1.5709606-.3232 2.3901732-.3232 1.224 0 2.3901733.236 3.4969134.7072 1.1067402.472 2.0600788 1.1104 2.8592126 1.9152.7983307.8048 1.4328189 1.7648 1.9034646 2.8792.4698425 1.1136.7051653 2.2864.7051653 3.5168.0049533 1.2068156-.2348991 2.4021909-.7051653 3.5144-.4706457 1.112-1.1051339 2.0664-1.9034646 2.8648-.7991338.7984-1.7524724 1.432-2.8592126 1.9-1.1067401.468-2.2729134.7024-3.4969134.7024-1.2248031 0-2.3901732-.2344-3.4969134-.7024-1.1075433-.4688-2.0576692-1.1024-2.8527874-1.9008-.7951181-.7976-1.4247874-1.7528-1.8914173-2.8648-.4662735-1.1129283-.7038665-2.3076595-.6987401-3.5136m23.5379055-3.8064c0 .8696.3156378 1.6184.9477165 2.2464.6328819.628 1.3870394.9416 2.2632756.9416.8866772 0 1.6464567-.3136 2.2785354-.9416.6320788-.628.9477166-1.376.9477166-2.2464 0-.88-.3156378-1.636-.9477166-2.2664-.6320787-.6304-1.3918582-.9456-2.2785354-.9456-.8762362 0-1.6303937.3152-2.2624724.9456-.6328819.6304-.9485197 1.3856-.9485197 2.2664m-3.8229921-.0976c0-.648.0835275-1.28.2489763-1.896.166252-.616.3983622-1.184.6987402-1.704.3020432-.52309764.6702139-1.00543498 1.0954961-1.4352.4231126-.43053769.9007204-.80434854 1.4207716-1.112.5290095-.30994961 1.0966059-.54933107 1.6882205-.712.6117604-.17042867 1.2441341-.2562988 1.8793701-.2552.9637795 0 1.8809763.1864 2.7515905.5584.8412055.3523451 1.6049359.86548135 2.2480158 1.5104.6407582.65432872 1.1490352 1.42543241 1.4970712 2.2712.369448.8784.554976 1.804.554976 2.7744.003978.95168806-.184493 1.89442824-.554173 2.772-.347481.8431707-.856209 1.6110136-1.4978742 2.2608-.6445725.6404747-1.4084634 1.1494593-2.2488189 1.4984-.8692675.3691731-1.8050091.5578197-2.7499843.5544-.9452455.0035286-1.8812713-.1851202-2.7507874-.5544-.8390686-.3486117-1.6012265-.857986-2.2431968-1.4992-.6256536-.6296-1.1211969-1.3832-1.4882363-2.26-.3670057-.87824898-.5540563-1.82071399-.5501574-2.772" fill="#fff" fill-rule="evenodd"/></svg>