<svg height="19" viewBox="0 0 120 19" width="120" xmlns="http://www.w3.org/2000/svg"><path d="m49.8720703 50h-.7412109l-1.1904297-1.6508789c-.2919937.2620456-.6008285.5072417-.9265137.7355957s-.6682111.426757-1.0275879.5952148c-.3593768.1684579-.7281068.3013505-1.1062011.3986817-.3780944.0973312-.7617982.1459961-1.1511231.1459961-.8460329 0-1.6415165-.1590967-2.3864746-.4772949-.7449582-.3181983-1.3963188-.7599256-1.9541016-1.3251954-.5577827-.5652697-.9976383-1.2353476-1.31958-2.0102539-.3219418-.7749062-.4829102-1.6190546-.4829102-2.5324707 0-.905929.1609684-1.7482057.4829102-2.5268554.3219417-.7786498.7617973-1.4524712 1.31958-2.0214844.5577828-.5690133 1.2091434-1.0144841 1.9541016-1.3364258.7449581-.3219417 1.5404417-.4829101 2.3864746-.4829101.2695326 0 .5484198.0224607.8366699.0673828.2882502.0449221.5690091.1179194.8422852.2189941s.5297026.2339673.7692871.3986816c.2395845.1647144.4417309.3668608.6064453.6064454v-5.6152344h3.0883789zm-3.0883789-6.1206055c0-.4192729-.0804842-.8254375-.2414551-1.2185058-.1609708-.3930684-.3799628-.7412094-.6569824-1.0444336s-.6008282-.5465486-.9714355-.7299805c-.3706074-.1834319-.7655416-.2751465-1.1848145-.2751465s-.8142071.0748691-1.1848144.2246094c-.3706074.1497403-.6925443.3649888-.9658204.645752-.2732761.2807631-.4885246.6232889-.6457519 1.0275878-.1572274.4042989-.2358399.8610001-.2358399 1.3701172 0 .441734.0786125.8610007.2358399 1.2578125.1572273.3968119.3724758.744953.6457519 1.0444336.2732761.2994807.595213.5353182.9658204.7075196.3706073.1722013.7655415.2583007 1.1848144.2583007s.8142071-.0917145 1.1848145-.2751464c.3706073-.183432.6944159-.4267563.9714355-.7299805s.4960116-.6513652.6569824-1.0444336c.1609709-.3930684.2414551-.7992329.2414551-1.2185059zm8.4902344 6.1206055h-3.065918v-12.027832h.741211l1.0107421 1.4262695c.4941431-.449221 1.055661-.7954903 1.6845703-1.0388184.6289094-.243328 1.2802701-.3649902 1.9541016-.3649902h2.706543v3.0546875h-2.706543c-.3219417 0-.6251613.0598952-.909668.1796875-.2845066.1197923-.5315744.2845042-.7412109.4941406-.2096365.2096365-.3743484.4567043-.4941406.741211-.1197923.2845066-.1796875.5877262-.1796875.9096679zm18.0810547-6.1206055c0 .898442-.1609685 1.7351036-.4829102 2.5100098s-.7599256 1.4449841-1.3139648 2.0102539c-.5540393.5652698-1.2035282 1.0107406-1.9484864 1.3364258-.7449581.3256852-1.5441851.4885254-2.397705.4885254-.8460329 0-1.6415165-.1628402-2.3864746-.4885254-.7449582-.3256852-1.3963189-.771156-1.9541016-1.3364258s-.9976384-1.2353477-1.3195801-2.0102539-.4829101-1.6115678-.4829101-2.5100098c0-.913416.1609684-1.7594362.4829101-2.5380859s.7617974-1.4505994 1.3195801-2.0158691c.5577827-.5652698 1.2091434-1.0088689 1.9541016-1.3308106.7449581-.3219417 1.5404417-.4829101 2.3864746-.4829101.8535199 0 1.6527469.1516098 2.397705.4548339.7449582.3032242 1.3944471.7337212 1.9484864 1.2915039.5540392.5577828.9920231 1.2278607 1.3139648 2.0102539.3219417.7823933.4829102 1.6527459.4829102 2.611084zm-3.0883789 0c0-.4941431-.0804843-.9414856-.2414551-1.342041-.1609709-.4005554-.3799628-.744953-.6569824-1.0332031-.2770197-.2882501-.6008283-.5091138-.9714356-.6625977-.3706073-.1534838-.7655415-.2302246-1.1848144-.2302246-.419273 0-.8142072.0767408-1.1848145.2302246-.3706073.1534839-.6925442.3743476-.9658203.6625977s-.4885246.6326477-.645752 1.0332031c-.1572273.4005554-.2358398.8478979-.2358398 1.342041 0 .4641951.0786125.8946921.2358398 1.2915039.1572274.3968119.3724759.7412095.645752 1.0332032.2732761.2919936.595213.5222159.9658203.6906738s.7655415.2526855 1.1848145.2526855c.4192729 0 .8142071-.0786125 1.1848144-.2358398.3706073-.1572274.6944159-.378091.9714356-.6625977.2770196-.2845066.4960115-.6289042.6569824-1.0332031.1609708-.4042989.2414551-.8497697.2414551-1.3364258zm7.8500976 6.1206055h-3.065918v-12.027832h.741211l1.0107422 1.1679687c.4941431-.449221 1.0537892-.7954903 1.6789551-1.0388183.6251658-.2433281 1.2783982-.3649903 1.9597167-.3649903.7337277 0 1.4262663.1403795 2.0776368.4211426.6513704.2807631 1.2203751.6663387 1.7070312 1.1567383s.8703599 1.0631478 1.1511231 1.7182617c.2807631.655114.4211425 1.3532678.4211425 2.0944824v6.8730469h-3.0659179v-6.8730469c0-.3144547-.0598953-.6120591-.1796875-.8928222-.1197923-.2807632-.2845042-.5259593-.4941406-.7355957-.2096365-.2096365-.4529609-.3743484-.7299805-.4941407-.2770196-.1197922-.5727524-.1796875-.8872071-.1796875-.3219417 0-.6251613.0598953-.9096679.1796875-.2845066.1197923-.5315745.2845042-.741211.4941407-.2096364.2096364-.3743483.4548325-.4941406.7355957-.1197922.2807631-.1796875.5783675-.1796875.8928222zm14.6445313-2.9423828c.1197922.0374351.2395827.0617675.359375.072998.1197922.0112306.2395827.0168457.359375.0168457.2994806 0 .5877264-.0411779.8647461-.1235351.2770196-.0823572.5371895-.2002759.7805175-.3537598.2433281-.1534838.4604483-.3406564.6513672-.5615234.190919-.220867.3462722-.4660631.4660645-.7355957l2.2460937 2.2573242c-.2845066.4042989-.6120587.7674137-.982666 1.0893555-.3706073.3219417-.7711567.5952137-1.2016601.8198242-.4305035.2246105-.8834612.3949376-1.3588868.5109863-.4754255.1160488-.963946.1740723-1.4655761.1740723-.8460329 0-1.6415165-.157225-2.3864746-.4716797-.7449582-.3144547-1.3963189-.7524386-1.9541016-1.3139649-.5577827-.5615262-.9976384-1.2297324-1.3195801-2.0046386s-.4829101-1.6265416-.4829101-2.5549317c0-.9508511.1609684-1.819332.4829101-2.6054687.3219417-.7861368.7617974-1.4562147 1.3195801-2.0102539.5577827-.5540393 1.2091434-.9845363 1.9541016-1.2915039.7449581-.3069677 1.5404417-.4604492 2.3864746-.4604492.5016301 0 .9920223.0598952 1.4711914.1796874.479169.1197923.9339985.2919911 1.3645019.5166016.4305035.2246105.8329246.4997542 1.2072754.8254395.3743508.3256852.7037746.6906718.9882813 1.0949707zm1.5722656-6.3227539c-.1422533-.0524091-.2826328-.0861002-.4211426-.1010742-.1385098-.0149741-.2826327-.022461-.432373-.022461-.419273 0-.8142072.0767408-1.1848145.2302246-.3706073.1534839-.6925442.3724758-.9658203.6569825-.2732761.2845066-.4885246.6270325-.6457519 1.0275878-.1572274.4005554-.2358399.8516414-.2358399 1.3532715 0 .1123053.0056152.2395827.0168457.381836s.0299478.2863762.0561524.432373c.0262045.1459968.0580239.2863763.0954589.4211426.0374351.1347663.0861.2545568.1459961.359375zm9.3325199-6.0307617c0 .2845066-.05428.5502917-.162842.7973632-.108562.2470716-.256428.4623201-.443604.645752-.187175.1834319-.406167.3294265-.656982.4379883-.250815.1085617-.518472.1628418-.802979.1628418-.284506 0-.552163-.0542801-.802978-.1628418-.250815-.1085618-.467935-.2545564-.651367-.4379883-.1834322-.1834319-.3294269-.3986804-.4379886-.645752-.1085618-.2470715-.1628418-.5128566-.1628418-.7973632 0-.2770197.05428-.540933.1628418-.7917481.1085617-.250815.2545564-.4679353.4379886-.6513672.183432-.1834319.400552-.3294265.651367-.4379883.250815-.1085617.518472-.1628418.802978-.1628418.284507 0 .552164.0542801.802979.1628418.250815.1085618.469807.2545564.656982.4379883.187176.1834319.335042.4005522.443604.6513672.108562.2508151.162842.5147284.162842.7917481zm-.527832 15.2958984h-3.088379v-12.027832h3.088379zm5.401855 0h-3.065918v-12.027832h.741211l1.010742 1.4262695c.494143-.449221 1.055661-.7954903 1.684571-1.0388184.628909-.243328 1.28027-.3649902 1.954101-.3649902h2.706543v3.0546875h-2.706543c-.321942 0-.625161.0598952-.909668.1796875s-.531574.2845042-.741211.4941406c-.209636.2096365-.374348.4567043-.49414.741211-.119793.2845066-.179688.5877262-.179688.9096679zm18.081055-6.1206055c0 .898442-.160969 1.7351036-.48291 2.5100098-.321942.7749062-.759926 1.4449841-1.313965 2.0102539s-1.203528 1.0107406-1.948487 1.3364258c-.744958.3256852-1.544185.4885254-2.397705.4885254-.846033 0-1.641516-.1628402-2.386474-.4885254s-1.396319-.771156-1.954102-1.3364258-.997638-1.2353477-1.31958-2.0102539-.48291-1.6115678-.48291-2.5100098c0-.913416.160968-1.7594362.48291-2.5380859s.761797-1.4505994 1.31958-2.0158691c.557783-.5652698 1.209144-1.0088689 1.954102-1.3308106s1.540441-.4829101 2.386474-.4829101c.85352 0 1.652747.1516098 2.397705.4548339.744959.3032242 1.394448.7337212 1.948487 1.2915039.554039.5577828.992023 1.2278607 1.313965 2.0102539.321941.7823933.48291 1.6527459.48291 2.611084zm-3.088379 0c0-.4941431-.080484-.9414856-.241455-1.342041s-.379963-.744953-.656983-1.0332031c-.277019-.2882501-.600828-.5091138-.971435-.6625977-.370608-.1534838-.765542-.2302246-1.184815-.2302246s-.814207.0767408-1.184814.2302246c-.370607.1534839-.692544.3743476-.96582.6625977-.273277.2882501-.488525.6326477-.645752 1.0332031-.157228.4005554-.23584.8478979-.23584 1.342041 0 .4641951.078612.8946921.23584 1.2915039.157227.3968119.372475.7412095.645752 1.0332032.273276.2919936.595213.5222159.96582.6906738s.765541.2526855 1.184814.2526855.814207-.0786125 1.184815-.2358398c.370607-.1572274.694416-.378091.971435-.6625977.27702-.2845066.496012-.6289042.656983-1.0332031s.241455-.8497697.241455-1.3364258zm6.624023 5.4233399c0 .1640633-.029622.3178704-.088867.4614258s-.141275.2677403-.246094.3725586c-.104818.1048182-.227864.1879879-.36914.2495117-.141277.0615237-.293945.0922851-.458008.0922851-.159506 0-.311035-.0307614-.45459-.0922851-.143555-.0615238-.26888-.1446935-.375977-.2495117-.107096-.1048183-.191405-.2290032-.252929-.3725586s-.092285-.2973625-.092285-.4614258c0-.159506.030761-.3098952.092285-.4511719s.145833-.2643224.252929-.3691406c.107097-.1048183.232422-.187988.375977-.2495117.143555-.0615238.295084-.0922852.45459-.0922852.164063 0 .316731.0307614.458008.0922852.141276.0615237.264322.1446934.36914.2495117.104819.1048182.186849.2278639.246094.3691406s.088867.2916659.088867.4511719zm7.786133-5.1679688-1.367187 1.3740235c-.06836-.1914072-.161784-.3634433-.280274-.5161133-.11849-.1526701-.251789-.2814123-.399902-.3862305s-.308756-.18457-.481934-.2392578-.35091-.0820313-.533203-.0820313c-.25521 0-.495604.0524084-.721191.1572266s-.421549.2517894-.587891.440918c-.166342.1891285-.297363.4135729-.393066.6733398-.095704.2597669-.143555.5468735-.143555.8613282 0 .2552096.047851.494465.143555.7177734.095703.2233084.226724.41927.393066.5878906s.362304.3007808.587891.3964844.465981.1435547.721191.1435547c.182293 0 .357747-.0250649.526367-.0751953.168621-.0501305.326985-.1219071.475098-.2153321.148113-.0934249.280273-.2073561.396484-.3417968.116212-.1344408.210775-.2836906.283692-.4477539l1.367187 1.3740234c-.173178.246095-.372557.4671214-.598144.6630859s-.4694.362304-.731446.4990235c-.262045.1367194-.537759.2403967-.827148.3110351-.28939.0706384-.58675.1059571-.89209.1059571-.514976 0-.999184-.0968415-1.452637-.2905274-.453452-.1936859-.849933-.4591454-1.189453-.7963867s-.607258-.7314431-.803222-1.1826172c-.195965-.4511741-.293946-.9342422-.293946-1.4492187 0-.5605497.097981-1.084633.293946-1.5722657.195964-.4876326.463702-.9125958.803222-1.2749023s.736001-.6482737 1.189453-.8579102c.453453-.2096364.937661-.3144531 1.452637-.3144531.30534 0 .604979.0387366.898926.1162109.293947.0774744.574217.1902662.84082.3383789.266603.1481128.512694.3292633.738281.5434571.225588.2141938.42041.460285.584473.7382812zm7.984375 2.1396485c0 .5468777-.097981 1.0561499-.293945 1.527832-.195965.471682-.462564.8795556-.799805 1.2236328s-.732582.6152334-1.186035.8134766c-.453453.1982431-.939939.2973633-1.459473.2973633-.514976 0-.999184-.0991202-1.452636-.2973633-.453453-.1982432-.849934-.4693994-1.189454-.8134766-.339519-.3440772-.607258-.7519508-.803222-1.2236328-.195965-.4716821-.293946-.9809543-.293946-1.527832 0-.5559924.097981-1.0709612.293946-1.5449219.195964-.4739607.463703-.8829736.803222-1.2270508.33952-.3440772.736001-.6140941 1.189454-.8100586.453452-.1959645.93766-.2939453 1.452636-.2939453.519534 0 1.00602.0922842 1.459473.2768555.453453.1845712.848794.4466129 1.186035.7861328s.60384.7473934.799805 1.2236328c.195964.4762394.293945 1.0060192.293945 1.5893555zm-1.879883 0c0-.3007828-.04899-.5730782-.146972-.8168946-.097983-.2438163-.231282-.4534496-.399903-.6289062-.16862-.1754566-.365721-.3098954-.591308-.4033203-.225587-.093425-.465982-.1401368-.721192-.1401368-.255209 0-.495604.0467118-.721191.1401368-.225587.0934249-.421549.2278637-.587891.4033203s-.297363.3850899-.393066.6289062c-.095704.2438164-.143555.5161118-.143555.8168946 0 .2825535.047851.5445951.143555.7861328.095703.2415376.226724.451171.393066.6289062.166342.1777353.362304.3178706.587891.4204102s.465982.1538086.721191.1538086c.25521 0 .495605-.0478511.721192-.1435547s.422688-.2301424.591308-.4033203c.168621-.173178.30192-.3828113.399903-.6289063.097982-.246095.146972-.5172511.146972-.8134765zm12.222657 3.7255859h-1.859375v-4.6484375c0-.1276048-.023926-.2483718-.071778-.3623047-.047852-.1139328-.115071-.2141923-.20166-.3007812-.086589-.086589-.186848-.1538084-.300781-.2016602s-.2347-.0717773-.362305-.0717773-.247232.0239255-.358887.0717773c-.111654.0478518-.209635.1150712-.293945.2016602-.08431.0865889-.15039.1868484-.198242.3007812-.047852.1139329-.071777.2346999-.071777.3623047v4.6484375h-1.866211v-4.6484375c0-.1276048-.023926-.2483718-.071778-.3623047-.047852-.1139328-.115071-.2141923-.20166-.3007812-.086589-.086589-.186848-.1538084-.300781-.2016602s-.2347-.0717773-.362305-.0717773-.247232.0239255-.358887.0717773c-.111654.0478518-.209635.1150712-.293945.2016602-.08431.0865889-.15039.1868484-.198242.3007812-.047852.1139329-.071777.2346999-.071777.3623047v4.6484375h-1.866211v-7.3212891h.451172l.505859.5605469c.259767-.2187511.545734-.3885085.85791-.5092773.312176-.1207689.63688-.1811524.974121-.1811524.341799 0 .675617.0638015 1.001465.1914063s.611815.3486312.85791.6630859c.113933-.1549487.243815-.2871088.389649-.3964844.145834-.1093755.299641-.1982418.461425-.2666015.161785-.0683597.329264-.1173501.502442-.1469727.173178-.0296225.344074-.0444336.512695-.0444336.387372 0 .750812.072916 1.090332.21875.33952.1458341.635741.3452136.888672.5981446.252931.2529309.45231.5502912.598145.8920898.145834.3417986.21875.7063783.21875 1.09375z" fill="#fff" fill-rule="evenodd" transform="translate(-37 -32)"/></svg>