<?xml version="1.0" encoding="UTF-8"?>
<svg width="154px" height="19px" viewBox="0 0 154 19" version="1.1" xmlns="http://www.w3.org/2000/svg" xmlns:xlink="http://www.w3.org/1999/xlink">
    <!-- Generator: Sketch 45.2 (43514) - http://www.bohemiancoding.com/sketch -->
    <title>itcssdoc-f9bef45e</title>
    <desc>Created with Sketch.</desc>
    <defs>
        <polygon id="path-1" points="159 19 159 0 0 0 0 19"></polygon>
        <polygon id="path-3" points="155 19 155 0 0 0 0 19"></polygon>
    </defs>
    <g id="Welcome" stroke="none" stroke-width="1" fill="none" fill-rule="evenodd">
        <g id="Desktop" transform="translate(-135.000000, -3170.000000)">
            <g id="Group-13-Copy-2" transform="translate(110.000000, 3128.000000)">
                <g id="itcssdoc-f9bef45e" transform="translate(25.000000, 42.000000)">
                    <g id="Clipped">
                        <mask id="mask-2" fill="white">
                            <use xlink:href="#path-1"></use>
                        </mask>
                        <g id="a"></g>
                        <path d="M91.06,13.6 L88.36,12.7 L91.636,11.368 L94.876,10.18 L92.212,9.028 L94.336,0.496 L100.492,0.496 C103.84,0.496 105.964,1.468 107.26,2.872 C108.556,4.276 109.132,6.076 109.132,8.308 L109.132,9.028 C109.096,9.424 111.976,9.82 111.94,10.18 C111.868,10.576 109.06,11.188 108.7,11.368 C108.124,11.728 105.496,12.268 105.28,12.7 C105.136,12.988 107.944,13.312 107.764,13.6 C107.368,14.32 106.864,15.004 106.288,15.616 C104.236,17.848 101.212,19.036 97.216,19.036 L89.692,19.036 L91.06,13.6 Z M99.736,5.896 L98.764,5.896 L98.008,9.028 L100.636,10.18 L97.396,11.368 L94.156,12.7 L96.856,13.636 L97.864,13.636 C99.232,13.636 97.828,13.312 97.828,12.7 C97.792,12.268 100.24,11.98 100.528,11.872 C100.924,11.764 101.968,11.62 102.58,11.368 C102.94,11.224 105.892,10.612 106.036,10.18 C106.108,9.82 103.408,9.388 103.264,9.1 C103.228,9.064 103.264,8.992 103.264,8.956 C103.264,7.948 102.976,7.3 102.544,6.832 C102.004,6.256 101.14,5.896 99.736,5.896 L99.736,5.896 Z M131.468,8.488 C131.468,8.632 131.468,8.812 131.432,8.956 C131.432,9.352 134.24,9.712 134.168,10.072 C134.132,10.468 131.216,10.864 131.108,11.224 C131,11.656 128.012,12.088 127.868,12.484 C127.724,12.808 130.46,13.096 130.316,13.384 C129.848,14.32 129.236,15.148 128.552,15.904 C126.824,17.776 124.376,18.964 121.64,18.964 C117.68,18.964 114.728,16.66 113.72,13.384 C113.648,13.096 110.732,12.808 110.66,12.484 C110.588,12.088 113.396,11.656 113.36,11.224 C113.36,11.116 114.512,10.756 114.62,10.72 C114.944,10.504 116.204,10.36 116.24,10.072 C116.24,9.712 113.468,9.316 113.54,8.956 C113.9,6.868 114.872,4.96 116.276,3.484 C118.004,1.612 120.416,0.424 123.188,0.424 C128.084,0.424 131.468,3.916 131.468,8.488 L131.468,8.488 Z M123.404,13.42 C123.8,13.204 121.352,12.952 121.676,12.592 C122,12.232 125.132,11.8 125.348,11.332 C125.528,10.936 128.516,10.504 128.588,10.072 C128.66,9.748 125.852,9.388 125.852,9.028 C125.852,7.156 124.808,5.68 122.792,5.68 C121.784,5.68 120.956,6.112 120.308,6.796 C119.768,7.372 119.372,8.128 119.12,8.956 C119.048,9.316 121.82,9.712 121.82,10.072 C121.784,10.18 121.208,10.252 120.488,10.504 C120.236,10.612 119.264,11.044 119.048,11.224 C118.472,11.656 116.456,12.124 116.708,12.484 C116.96,12.88 120.128,13.168 120.56,13.384 C120.956,13.6 121.46,13.708 122.036,13.708 C122.54,13.708 122.972,13.6 123.404,13.42 L123.404,13.42 Z M135.948,13.276 C135.876,12.988 132.924,12.664 132.888,12.34 C132.816,11.908 134.94,11.476 135.696,11.008 C135.984,10.828 138.612,10.252 138.684,9.892 C138.72,9.496 135.84,9.136 135.948,8.74 C136.344,6.796 137.28,4.816 138.792,3.196 C140.556,1.324 143.184,-0.044 146.64,-0.044 C150.312,-0.044 152.94,2.044 153.66,5.284 L148.548,7.66 C148.188,6.148 147.18,5.428 145.884,5.428 C144.732,5.428 143.796,5.932 143.076,6.688 C142.572,7.264 142.176,7.984 141.924,8.74 C141.78,9.28 145.2,9.316 145.2,9.892 C145.2,10.108 141.672,10.864 141.708,11.044 C141.78,11.548 139.008,11.98 139.224,12.34 C139.476,12.736 142.716,13.06 143.076,13.276 C143.472,13.456 143.904,13.564 144.372,13.564 C145.668,13.564 146.748,12.88 147.684,11.656 L151.608,15.004 C149.916,17.416 147.432,19 143.796,19 C139.8,19 136.848,16.84 135.948,13.276 L135.948,13.276 Z" id="Shape" fill="#567FA8" fill-rule="nonzero" mask="url(#mask-2)"></path>
                    </g>
                    <g id="Clipped">
                        <mask id="mask-4" fill="white">
                            <use xlink:href="#path-3"></use>
                        </mask>
                        <g id="a"></g>
                        <path d="M3.09,13.645 L0.357,12.697 L3.675,11.385 L6.919,10.218 L4.257,9.052 L6.407,0.522 L12.203,0.522 L10.053,9.052 L12.713,10.218 L9.469,11.385 L6.189,12.697 L8.886,13.645 L7.536,19.075 L1.744,19.075 L3.092,13.645 L3.09,13.645 Z M16.615,13.572 L14.465,12.624 L17.198,11.312 L19.858,10.109 L17.781,8.942 L18.621,5.624 L13.445,5.624 L15.195,0.302 L31.78,0.302 L29.628,5.624 L24.488,5.624 L23.65,8.942 L25.728,10.108 L23.031,11.31 L20.334,12.622 L22.484,13.57 L21.1,19.074 L15.23,19.074 L16.615,13.57 L16.615,13.572 Z M32.112,13.28 C32.039,12.99 29.05,12.66 29.012,12.333 C28.942,11.895 31.092,11.458 31.857,10.983 C32.147,10.803 34.809,10.218 34.882,9.853 C34.919,9.453 32.002,9.088 32.112,8.687 C32.512,6.719 33.462,4.714 34.992,3.074 C36.778,1.178 39.439,-0.206 42.938,-0.206 C46.656,-0.206 49.318,1.907 50.046,5.188 L44.87,7.594 C44.506,6.064 43.485,5.334 42.173,5.334 C41.006,5.334 40.058,5.844 39.329,6.61 C38.819,7.193 38.417,7.922 38.162,8.687 C38.016,9.234 41.479,9.271 41.479,9.854 C41.479,10.074 37.907,10.838 37.943,11.02 C38.016,11.53 35.209,11.968 35.428,12.333 C35.682,12.733 38.963,13.063 39.328,13.28 C39.728,13.463 40.166,13.572 40.64,13.572 C41.952,13.572 43.045,12.879 43.993,11.64 L47.967,15.03 C46.252,17.472 43.737,19.076 40.055,19.076 C36.009,19.076 33.02,16.889 32.109,13.28 L32.112,13.28 Z M50.232,15.868 L51.982,13.572 L52.784,12.588 L53.44,11.748 C55.372,13.463 57.34,14.301 59.09,14.301 C59.82,14.301 60.33,14.011 60.33,13.501 C60.33,13.136 55.627,12.917 54.934,12.589 C54.497,12.369 55.262,12.224 55.554,12.006 C56.137,11.606 56.137,11.676 56.502,11.313 C57.122,10.693 59.052,10.583 58.542,10.146 C58.142,9.818 53.804,9.454 53.549,9.016 C53.147,8.396 52.965,7.631 52.965,6.72 C52.965,5.188 53.548,3.803 54.569,2.71 C55.881,1.288 57.959,0.413 60.547,0.413 C63.537,0.413 66.234,1.433 68.057,3.11 L65.213,7.594 C63.937,6.5 61.75,5.224 59.963,5.224 C59.235,5.224 58.761,5.407 58.761,5.917 C58.761,6.464 59.089,6.573 61.421,7.484 C62.588,7.958 63.573,8.432 64.338,9.014 C64.774,9.344 67.982,9.708 68.274,10.144 C68.494,10.474 66.304,11.057 65.941,11.312 C65.321,11.712 63.243,12.15 63.243,12.662 C63.243,12.952 66.087,13.207 66.087,13.499 C65.903,14.774 65.393,15.939 64.517,16.889 C63.242,18.237 61.165,19.112 58.504,19.112 C55.15,19.112 52.27,17.836 50.229,15.867 L50.232,15.868 Z M69.005,15.868 L70.755,13.572 L71.557,12.588 L72.213,11.748 C74.145,13.463 76.113,14.301 77.863,14.301 C78.593,14.301 79.103,14.011 79.103,13.501 C79.103,13.136 74.4,12.917 73.707,12.589 C73.27,12.369 74.035,12.224 74.327,12.006 C74.91,11.606 74.91,11.676 75.275,11.313 C75.895,10.693 77.825,10.583 77.315,10.146 C76.915,9.818 72.577,9.454 72.322,9.016 C71.922,8.396 71.739,7.631 71.739,6.72 C71.739,5.188 72.321,3.803 73.342,2.71 C74.654,1.288 76.732,0.413 79.32,0.413 C82.31,0.413 85.007,1.433 86.83,3.11 L83.987,7.594 C82.711,6.5 80.524,5.224 78.737,5.224 C78.009,5.224 77.535,5.407 77.535,5.917 C77.535,6.464 77.863,6.573 80.195,7.484 C81.362,7.958 82.345,8.432 83.112,9.014 C83.549,9.344 86.757,9.708 87.049,10.144 C87.266,10.474 85.079,11.057 84.715,11.312 C84.095,11.712 82.017,12.15 82.017,12.662 C82.017,12.952 84.86,13.207 84.86,13.499 C84.68,14.774 84.17,15.939 83.294,16.889 C82.018,18.237 79.94,19.112 77.279,19.112 C73.925,19.112 71.045,17.836 69.004,15.867 L69.005,15.868 Z" id="Shape" fill="#FFFFFF" fill-rule="nonzero" mask="url(#mask-4)"></path>
                    </g>
                </g>
            </g>
        </g>
    </g>
</svg>