<svg height="56" viewBox="0 0 52 56" width="52" xmlns="http://www.w3.org/2000/svg"><g fill="none" fill-rule="evenodd" transform="translate(-1)"><g fill="#fff" transform="translate(15.765432 19.423529)"><path d="m12.823312 12.560969h-3.91115591l-4.99856245-5.60608003v5.60608003h-3.29729734v-12.35767488h3.29729734v5.3110232l4.85825193-5.3110232h3.85853943l-5.52472692 5.86642432z"/><path d="m21.0159381 13.408271c.3975484.5264766.5963197 1.1657601.5963197 1.9178695 0 .682684-.1812326 1.2785771-.5437033 1.7876974-.3624707.5091202-.8798606.9025254-1.5521852 1.1802273-.6723246.277702-1.4644865.4165509-2.3765095.4165509h-6.2262796v-12.35767492h6.0684303c1.3095714 0 2.3501974.28926852 3.1219091.86781425.7717118.57854572 1.1575619 1.35957073 1.1575619 2.34309847 0 .6364003-.1695402 1.1975812-.5086257 1.6835596-.3390854.4859784-.8184749.838886-1.4381829 1.0587334.736634.2082765 1.3037167.5756475 1.7012652 1.1021241zm-6.8927546-2.2129263h2.2975849c.6080153 0 1.0523275-.0925659 1.3329499-.2777006.2806225-.1851346.4209316-.4801885.4209316-.8851705 0-.41655293-.1432322-.72317757-.429701-.91988311-.2864687-.19670555-.7278578-.29505685-1.3241805-.29505685h-2.2975849zm3.9900806 4.7556221c.2747761-.1967056.4121621-.5264717.4121621-.9893083 0-.4744075-.1344629-.809959-.4033927-1.0066645-.2689299-.1967056-.7249345-.2950568-1.3680276-.2950568h-2.6308224v2.5860864h2.6308224c.6314005 0 1.084482-.0983513 1.3592582-.2950568z"/></g><g transform="matrix(0 1 -1 0 52.729412 .716049)"><g stroke="#fff" stroke-width=".5" transform="translate(.641975 .635294)"><path d="m13.1222471 5.13201464 7.4484061 2.29958764-7.8311159 4.87867582z"/><path d="m14.7887134 18.0632212-1.9548415-5.8145392-6.06057939 3.5613142z"/><path d="m14.796099 18.1251484-3.2963401 5.5860375-5.00745597-7.7753482.36290291 10.1146753-4.89868578-2.3393271-1.95417009 8.8519553"/><path d="m.05304224 32.3624571 7.86267268 4.0961405 5.87862438-5.7403589-2.1233681-6.8633286-4.74728044 2.2442837.99202416 10.4408696"/><path d="m.05136369 32.5432715 6.88642691-6.3907607 6.9599475 4.5458582"/><path d="m7.96103582 36.5715238 2.37548658 7.8028347 4.1013737-6.665625z"/><path d="m10.4046716 44.5154334 5.8040967-1.5140718-1.8292858-5.2740831"/><path d="m10.5470128 44.592263 9.1635504 5.3615097-3.2624334-6.8868411 8.7539837 1.5253314-5.4808076 5.3615097"/><path d="m25.1591426 44.5806723 6.7934351 4.9498756-2.3644081-7.6975252z"/><path d="m29.7593818 41.8283865 8.2608252-.7600164-5.7799255 8.5393385"/><path d="m37.9799218 41.1432127-.775491-7.0676555 7.9942712.7928014z"/><path d="m38.0950704 41.1938804 7.6998532-.3530185-.4505233-5.9566075"/><path d="m37.192681 34.1249003 6.334519-7.1037521 1.6063741 7.854496 6.8454703-7.854496h-8.4451302l-2.9257159-8.9211681 7.3517215 1.8915963h5.2404389l-1.2213143 6.8353454-3.9268043-6.8297156-4.3870631 7.107726"/><path d="m40.5977913 18.1142201 7.0244039-7.6756685.5065869 9.5470639"/><path d="m40.7535609 18.075143.6720922-9.40333973 6.2489129 1.76939753"/><path d="m41.5720228 8.86354596-5.3089239.78783396 2.654462-9.35333429z"/><path d="m36.1999854 9.70072303-6.5090885-3.2331328 9.385455-6.0576119-13.0138127.64775251-5.3082524 6.25630899 4.1789227 3.28015777 4.864779-4.10739998-9.0020737.82724221"/><path d="m26.0759676 1.04746482 3.6092223 5.38767156"/></g><g fill="#fff"><ellipse cx="7.035484" cy="16.187378" rx="1" ry="1"/><ellipse cx="15.615343" cy="18.572887" rx="1" ry="1"/><ellipse cx="12.183399" cy="24.366264" rx="1" ry="1"/><ellipse cx="2.573958" cy="24.025477" rx="1" ry="1"/><ellipse cx=".857986" cy="32.885937" rx="1" ry="1"/><ellipse cx="8.408262" cy="36.97538" rx="1" ry="1"/><ellipse cx="14.58576" cy="31.182002" rx="1" ry="1"/><ellipse cx="15.272149" cy="38.338528" rx="1" ry="1"/><ellipse cx="11.153816" cy="45.154266" rx="1" ry="1"/><ellipse cx="20.420064" cy="50.606856" rx="1" ry="1"/><ellipse cx="16.98812" cy="43.450331" rx="1" ry="1"/><ellipse cx="25.911173" cy="45.154266" rx="1" ry="1"/><ellipse cx="32.77506" cy="50.266069" rx="1" ry="1"/><ellipse cx="30.3727" cy="42.42797" rx="1" ry="1"/><ellipse cx="38.609364" cy="41.746397" rx="1" ry="1"/><ellipse cx="37.922975" cy="34.589871" rx="1" ry="1"/><ellipse cx="45.816445" cy="35.271445" rx="1" ry="1"/><ellipse cx="44.100474" cy="27.433346" rx="1" ry="1"/><ellipse cx="52.680332" cy="27.433346" rx="1" ry="1"/><ellipse cx="53.709915" cy="20.276821" rx="1" ry="1"/><ellipse cx="48.562" cy="20.276821" rx="1" ry="1"/><ellipse cx="41.354919" cy="18.572887" rx="1" ry="1"/><ellipse cx="48.218806" cy="10.734788" rx="1" ry="1"/><ellipse cx="42.041308" cy="9.37164" rx="1" ry="1"/><ellipse cx="39.638947" cy=".851967" rx="1" ry="1"/><ellipse cx="36.893392" cy="10.053214" rx="1" ry="1"/><ellipse cx="30.3727" cy="6.986132" rx="1" ry="1"/><ellipse cx="26.597562" cy="1.533541" rx="1" ry="1"/><ellipse cx="25.567979" cy="11.075575" rx="1" ry="1"/><ellipse cx="13.899371" cy="5.282197" rx="1" ry="1"/><ellipse cx="13.556177" cy="12.438722" rx="1" ry="1"/><ellipse cx="46.502834" cy="41.40561" rx="1" ry="1"/></g></g></g></svg>