<svg height="20" viewBox="0 0 108 20" width="108" xmlns="http://www.w3.org/2000/svg"><path d="m5.43905706 23c-2.57487276 0-4.31074203-1.1461318-5.0340209-3.2951289-.3182427-.8882522-.40503616-1.6905445-.40503616-6.7048711 0-5.01432665.08679346-5.81661891.40503616-6.70487106.72327887-2.14899713 2.45914814-3.29512894 5.0340209-3.29512894s4.31074203 1.14613181 5.03402094 3.29512894c.3182427.88825215.4050361 1.69054441.4050361 6.70487106 0 5.0143266-.0867934 5.8166189-.4050361 6.7048711-.72327891 2.1489971-2.45914818 3.2951289-5.03402094 3.2951289zm0-3.3810888c.72327886 0 1.21510849-.4011462 1.38869542-.9455588.14465577-.4584527.20251808-.9455587.20251808-5.6733524s-.05786231-5.21489971-.20251808-5.67335244c-.17358693-.5444126-.66541656-.94555873-1.38869542-.94555873-.72327887 0-1.21510849.40114613-1.38869542.94555873-.14465577.45845273-.20251808.94555874-.20251808 5.67335244s.05786231 5.2148997.20251808 5.6733524c.17358693.5444126.66541655.9455588 1.38869542.9455588zm8.53469064 2.8366762c0 .1719198.1157246.2865329.2893115.2865329h3.2113582c.1735869 0 .2893115-.1146131.2893115-.2865329v-7.47851c0-.1146132.0578623-.1719198.1735869-.1719198h4.2528798c.1735869 0 .2893115-.1146132.2893115-.286533v-2.8366762c0-.1719197-.1157246-.2865329-.2893115-.2865329h-4.2528798c-.1157246 0-.1735869-.0573066-.1735869-.1719198v-4.41260745c0-.11461318.0578623-.17191977.1735869-.17191977h4.9182963c.1735869 0 .2893116-.11461318.2893116-.28653295v-2.80802292c0-.17191977-.1157247-.28653295-.2893116-.28653295h-8.5925529c-.1735869 0-.2893115.11461318-.2893115.28653295zm12.0932226 0c0 .1719198.1157246.2865329.2893115.2865329h2.5170105c.1735869 0 .2893115-.1146131.2893115-.2865329v-7.8510029c0-.1146132.0578623-.1719197.1735869-.1719197h4.3975355c.173587 0 .2893116-.1146132.2893116-.286533v-2.2063037c0-.1719198-.1157246-.286533-.2893116-.286533h-4.3975355c-.1157246 0-.1735869-.0573066-.1735869-.1719197v-5.27220635c0-.11461318.0578623-.17191977.1735869-.17191977h5.0918832c.173587 0 .2893116-.11461318.2893116-.28653295v-2.20630372c0-.17191977-.1157246-.28653295-.2893116-.28653295h-8.0717921c-.1735869 0-.2893115.11461318-.2893115.28653295zm11.6013929 0c0 .1719198.1157247.2865329.2893116.2865329h2.5170104c.173587 0 .2893116-.1146131.2893116-.2865329v-18.91117479c0-.17191977-.1157246-.28653295-.2893116-.28653295h-2.5170104c-.1735869 0-.2893116.11461318-.2893116.28653295zm7.1170641-2.3209169c.6075542 1.8338109 1.9962496 2.8653295 4.2239485 2.8653295 2.5748728 0 4.1371551-1.3753582 4.3975355-4.3553009.0289312-.200573-.0578623-.3151862-.2314492-.3438395l-1.6490758-.3151862c-.1735869-.0286533-.3182427.0573065-.3182427.2292263-.1446558 1.747851-.8100723 2.6074499-2.1698366 2.6074499-1.0415216 0-1.678007-.4297995-1.9673185-1.3467049-.1735869-.5444126-.2603804-1.0888252-.2603804-6.4756447 0-5.38681948.0867935-5.93123209.2603804-6.4756447.2893115-.91690544.9257969-1.34670487 1.9673185-1.34670487 1.3597643 0 2.0251808.85959885 2.1698366 2.60744986 0 .17191977.1446558.25787965.3182427.22922636l1.6490758-.31518625c.1735869-.02865329.2603804-.14326647.2314492-.34383954-.2603804-2.97994269-1.8226627-4.35530086-4.3975355-4.35530086-2.2276989 0-3.6163943 1.03151862-4.2239485 2.86532951-.2603804.80229227-.3471739 1.60458453-.3471739 7.13467049 0 5.530086.0867935 6.3323782.3471739 7.1346705zm11.7171176 2.3209169c0 .1719198.1157246.2865329.2893115.2865329h7.4353067c.173587 0 .2893116-.1146131.2893116-.2865329v-1.5759312c0-.1719198-.1157246-.286533-.2893116-.286533h-5.2076078c-.1157246 0-.1735869-.0573066-.1735869-.1719198v-6.2750716c0-.1146132.0578623-.1719198.1735869-.1719198h4.5132601c.173587 0 .2893116-.1146131.2893116-.2865329v-1.5759312c0-.1719198-.1157246-.286533-.2893116-.286533h-4.5132601c-.1157246 0-.1735869-.0573066-.1735869-.1719198v-6.07449854c0-.11461318.0578623-.17191977.1735869-.17191977h5.2076078c.173587 0 .2893116-.11461318.2893116-.28653295v-1.57593123c0-.17191977-.1157246-.28653295-.2893116-.28653295h-7.4353067c-.1735869 0-.2893115.11461318-.2893115.28653295zm11.5724618 0c0 .1719198.1157246.2865329.2893115.2865329h6.6541656c.1735869 0 .2893115-.1146131.2893115-.2865329v-.8309456c0-.1719197-.1157246-.2865329-.2893115-.2865329h-5.2654701c-.1157247 0-.173587-.0573066-.173587-.1719198v-17.62177649c0-.17191977-.1157246-.28653295-.2893115-.28653295h-.925797c-.1735869 0-.2893115.11461318-.2893115.28653295zm10.675596 0c0 .1719198.1157247.2865329.2893116.2865329h6.6830967c.1735869 0 .2893115-.1146131.2893115-.2865329v-.8309456c0-.1719197-.1157246-.2865329-.2893115-.2865329h-5.2944013c-.1157246 0-.1735869-.0573066-.1735869-.1719198v-7.4212034c0-.1146132.0578623-.1719198.1735869-.1719198h4.6289847c.173587 0 .2893116-.1146132.2893116-.2865329v-.8309456c0-.1719198-.1157246-.286533-.2893116-.286533h-4.6289847c-.1157246 0-.1735869-.0573065-.1735869-.1719197v-7.16332381c0-.11461318.0578623-.17191977.1735869-.17191977h5.2944013c.1735869 0 .2893115-.11461318.2893115-.28653295v-.83094556c0-.17191977-.1157246-.28653295-.2893115-.28653295h-6.6830967c-.1735869 0-.2893116.11461318-.2893116.28653295zm17.9951782-4.9570201c0-3.0945558-.7811412-4.2693409-3.182427-5.2148997l-1.1861774-.4584527c-1.6490758-.6303725-2.2855612-1.6332378-2.2855612-4.1260745 0-2.75071633.8390035-3.89684814 2.806322-3.89684814 1.9383874 0 2.806322 1.14613181 2.9220466 3.75358167 0 .17191977.1157246.28653295.3182427.22922636l.2314493-.05730659c.1735869-.05730659.202518-.14326648.202518-.31518625-.0867934-3.00859599-1.3308331-4.38395415-3.6742566-4.38395415-2.4012858 0-3.6453255 1.48997134-3.6453255 4.6991404 0 2.8939828.6654166 4.0974212 3.2113582 5.0716332l1.1861773.4584528c1.5912135.6017192 2.2566301 1.6618911 2.2566301 4.2979942 0 3.7249284-1.0125904 4.6418338-2.9799089 4.6418338-1.9094562 0-2.9509778-1.0315186-3.182427-4.2120343 0-.1719198-.1157247-.286533-.3182427-.2292264l-.2314493.0573066c-.1735869.0573066-.2025181.1432665-.2025181.3151862.173587 3.2664757 1.3886955 4.8424069 3.9346371 4.8424069 2.6038039 0 3.8189124-1.3753582 3.8189124-5.4727794zm11.2542191 0c0-3.0945558-.781141-4.2693409-3.182427-5.2148997l-1.186177-.4584527c-1.649076-.6303725-2.285562-1.6332378-2.285562-4.1260745 0-2.75071633.839004-3.89684814 2.806322-3.89684814 1.938388 0 2.806322 1.14613181 2.922047 3.75358167 0 .17191977.115725.28653295.318243.22922636l.231449-.05730659c.173587-.05730659.202518-.14326648.202518-.31518625-.086793-3.00859599-1.330833-4.38395415-3.674257-4.38395415-2.401285 0-3.645325 1.48997134-3.645325 4.6991404 0 2.8939828.665417 4.0974212 3.211358 5.0716332l1.186177.4584528c1.591214.6017192 2.256631 1.6618911 2.256631 4.2979942 0 3.7249284-1.012591 4.6418338-2.979909 4.6418338-1.909457 0-2.950978-1.0315186-3.182427-4.2120343 0-.1719198-.115725-.286533-.318243-.2292264l-.231449.0573066c-.173587.0573066-.202518.1432665-.202518.3151862.173587 3.2664757 1.388695 4.8424069 3.934637 4.8424069 2.603804 0 3.818912-1.3753582 3.818912-5.4727794z" fill="#fff" fill-rule="evenodd" transform="translate(0 -3)"/></svg>