<svg height="44" viewBox="0 0 325 44" width="325" xmlns="http://www.w3.org/2000/svg" xmlns:xlink="http://www.w3.org/1999/xlink"><mask id="a" fill="#fff"><path d="m0 .315v20.46h21.664v-20.459h-21.664z" fill="#fff" fill-rule="evenodd"/></mask><mask id="b" fill="#fff"><path d="m.176 43.457h13.804v-43.352h-13.803v43.352z" fill="#fff" fill-rule="evenodd"/></mask><g fill="#e8c278" fill-rule="evenodd"><path d="m.54 16.62 2.97-4.207c1.415 1.346 3.536 2.412 6.082 2.412 1.075 0 2.093-.28 2.093-1.01 0-1.794-10.522.03-10.522-7.346 0-3.169 2.66-6.195 7.835-6.195 3.083 0 5.855.87 8.005 2.607l-3.056 4.01c-1.64-1.235-3.76-1.85-5.543-1.85-1.132 0-1.443.362-1.443.84 0 1.765 10.495.25 10.495 7.204 0 4.122-3.083 6.505-8.146 6.505-4.018 0-6.76-1.177-8.77-2.97m31.254 2.634v-7.148h-6.76v7.148h-5.713v-18.7h5.715v6.617h6.76v-6.615h5.713v18.7m16.884-9.338c0-2.607-1.782-4.68-4.525-4.68-2.745 0-4.526 2.073-4.526 4.68 0 2.608 1.78 4.682 4.526 4.682 2.743 0 4.525-2.074 4.525-4.682m-14.85 0c0-5.746 4.498-9.672 10.325-9.672s10.323 3.926 10.323 9.672c0 5.748-4.495 9.673-10.322 9.673s-10.324-3.924-10.324-9.672m36.513 9.335-2.432-10.597-2.433 10.597h-5.996l-5.403-18.7h6.393l2.433 11.44 2.856-11.441h4.3l2.856 11.44 2.405-11.44h6.42l-5.402 18.7"/><path d="m7.737 20.776v-8.13l-7.737-12.329h7.025l3.838 6.902 3.777-6.904h7.024l-7.674 12.332v8.13" mask="url(#a)" transform="translate(0 22.72)"/><path d="m36.673 33.282c0-2.853-1.95-5.122-4.952-5.122-3 0-4.95 2.27-4.95 5.122 0 2.853 1.95 5.123 4.95 5.123 3.003 0 4.953-2.27 4.953-5.123m-16.248 0c0-6.288 4.92-10.582 11.296-10.582 6.377 0 11.298 4.294 11.298 10.582s-4.92 10.583-11.297 10.583c-6.374 0-11.295-4.295-11.295-10.583m24.817 1.81v-12.055h6.344v11.84c0 1.964 1.3 3.528 3.868 3.528 2.537 0 3.837-1.564 3.837-3.527v-11.84h6.345v12.022c0 5.093-3.22 8.805-10.182 8.805-6.964 0-10.213-3.712-10.213-8.773m35.838-5.062c0-1.103-.99-1.594-2.043-1.594h-3.807v3.22h3.806c1.05 0 2.042-.49 2.042-1.626zm-.742 13.467-2.848-6.44h-2.26v6.44h-6.25v-20.46h11.018c4.827 0 7.426 3.19 7.426 7.025 0 3.527-2.073 5.398-3.714 6.196l3.745 7.24h-7.117zm22.58-.395v-31.26h-11.498v-11.208h35.907v11.206h-11.434v31.262m16.057 0v-42.467h32.502v11.205h-19.526v4.203h19.077v11.204h-19.077v4.648h19.526v11.207m30.896-27.95c0-2.292-2.056-3.31-4.24-3.31h-7.9v6.685h7.9c2.184 0 4.24-1.02 4.24-3.375zm-1.543 27.95-5.91-13.37h-4.688v13.368h-12.977v-42.465h22.868c10.02 0 15.42 6.622 15.42 14.58 0 7.32-4.306 11.206-7.71 12.862l7.772 15.025zm57.875 0v-25.53l-9.574 25.53h-5.78l-9.57-25.53v25.528h-12.978v-42.465h17.925l7.516 20.373 7.514-20.373h17.923v42.467m3.656-5.984 6.744-9.55c3.214 3.056 8.03 5.473 13.81 5.473 2.443 0 4.754-.634 4.754-2.29 0-4.075-23.895.064-23.895-16.68 0-7.196 6.04-14.07 17.792-14.07 7.003 0 13.298 1.973 18.18 5.92l-6.937 9.104c-3.728-2.8-8.544-4.2-12.59-4.2-2.57 0-3.278.825-3.278 1.908 0 4.01 23.833.572 23.833 16.364 0 9.358-7.003 14.77-18.5 14.77-9.123 0-15.353-2.675-19.914-6.748"/><path d="m.305 36.68c0-3.71 3.096-6.843 6.838-6.843s6.838 3.134 6.838 6.842c0 3.644-3.095 6.777-6.837 6.777s-6.838-3.133-6.838-6.778zm1.613-9.784-1.743-26.79h13.805l-1.612 26.79z" mask="url(#b)" transform="translate(310.75 .45)"/></g></svg>