<svg height="24" viewBox="0 0 118 24" width="118" xmlns="http://www.w3.org/2000/svg"><g fill="none"><g fill="#fff"><path d="m59.9508914 9.29797868c-.1031781 2.24760952-1.0417024 8.94813192-1.0417024 8.94813192-.0362115.3066651-.1994116.6046004-.4625654.8271006-1.1141255.9414845-2.4762754 1.1447341-3.6816739 1.080715-2.2503251-.1193085-2.9095739-.7612908-2.3222522-5.6119729.4223855-3.4899393.915954-4.2966702 2.1235847-5.11526478 1.1513292-.78054124 2.5784614-.74517401 4.863262-.67376803v.00223843c.2891964.01163985.5168828.22652932.5201071.49200735.000248.01275907.0017362.03805335.0012401.05081241zm3.6481906 10.91705662c-.3722846 0-.6423832-.2686118-.6031953-.5998997l1.5459359-13.09281259c.0905289-.76755833-.5858335-1.43393953-1.4534228-1.43393953 0 0-7.478183-.48126288-10.3326955.80225402-2.8160688 1.26628098-4.0909141 4.6642207-4.5616644 8.6513158-.5724402 4.8488914-.1455903 9.4580467 4.9999234 9.4580467 2.2098972 0 4.008074-.124233 5.2211612-1.640323.0049605-.0060437-.0064486.1061017-.0255465.2739841-.0833362.7290573.5592949 1.3636528 1.3829839 1.3636528h4.8302747l.3946068-3.343322c.0277788-.2343639-.1743611-.4389566-.4337946-.4389566z"/><path d="m38.0696851 5c-.0329622.17749148-.0539783.35971606-.0696851.54103043l.0701275-.54103043z"/><path d="m37.999549 5.0030636c.0002255-.00109414.0002255-.00218829.000451-.0030636h-4.9997745l-.0002255.0030636z"/><path d="m32.6108787 5.00314908-1.5866943-.00314908c-.8001527 0-1.7381204.21863638-2.6576155.59810096-.2211844.09132342-.4411535.19164423-.6582059.30073748-1.7706905.89119067-2.4862584 2.70573765-2.6792479 3.19519522-.4909808 1.24523764-.4080974 4.51556104 2.2142745 6.00305314.0651401.0368893.1305231.0737785.199066.1086434 1.3407177.6806519 2.7786593.9807146 3.769371 1.5072864.7498394.398584 1.2434938.9265054 1.2434938 1.8482871 0 .5805561-.4185489.9915115-1.0655741 1.2814521-1.2070348.5409676-3.8964912.3558465-4.7870622.3558465h-2.1394122l-.4632719 3.8011689h4.3665689c.4965711 0 1.2471397 0 1.4206844.0002249 1.02474.0011247 1.9243042-.2422545 2.7115748-.4973303 2.6532405-.8599247 3.9798608-2.7511744 3.9798608-5.8037611 0-2.3854309-2.1595861-4.0189055-4.789979-4.9085217-.1050018-.0355396-.2104898-.0701795-.31695-.1034698-1.463949-.4559424-3.1092206-.8657731-2.3613257-2.75252408.5291411-1.33431172 2.8493898-1.15526382 4.1247244-1.13052102.1985798.00337402.3845206.00382388.5889338 0h1.3963784c.5191757 0 1.0184205-.15025628 1.4445043-.40353258.6759492-.40195803 1.16693-1.06506507 1.2529731-1.8127475l.105488-.91593347c.0172572-.2240348.0403479-.44919428.0765638-.66850547z"/><path d="m43.8877873 4.83446799.3372944-3.11668245c.0417295-.38374181-.26836-.71778554-.665828-.71778554h-2.7428518c-.254527 0-.4843852.20106165-.511129.44682887l-.3665743 3.29732023-.4613303 4.15058411c-.0004611.00658102.0006917.01293511 0 .01951614l-1.0139583 9.09974145-.4523388 4.0686617c-.1148139 1.0588642.6764333 1.9173475 1.7669341 1.9173475h1.9746596 1.9744291l.3665743-3.3851429c.0265132-.2450864-.1542379-.4434249-.4050761-.4484174h-.9028333c-.3458248 0-.5968936-.2723182-.5542419-.6081774l.0912978-.8012965 1.0939591-9.59354525c.034813-.28184939.2808097-.49448456.5738386-.49448456h2.2776021c1.2742491 0 2.4256152-1.00621596 2.5586425-2.23595983l.1731429-1.59850817z"/><path d="m72.7663971 5.00404868c-.2019304 0-.3957112.0802988-.5385566.22312719l-.8188141.81940761c-.1432982.14327825-.329382.21570462-.5170505.22110285l.0595378-.55624349c.0407482-.38012595-.2635056-.71144284-.6537837-.71144284h-2.6932353c-.2499229 0-.534029.19928497-.5600626.44288048l-2.0444321 18.55711952h.0586323 3.8099648l1.6503056-14.70052799c.0067914-.05893077.0246753-.11381286.0482188-.16554598.1100204-.24134624.3341359-.3373899.5795312-.32929254h2.1936161c.0267127 0 .0531991-.00314897.0799119-.00404868 1.2188265-.04161142 2.2821304-1.01936737 2.4100348-2.21215314l.1697845-1.58438299z"/><path d="m96.9508914 9.29797868c-.1031781 2.24760952-1.0417024 8.94813192-1.0417024 8.94813192-.0362115.3066651-.1994116.6046004-.4625654.8271006-1.1141255.9414845-2.4762754 1.1447341-3.6816739 1.080715-2.2503251-.1193085-2.9095739-.7612908-2.3222522-5.6119729.4223855-3.4899393.915954-4.2966702 2.1235847-5.11526478 1.1513292-.78054124 2.5784614-.74517401 4.863262-.67376803v.00223843c.2891964.01163985.5168828.22652932.5201071.49200735.000248.01275907.0017362.03805335.0012401.05081241zm3.6481906 10.91705662c-.372285 0-.6421351-.2686118-.6031953-.5998997l1.5459363-13.09281259c.090529-.76755833-.585834-1.43393953-1.453423-1.43393953 0 0-7.4781832-.48126288-10.3326957.80225402-2.8160688 1.26628098-4.0909141 4.6642207-4.5616644 8.6513158-.5724402 4.8488914-.1455903 9.4580467 4.9999234 9.4580467 2.2098972 0 4.008074-.124233 5.2211612-1.640323.0049605-.0060437-.0064486.1061017-.0255465.2739841-.0833362.7290573.5592949 1.3636528 1.3829839 1.3636528h4.8302751l.394606-3.343322c.027779-.2343639-.174361-.4389566-.433794-.4389566z"/><path d="m81.8877873 4.83446799.3372944-3.11668245c.041499-.38374181-.26836-.71778554-.665828-.71778554h-2.7428518c-.254527 0-.4843852.20106165-.511129.44682887l-.3665743 3.29732023-.4613303 4.15058411c-.0004611.00658102.0006917.01293511 0 .01951614l-1.0139583 9.09974145-.4523388 4.0686617c-.1148139 1.0588642.6764333 1.9173475 1.7669341 1.9173475h1.9746596 1.9744291l.3665743-3.3851429c.0265132-.2450864-.1542379-.4434249-.4050761-.4484174h-.9028333c-.3458248 0-.5968936-.2723182-.5542419-.6081774l.0912978-.8012965 1.0939591-9.59354525c.034813-.28184939.2808097-.49448456.5738386-.49448456h2.2776021c1.2742491 0 2.4256152-1.00621596 2.5586425-2.23595983l.1731429-1.59850817z"/><path d="m107.613505 14.1591989.512929-4.73031787c.027316-.25745676.039456-.36458038.081247-.45617557.0007-.00157535.001401-.0031507.002101-.00472604.082414-.19534307.21269-.27546073.373082-.30494223h2.711731c1.586648 0 3.070571.10307272 2.610873 2.99203461-.534876 3.3620162-6.225658 2.6661628-6.291963 2.5041271m7.240076 2.9101165c2.713599-1.8298784 3.021543-5.5810053 3.048625-5.8348613.061869-.5815282.563125-3.41715337-1.496763-5.15498649-.591141-.498935-1.472483-.77169513-2.502544-.91640203-1.269132-.17846435-8.097137-.16271087-8.097137-.16271087-.620091-.0004501-1.192321.44492308-1.276603 1.03792882-.000233.00067515-.000233.0013503-.000467.00202545-.001167.00877693-.003268.01732882-.004436.02610575 0 0-.000233.00337575-.0007.00742664-.009339.05131131-.015176.10374787-.018211.15708463-.165995 1.44796922-1.387033 12.0865146-1.454505 12.6561152-.036188.3078679-.052764.6029079-.050663.8857953.009572 1.2879589.416741 2.3162106 1.216835 3.0633753.206853.1930926.447559.3540031.712078.4926336.467636.244629 1.013017.4129661 1.587816.5639744.406234.1066735 1.690075.109149 2.822628.1066735.186074-.0004501 5.836466 0 5.836466 0l.364911-3.3694428c.024981-.2306759-.16156-.4316452-.400631-.4316452h-5.851876c-1.125549 0-2.304562-.0722409-2.280515-.4692285.003969-.063689.188409-1.7043007.188409-1.7043007 1.511938.2077208 5.46175.5252658 7.657283-.9555607"/><path d="m112.823198 3.0808826c.450824.28827287 1.453587.9191174 2.582174.9191174.588618 0 .717752-.60637512.486227-.99019519 0 0-1.428117-1.49333274-2.051119-2.30338652-.674198-.87623768-2.231958-.9524424-3.001669-.14378687-.777607.81681199-2.653746 2.40266238-2.653746 2.40266238-.362951.47307513-.179055 1.0347062.437834 1.0347062 1.242184 0 2.380704-.67419033 2.890619-.96479362.439107-.250054.921768-.2022804 1.30968.04567622"/></g><path d="m13.7825107 11.0577163v-1.96763102l3.9309445-3.63823554v1.96763098zm-9.36209289 4.0909867-3.93216701-3.6393624h13.0915759l3.9319225 3.6393624zm9.36209289 8.3996726v-1.967631l3.9309445-3.6382355v1.967631zm-13.49596592-1.890332h13.20966562v2.0778328h-13.20966562zm4.13362854-3.9032606h13.09157588l-3.932167 3.6393623h-13.0915759zm-4.13362854-6.0577163 3.93094456 3.6382356v1.967631l-3.93094456-3.6380102zm4.13362854-6.43294306h13.09157588l-3.932167 3.63913698h-13.0915759zm-4.13362854 3.90326063h13.20966562v2.07783273h-13.20966562zm17.42691042 8.32327513h-13.20942108v-2.0778328h13.20942108zm.2865448-10.01664121v-2.34195637c0-.00202825-.000978-.00405651-.000978-.00608476-.000489-.00676084-.0019559-.01329633-.0034229-.01983181-.0012224-.00631012-.0024449-.01262024-.0048898-.01847964-.0007335-.00202825-.0007335-.00428187-.0017114-.00631012-.0017115-.00405651-.0048899-.00721157-.0073348-.01104271-.0031784-.0058594-.0066013-.01126808-.0107577-.01667675-.0041563-.00518331-.0090462-.00969054-.0141805-.01442313-.0048899-.00428187-.0095352-.00856374-.014914-.01239489-.0061123-.0040565-.0124691-.00721156-.0193149-.01059198-.0039119-.0018029-.0070903-.00450723-.0110022-.00608476-.0022004-.00090145-.0044008-.00090145-.0063567-.00157753-.0068458-.00225362-.0136916-.00338043-.0210264-.0047326-.0070902-.00135216-.013936-.00270433-.0210263-.00292969-.0022004 0-.0041564-.00090145-.0063568-.00090145h-13.49596587c-.03814077 0-.0745701.01397241-.10146424.03876217l-4.21773383 3.90326063c-.01198011.01126807-.02053734.02433904-.02762761.03808609-.00195594.00383114-.0029339.00788765-.00464535.01216951-.00415637.01126808-.00684578.02298687-.00757926.03493103-.00024449.0029297-.00171144.00518332-.00171144.00811301v2.34195636 2.3421818c0 .034931.01491402.0685098.04156366.0930742l4.11700307 3.8101864-4.11700307 3.8101863c-.01198011.0110427-.02053734.0241137-.02762761.0378607-.00195594.0038312-.0029339.0081131-.00464535.0121696-.00415637.0114934-.00684578.0229868-.00757926.0351564-.00024449.0027043-.00171144.0051833-.00171144.0078876v2.3419564c0 .0730171.06405694.1320618.14327239.1320618h13.49596591c.0188259 0 .0376518-.0036058.0550107-.0101413.0173589-.0067608.0332509-.0164514.0464535-.0283955v-.0002254l4.2174893-3.9032606c.0268942-.0247898.0418082-.0583686.0418082-.0932996v-2.3419564-2.3421818c0-.0027043-.0017114-.0051833-.0017114-.0078876-.000978-.0121695-.0034229-.023663-.0078238-.0351564-.0014669-.0040565-.0026894-.0083384-.0046453-.0121695-.0068458-.0137471-.0156475-.026818-.0276277-.0378607l-4.116514-3.8101864 4.116514-3.80996096c.0268942-.02478976.0418082-.05836862.0418082-.09329965z" fill="#ff223e"/></g></svg>