<?xml version="1.0" encoding="UTF-8"?>
<svg width="118px" height="24px" viewBox="0 0 118 24" version="1.1" xmlns="http://www.w3.org/2000/svg" xmlns:xlink="http://www.w3.org/1999/xlink">
    <!-- Generator: Sketch 45.2 (43514) - http://www.bohemiancoding.com/sketch -->
    <title>startae</title>
    <desc>Created with Sketch.</desc>
    <defs></defs>
    <g id="Welcome" stroke="none" stroke-width="1" fill="none" fill-rule="evenodd">
        <g id="Desktop" transform="translate(-243.000000, -1020.000000)" fill-rule="nonzero">
            <g id="Group-7" transform="translate(112.000000, 906.000000)">
                <g id="Group-3">
                    <g id="startae" transform="translate(131.000000, 114.000000)">
                        <path d="M59.9508914,9.29797868 C59.8477133,11.5455882 58.909189,18.2461106 58.909189,18.2461106 C58.8729775,18.5527757 58.7097774,18.850711 58.4466236,19.0732112 C57.3324981,20.0146957 55.9703482,20.2179453 54.7649497,20.1539262 C52.5146246,20.0346177 51.8553758,19.3926354 52.4426975,14.5419533 C52.865083,11.052014 53.3586515,10.2452831 54.5662822,9.42668852 C55.7176114,8.64614728 57.1447436,8.68151451 59.4295442,8.75292049 L59.4295442,8.75515892 C59.7187406,8.76679877 59.946427,8.98168824 59.9496513,9.24716627 C59.9498993,9.25992534 59.9513875,9.28521962 59.9508914,9.29797868 L59.9508914,9.29797868 Z M63.599082,20.2150353 C63.2267974,20.2150353 62.9566988,19.9464235 62.9958867,19.6151356 L64.5418226,6.52232301 C64.6323515,5.75476468 63.9559891,5.08838348 63.0883998,5.08838348 C63.0883998,5.08838348 55.6102168,4.6071206 52.7557043,5.8906375 C49.9396355,7.15691848 48.6647902,10.5548582 48.1940399,14.5419533 C47.6215997,19.3908447 48.0484496,24 53.1939633,24 C55.4038605,24 57.2020373,23.875767 58.4151245,22.359677 C58.420085,22.3536333 58.4086759,22.4657787 58.389578,22.6336611 C58.3062418,23.3627184 58.9488729,23.9973139 59.7725619,23.9973139 L64.6028366,23.9973139 L64.9974434,20.6539919 C65.0252222,20.419628 64.8230823,20.2150353 64.5636488,20.2150353 L63.599082,20.2150353 Z" id="Fill-2" fill="#FFFFFF"></path>
                        <path d="M38.0696851,5 C38.0367229,5.17749148 38.0157068,5.35971606 38,5.54103043 L38.0701275,5 L38.0696851,5 Z" id="Fill-4" fill="#FFFFFF"></path>
                        <path d="M37.999549,5.0030636 C37.9997745,5.00196946 37.9997745,5.00087531 38,5 L33.0002255,5 L33,5.0030636 L37.999549,5.0030636 Z" id="Fill-6" fill="#FFFFFF"></path>
                        <path d="M32.6108787,5.00314908 L31.0241844,5 C30.2240317,5 29.286064,5.21863638 28.3665689,5.59810096 C28.1453845,5.68942438 27.9254154,5.78974519 27.708363,5.89883844 C25.9376725,6.79002911 25.2221046,8.60457609 25.0291151,9.09403366 C24.5381343,10.3392713 24.6210177,13.6095947 27.2433896,15.0970868 C27.3085297,15.1339761 27.3739127,15.1708653 27.4424556,15.2057302 C28.7831733,15.8863821 30.2211149,16.1864448 31.2118266,16.7130166 C31.961666,17.1116006 32.4553204,17.639522 32.4553204,18.5613037 C32.4553204,19.1418598 32.0367715,19.5528152 31.3897463,19.8427558 C30.1827115,20.3837234 27.4932551,20.1986023 26.6026841,20.1986023 L24.4632719,20.1986023 L24,23.9997712 L28.3665689,23.9997712 C28.86314,23.9997712 29.6137086,23.9997712 29.7872533,23.9999961 C30.8119933,24.0011208 31.7115575,23.7577416 32.4988281,23.5026658 C35.1520686,22.6427411 36.4786889,20.7514914 36.4786889,17.6989047 C36.4786889,15.3134738 34.3191028,13.6799992 31.6887099,12.790383 C31.5837081,12.7548434 31.4782201,12.7202035 31.3717599,12.6869132 C29.9078109,12.2309708 28.2625393,11.8211401 29.0104342,9.93438912 C29.5395753,8.6000774 31.859824,8.7791253 33.1351586,8.8038681 C33.3337384,8.80724212 33.5196792,8.80769198 33.7240924,8.8038681 L35.1204708,8.8038681 C35.6396465,8.8038681 36.1388913,8.65361182 36.5649751,8.40033552 C37.2409243,7.99837749 37.7319051,7.33527045 37.8179482,6.58758802 L37.9234362,5.67165455 C37.9406934,5.44761975 37.9637841,5.22246027 38,5.00314908 L32.6108787,5.00314908 Z" id="Fill-8" fill="#FFFFFF"></path>
                        <path d="M43.8877873,4.83446799 L44.2250817,1.71778554 C44.2668112,1.33404373 43.9567217,1 43.5592537,1 L40.8164019,1 C40.5618749,1 40.3320167,1.20106165 40.3052729,1.44682887 L39.9386986,4.7441491 L39.4773683,8.89473321 C39.4769072,8.90131423 39.47806,8.90766832 39.4773683,8.91424935 L38.46341,18.0139908 L38.0110712,22.0826525 C37.8962573,23.1415167 38.6875045,24 39.7780053,24 L41.7526649,24 L43.727094,24 L44.0936683,20.6148571 C44.1201815,20.3697707 43.9394304,20.1714322 43.6885922,20.1664397 L42.7857589,20.1664397 C42.4399341,20.1664397 42.1888653,19.8941215 42.231517,19.5582623 L42.3228148,18.7569658 L43.4167739,9.16342055 C43.4515869,8.88157116 43.6975836,8.66893599 43.9906125,8.66893599 L46.2682146,8.66893599 C47.5424637,8.66893599 48.6938298,7.66272003 48.8268571,6.43297616 L49,4.83446799 L43.8877873,4.83446799 Z" id="Fill-10" fill="#FFFFFF"></path>
                        <path d="M72.7663971,5.00404868 C72.5644667,5.00404868 72.3706859,5.08434748 72.2278405,5.22717587 L71.4090264,6.04658348 C71.2657282,6.18986173 71.0796444,6.2622881 70.8919759,6.26768633 L70.9515137,5.71144284 C70.9922619,5.33131689 70.6880081,5 70.29773,5 L67.6044947,5 C67.3545718,5 67.0704657,5.19928497 67.0444321,5.44288048 L65,24 L65.0586323,24 L68.8685971,24 L70.5189027,9.29947201 C70.5256941,9.24054124 70.543578,9.18565915 70.5671215,9.13392603 C70.6771419,8.89257979 70.9012574,8.79653613 71.1466527,8.80463349 L73.3402688,8.80463349 C73.3669815,8.80463349 73.3934679,8.80148452 73.4201807,8.80058481 C74.6390072,8.75897339 75.7023111,7.78121744 75.8302155,6.58843167 L76,5.00404868 L72.7663971,5.00404868 Z" id="Fill-12" fill="#FFFFFF"></path>
                        <path d="M96.9508914,9.29797868 C96.8477133,11.5455882 95.909189,18.2461106 95.909189,18.2461106 C95.8729775,18.5527757 95.7097774,18.850711 95.4466236,19.0732112 C94.3324981,20.0146957 92.9703482,20.2179453 91.7649497,20.1539262 C89.5146246,20.0346177 88.8553758,19.3926354 89.4426975,14.5419533 C89.865083,11.052014 90.3586515,10.2452831 91.5662822,9.42668852 C92.7176114,8.64614728 94.1447436,8.68151451 96.4295442,8.75292049 L96.4295442,8.75515892 C96.7187406,8.76679877 96.946427,8.98168824 96.9496513,9.24716627 C96.9498993,9.25992534 96.9513875,9.28521962 96.9508914,9.29797868 L96.9508914,9.29797868 Z M100.599082,20.2150353 C100.226797,20.2150353 99.9569469,19.9464235 99.9958867,19.6151356 L101.541823,6.52232301 C101.632352,5.75476468 100.955989,5.08838348 100.0884,5.08838348 C100.0884,5.08838348 92.6102168,4.6071206 89.7557043,5.8906375 C86.9396355,7.15691848 85.6647902,10.5548582 85.1940399,14.5419533 C84.6215997,19.3908447 85.0484496,24 90.1939633,24 C92.4038605,24 94.2020373,23.875767 95.4151245,22.359677 C95.420085,22.3536333 95.4086759,22.4657787 95.389578,22.6336611 C95.3062418,23.3627184 95.9488729,23.9973139 96.7725619,23.9973139 L101.602837,23.9973139 L101.997443,20.6539919 C102.025222,20.419628 101.823082,20.2150353 101.563649,20.2150353 L100.599082,20.2150353 Z" id="Fill-14" fill="#FFFFFF"></path>
                        <path d="M81.8877873,4.83446799 L82.2250817,1.71778554 C82.2665807,1.33404373 81.9567217,1 81.5592537,1 L78.8164019,1 C78.5618749,1 78.3320167,1.20106165 78.3052729,1.44682887 L77.9386986,4.7441491 L77.4773683,8.89473321 C77.4769072,8.90131423 77.47806,8.90766832 77.4773683,8.91424935 L76.46341,18.0139908 L76.0110712,22.0826525 C75.8962573,23.1415167 76.6875045,24 77.7780053,24 L79.7526649,24 L81.727094,24 L82.0936683,20.6148571 C82.1201815,20.3697707 81.9394304,20.1714322 81.6885922,20.1664397 L80.7857589,20.1664397 C80.4399341,20.1664397 80.1888653,19.8941215 80.231517,19.5582623 L80.3228148,18.7569658 L81.4167739,9.16342055 C81.4515869,8.88157116 81.6975836,8.66893599 81.9906125,8.66893599 L84.2682146,8.66893599 C85.5424637,8.66893599 86.6938298,7.66272003 86.8268571,6.43297616 L87,4.83446799 L81.8877873,4.83446799 Z" id="Fill-16" fill="#FFFFFF"></path>
                        <path d="M107.613505,14.1591989 L108.126434,9.42888103 C108.15375,9.17142427 108.16589,9.06430065 108.207681,8.97270546 C108.208381,8.97113011 108.209082,8.96955476 108.209782,8.96797942 C108.292196,8.77263635 108.422472,8.69251869 108.582864,8.66303719 L111.294595,8.66303719 C112.881243,8.66303719 114.365166,8.76610991 113.905468,11.6550718 C113.370592,15.017088 107.67981,14.3212346 107.613505,14.1591989 M114.853581,17.0693154 C117.56718,15.239437 117.875124,11.4883101 117.902206,11.2344541 C117.964075,10.6529259 118.465331,7.81730073 116.405443,6.07946761 C115.814302,5.58053261 114.93296,5.30777248 113.902899,5.16306558 C112.633767,4.98460123 105.805762,5.00035471 105.805762,5.00035471 C105.185671,4.99990461 104.613441,5.44527779 104.529159,6.03828353 C104.528926,6.03895868 104.528926,6.03963383 104.528692,6.04030898 C104.527525,6.04908591 104.525424,6.0576378 104.524256,6.06641473 C104.524256,6.06641473 104.524023,6.06979048 104.523556,6.07384137 C104.514217,6.12515268 104.50838,6.17758924 104.505345,6.230926 C104.33935,7.67889522 103.118312,18.3174406 103.05084,18.8870412 C103.014652,19.1949091 102.998076,19.4899491 103.000177,19.7728365 C103.009749,21.0607954 103.416918,22.0890471 104.217012,22.8362118 C104.423865,23.0293044 104.664571,23.1902149 104.92909,23.3288454 C105.396726,23.5734744 105.942107,23.7418115 106.516906,23.8928198 C106.92314,23.9994933 108.206981,24.0019688 109.339534,23.9994933 C109.525608,23.9990432 115.176,23.9994933 115.176,23.9994933 L115.540911,20.6300505 C115.565892,20.3993746 115.379351,20.1984053 115.14028,20.1984053 L109.288404,20.1984053 C108.162855,20.1984053 106.983842,20.1261644 107.007889,19.7291768 C107.011858,19.6654878 107.196298,18.0248761 107.196298,18.0248761 C108.708236,18.2325969 112.658048,18.5501419 114.853581,17.0693154" id="Fill-18" fill="#FFFFFF"></path>
                        <path d="M112.823198,3.0808826 C113.274022,3.36915547 114.276785,4 115.405372,4 C115.99399,4 116.123124,3.39362488 115.891599,3.00980481 C115.891599,3.00980481 114.463482,1.51647207 113.84048,0.706418292 C113.166282,-0.169819394 111.608522,-0.246024108 110.838811,0.562631416 C110.061204,1.37944341 108.185065,2.9652938 108.185065,2.9652938 C107.822114,3.43836893 108.00601,4 108.622899,4 C109.865083,4 111.003603,3.32580967 111.513518,3.03520638 C111.952625,2.78515238 112.435286,2.83292598 112.823198,3.0808826" id="Fill-20" fill="#FFFFFF"></path>
                        <path d="M13.7825107,11.0577163 L13.7825107,9.09008528 L17.7134552,5.45184974 L17.7134552,7.41948072 L13.7825107,11.0577163 Z M4.42041781,15.148703 L0.488250795,11.5093406 L13.5798267,11.5093406 L17.5117492,15.148703 L4.42041781,15.148703 Z M13.7825107,23.5483756 L13.7825107,21.5807446 L17.7134552,17.9425091 L17.7134552,19.9101401 L13.7825107,23.5483756 Z M0.286544783,21.6580436 L13.4962104,21.6580436 L13.4962104,23.7358764 L0.286544783,23.7358764 L0.286544783,21.6580436 Z M4.42017332,17.754783 L17.5117492,17.754783 L13.5795822,21.3941453 L0.488006302,21.3941453 L4.42017332,17.754783 Z M0.286544783,11.6970667 L4.21748934,15.3353023 L4.21748934,17.3029333 L0.286544783,13.6649231 L0.286544783,11.6970667 Z M4.42017332,5.26412364 L17.5117492,5.26412364 L13.5795822,8.90326062 L0.488006302,8.90326062 L4.42017332,5.26412364 Z M0.286544783,9.16738427 L13.4962104,9.16738427 L13.4962104,11.245217 L0.286544783,11.245217 L0.286544783,9.16738427 Z M17.7134552,17.4906594 L4.50403412,17.4906594 L4.50403412,15.4128266 L17.7134552,15.4128266 L17.7134552,17.4906594 Z M18,7.47401819 L18,5.13206182 C18,5.13003357 17.999022,5.12800531 17.999022,5.12597706 C17.998533,5.11921622 17.9970661,5.11268073 17.9955991,5.10614525 C17.9943767,5.09983513 17.9931542,5.09352501 17.9907093,5.08766561 C17.9899758,5.08563736 17.9899758,5.08338374 17.9889979,5.08135549 C17.9872864,5.07729898 17.984108,5.07414392 17.9816631,5.07031278 C17.9784847,5.06445338 17.9750618,5.0590447 17.9709054,5.05363603 C17.9667491,5.04845272 17.9618592,5.04394549 17.9567249,5.0392129 C17.951835,5.03493103 17.9471897,5.03064916 17.9418109,5.02681801 C17.9356986,5.02276151 17.9293418,5.01960645 17.922496,5.01622603 C17.9185841,5.01442313 17.9154057,5.0117188 17.9114938,5.01014127 C17.9092934,5.00923982 17.907093,5.00923982 17.9051371,5.00856374 C17.8982913,5.00631012 17.8914455,5.00518331 17.8841107,5.00383114 C17.8770205,5.00247898 17.8701747,5.00112681 17.8630844,5.00090145 C17.860884,5.00090145 17.858928,5 17.8567276,5 L4.36076173,5 C4.32262096,5 4.28619163,5.01397241 4.25929749,5.03876217 L0.041563663,8.9420228 C0.0295835484,8.95329087 0.0210263237,8.96636184 0.0139360517,8.98010889 C0.0119801146,8.98394003 0.0110021461,8.98799654 0.00929070115,8.9922784 C0.00513433485,9.00354648 0.00244492136,9.01526527 0.00171144495,9.02720943 C0.00146695281,9.03013913 0,9.03239275 0,9.03532244 L0,11.3772788 L0,13.7194606 C0,13.7543916 0.0149140203,13.7879704 0.041563663,13.8125348 L4.15856673,17.6227212 L0.041563663,21.4329075 C0.0295835484,21.4439502 0.0210263237,21.4570212 0.0139360517,21.4707682 C0.0119801146,21.4745994 0.0110021461,21.4788813 0.00929070115,21.4829378 C0.00513433485,21.4944312 0.00244492136,21.5059246 0.00171144495,21.5180942 C0.00146695281,21.5207985 0,21.5232775 0,21.5259818 L0,23.8679382 C0,23.9409553 0.0640569395,24 0.143272391,24 L13.6392383,24 C13.6580642,24 13.6768901,23.9963942 13.694249,23.9898587 C13.7116079,23.9830979 13.7274999,23.9734073 13.7407025,23.9614632 L13.7407025,23.9612378 L17.9581918,20.0579772 C17.985086,20.0331874 18,19.9996086 18,19.9646776 L18,17.6227212 L18,15.2805394 C18,15.2778351 17.9982886,15.2753561 17.9982886,15.2726518 C17.9973106,15.2604823 17.9948657,15.2489888 17.9904648,15.2374954 C17.9889979,15.2334389 17.9877754,15.229157 17.9858195,15.2253259 C17.9789737,15.2115788 17.970172,15.1985079 17.9581918,15.1874652 L13.8416778,11.3772788 L17.9581918,7.56731784 C17.985086,7.54252808 18,7.50894922 18,7.47401819 L18,7.47401819 Z" id="Fill-22" fill="#FF223E"></path>
                    </g>
                </g>
            </g>
        </g>
    </g>
</svg>