<svg width="462" height="462" viewBox="0 0 462 462" fill="none" xmlns="http://www.w3.org/2000/svg">
<path fill-rule="evenodd" clip-rule="evenodd" d="M111.861 100.279C120.096 89.7521 125 76.5213 125 62.1515C125 27.8262 97.0178 4.49891e-06 62.5 2.99008e-06C27.9822 1.48126e-06 1.40425e-05 27.8262 1.25421e-05 62.1515C1.19139e-05 76.5215 4.90416 89.7524 13.1389 100.28C25.8568 111.656 33.8542 128.149 33.8542 146.5C33.8542 164.85 25.8569 181.343 13.1392 192.72C4.90428 203.247 5.79622e-06 216.478 5.16808e-06 230.849C3.66767e-06 265.174 27.9822 293 62.5 293C97.0178 293 125 265.174 125 230.849C125 216.478 120.096 203.247 111.861 192.72C99.143 181.343 91.1458 164.85 91.1458 146.5C91.1458 128.149 99.1433 111.656 111.861 100.279ZM62.5 92.4874C45.652 92.4874 31.9941 78.9056 31.9941 62.1516C31.9941 45.3976 45.652 31.8157 62.5 31.8157C79.348 31.8157 93.006 45.3976 93.006 62.1516C93.006 78.9056 79.348 92.4874 62.5 92.4874ZM31.994 230.848C31.994 247.602 45.652 261.184 62.5 261.184C79.348 261.184 93.0059 247.602 93.0059 230.848C93.0059 214.094 79.348 200.513 62.5 200.513C45.652 200.513 31.994 214.094 31.994 230.848Z" fill="#FFC700"/>
<path fill-rule="evenodd" clip-rule="evenodd" d="M111.861 269.279C120.096 258.752 125 245.521 125 231.152C125 196.826 97.0178 169 62.5 169C27.9822 169 1.40425e-05 196.826 1.25421e-05 231.152C1.19139e-05 245.521 4.90416 258.752 13.1389 269.28C25.8568 280.656 33.8542 297.149 33.8542 315.5C33.8542 333.85 25.8569 350.343 13.1392 361.72C4.90428 372.247 5.79622e-06 385.478 5.16808e-06 399.849C3.66767e-06 434.174 27.9822 462 62.5 462C97.0178 462 125 434.174 125 399.849C125 385.478 120.096 372.247 111.861 361.72C99.143 350.343 91.1458 333.85 91.1458 315.5C91.1458 297.149 99.1433 280.656 111.861 269.279ZM62.5 261.487C45.652 261.487 31.9941 247.906 31.9941 231.152C31.9941 214.398 45.652 200.816 62.5 200.816C79.348 200.816 93.006 214.398 93.006 231.152C93.006 247.906 79.348 261.487 62.5 261.487ZM31.994 399.848C31.994 416.602 45.652 430.184 62.5 430.184C79.348 430.184 93.0059 416.602 93.0059 399.848C93.0059 383.094 79.348 369.513 62.5 369.513C45.652 369.513 31.994 383.094 31.994 399.848Z" fill="#FFC700"/>
<path fill-rule="evenodd" clip-rule="evenodd" d="M100.279 350.139C89.7521 341.904 76.5213 337 62.1515 337C27.8262 337 0 364.982 0 399.5C0 434.018 27.8262 462 62.1515 462C76.5215 462 89.7524 457.096 100.28 448.861C111.656 436.143 128.149 428.146 146.5 428.146C164.85 428.146 181.343 436.143 192.72 448.861C203.247 457.096 216.478 462 230.849 462C265.174 462 293 434.018 293 399.5C293 364.982 265.174 337 230.849 337C216.478 337 203.247 341.904 192.72 350.139C181.343 362.857 164.85 370.854 146.5 370.854C128.149 370.854 111.656 362.857 100.279 350.139ZM92.4874 399.5C92.4874 416.348 78.9056 430.006 62.1516 430.006C45.3975 430.006 31.8157 416.348 31.8157 399.5C31.8157 382.652 45.3975 368.994 62.1516 368.994C78.9056 368.994 92.4874 382.652 92.4874 399.5ZM230.848 430.006C247.602 430.006 261.184 416.348 261.184 399.5C261.184 382.652 247.602 368.994 230.848 368.994C214.094 368.994 200.513 382.652 200.513 399.5C200.513 416.348 214.094 430.006 230.848 430.006Z" fill="#FFC700"/>
<path fill-rule="evenodd" clip-rule="evenodd" d="M269.279 350.139C258.752 341.904 245.521 337 231.152 337C196.826 337 169 364.982 169 399.5C169 434.018 196.826 462 231.152 462C245.521 462 258.752 457.096 269.28 448.861C280.656 436.143 297.149 428.146 315.5 428.146C333.85 428.146 350.343 436.143 361.72 448.861C372.247 457.096 385.478 462 399.849 462C434.174 462 462 434.018 462 399.5C462 364.982 434.174 337 399.849 337C385.478 337 372.247 341.904 361.72 350.139C350.343 362.857 333.85 370.854 315.5 370.854C297.149 370.854 280.656 362.857 269.279 350.139ZM261.487 399.5C261.487 416.348 247.906 430.006 231.152 430.006C214.398 430.006 200.816 416.348 200.816 399.5C200.816 382.652 214.398 368.994 231.152 368.994C247.906 368.994 261.487 382.652 261.487 399.5ZM399.848 430.006C416.602 430.006 430.184 416.348 430.184 399.5C430.184 382.652 416.602 368.994 399.848 368.994C383.094 368.994 369.513 382.652 369.513 399.5C369.513 416.348 383.094 430.006 399.848 430.006Z" fill="#FFC700"/>
<path fill-rule="evenodd" clip-rule="evenodd" d="M350.139 360.721C341.904 371.248 337 384.479 337 398.848C337 433.174 364.982 461 399.5 461C434.018 461 462 433.174 462 398.848C462 384.479 457.096 371.248 448.861 360.72C436.143 349.344 428.146 332.851 428.146 314.5C428.146 296.15 436.143 279.657 448.861 268.28C457.096 257.753 462 244.522 462 230.151C462 195.826 434.018 168 399.5 168C364.982 168 337 195.826 337 230.151C337 244.522 341.904 257.753 350.139 268.28C362.857 279.657 370.854 296.15 370.854 314.5C370.854 332.851 362.857 349.344 350.139 360.721ZM399.5 368.513C416.348 368.513 430.006 382.094 430.006 398.848C430.006 415.602 416.348 429.184 399.5 429.184C382.652 429.184 368.994 415.602 368.994 398.848C368.994 382.094 382.652 368.513 399.5 368.513ZM430.006 230.152C430.006 213.398 416.348 199.816 399.5 199.816C382.652 199.816 368.994 213.398 368.994 230.152C368.994 246.906 382.652 260.487 399.5 260.487C416.348 260.487 430.006 246.906 430.006 230.152Z" fill="#FFC700"/>
<path fill-rule="evenodd" clip-rule="evenodd" d="M361.721 279.861C372.248 288.096 385.479 293 399.848 293C434.174 293 462 265.018 462 230.5C462 195.982 434.174 168 399.848 168C385.479 168 372.248 172.904 361.72 181.139C350.344 193.857 333.851 201.854 315.5 201.854C297.15 201.854 280.657 193.857 269.28 181.139C258.753 172.904 245.522 168 231.151 168C196.826 168 169 195.982 169 230.5C169 265.018 196.826 293 231.151 293C245.522 293 258.753 288.096 269.28 279.861C280.657 267.143 297.15 259.146 315.5 259.146C333.851 259.146 350.344 267.143 361.721 279.861ZM369.513 230.5C369.513 213.652 383.094 199.994 399.848 199.994C416.602 199.994 430.184 213.652 430.184 230.5C430.184 247.348 416.602 261.006 399.848 261.006C383.094 261.006 369.513 247.348 369.513 230.5ZM231.152 199.994C214.398 199.994 200.816 213.652 200.816 230.5C200.816 247.348 214.398 261.006 231.152 261.006C247.906 261.006 261.487 247.348 261.487 230.5C261.487 213.652 247.906 199.994 231.152 199.994Z" fill="#FFC700"/>
<path fill-rule="evenodd" clip-rule="evenodd" d="M100.279 13.1386C89.7521 4.90404 76.5213 5.72205e-06 62.1515 5.72205e-06C27.8262 5.72205e-06 0 27.9822 0 62.5C0 97.0178 27.8262 125 62.1515 125C76.5215 125 89.7524 120.096 100.28 111.861C111.656 99.1432 128.149 91.1458 146.5 91.1458C164.85 91.1458 181.343 99.1431 192.72 111.861C203.247 120.096 216.478 125 230.849 125C265.174 125 293 97.0178 293 62.5C293 27.9822 265.174 5.72205e-06 230.849 5.72205e-06C216.478 5.72205e-06 203.247 4.90439 192.72 13.1395C181.343 25.857 164.85 33.8542 146.5 33.8542C128.149 33.8542 111.656 25.8567 100.279 13.1386ZM92.4874 62.5C92.4874 79.348 78.9056 93.006 62.1516 93.006C45.3975 93.006 31.8157 79.348 31.8157 62.5C31.8157 45.652 45.3975 31.9941 62.1516 31.9941C78.9056 31.9941 92.4874 45.652 92.4874 62.5ZM230.848 93.006C247.602 93.006 261.184 79.348 261.184 62.5C261.184 45.652 247.602 31.9941 230.848 31.9941C214.094 31.9941 200.513 45.652 200.513 62.5C200.513 79.348 214.094 93.006 230.848 93.006Z" fill="#FFC700"/>
<path fill-rule="evenodd" clip-rule="evenodd" d="M269.279 13.1386C258.752 4.90404 245.521 5.72205e-06 231.152 5.72205e-06C196.826 5.72205e-06 169 27.9822 169 62.5C169 97.0178 196.826 125 231.152 125C245.521 125 258.752 120.096 269.28 111.861C280.656 99.1432 297.149 91.1458 315.5 91.1458C333.85 91.1458 350.343 99.1431 361.72 111.861C372.247 120.096 385.478 125 399.849 125C434.174 125 462 97.0178 462 62.5C462 27.9822 434.174 5.72205e-06 399.849 5.72205e-06C385.478 5.72205e-06 372.247 4.90439 361.72 13.1395C350.343 25.857 333.85 33.8542 315.5 33.8542C297.149 33.8542 280.656 25.8567 269.279 13.1386ZM261.487 62.5C261.487 79.348 247.906 93.006 231.152 93.006C214.398 93.006 200.816 79.348 200.816 62.5C200.816 45.652 214.398 31.9941 231.152 31.9941C247.906 31.9941 261.487 45.652 261.487 62.5ZM399.848 93.006C416.602 93.006 430.184 79.348 430.184 62.5C430.184 45.652 416.602 31.9941 399.848 31.9941C383.094 31.9941 369.513 45.652 369.513 62.5C369.513 79.348 383.094 93.006 399.848 93.006Z" fill="#FFC700"/>
</svg>
