<?xml version="1.0" encoding="UTF-8"?>
<svg width="120px" height="19px" viewBox="0 0 120 19" version="1.1" xmlns="http://www.w3.org/2000/svg" xmlns:xlink="http://www.w3.org/1999/xlink">
    <!-- Generator: Sketch 46.2 (44496) - http://www.bohemiancoding.com/sketch -->
    <title>droneiro.com</title>
    <desc>Created with Sketch.</desc>
    <defs></defs>
    <g id="Welcome" stroke="none" stroke-width="1" fill="none" fill-rule="evenodd">
        <g id="Desktop" transform="translate(-37.000000, -32.000000)" fill="#FFFFFF">
            <path d="M49.8720703,50 L49.1308594,50 L47.9404297,48.3491211 C47.648436,48.6111667 47.3396012,48.8563628 47.013916,49.0847168 C46.6882308,49.3130708 46.3457049,49.5114738 45.9863281,49.6799316 C45.6269513,49.8483895 45.2582213,49.9812821 44.880127,50.0786133 C44.5020326,50.1759445 44.1183288,50.2246094 43.7290039,50.2246094 C42.882971,50.2246094 42.0874874,50.0655127 41.3425293,49.7473145 C40.5975711,49.4291162 39.9462105,48.9873889 39.3884277,48.4221191 C38.830645,47.8568494 38.3907894,47.1867715 38.0688477,46.4118652 C37.7469059,45.636959 37.5859375,44.7928106 37.5859375,43.8793945 C37.5859375,42.9734655 37.7469059,42.1311888 38.0688477,41.3525391 C38.3907894,40.5738893 38.830645,39.9000679 39.3884277,39.3310547 C39.9462105,38.7620414 40.5975711,38.3165706 41.3425293,37.9946289 C42.0874874,37.6726872 42.882971,37.5117188 43.7290039,37.5117188 C43.9985365,37.5117188 44.2774237,37.5341795 44.5656738,37.5791016 C44.853924,37.6240237 45.1346829,37.697021 45.407959,37.7980957 C45.6812351,37.8991704 45.9376616,38.032063 46.1772461,38.1967773 C46.4168306,38.3614917 46.618977,38.5636381 46.7836914,38.8032227 L46.7836914,33.1879883 L49.8720703,33.1879883 L49.8720703,50 Z M46.7836914,43.8793945 C46.7836914,43.4601216 46.7032072,43.053957 46.5422363,42.6608887 C46.3812655,42.2678203 46.1622735,41.9196793 45.8852539,41.6164551 C45.6082343,41.3132309 45.2844257,41.0699065 44.9138184,40.8864746 C44.543211,40.7030427 44.1482768,40.6113281 43.7290039,40.6113281 C43.309731,40.6113281 42.9147968,40.6861972 42.5441895,40.8359375 C42.1735821,40.9856778 41.8516452,41.2009263 41.5783691,41.4816895 C41.305093,41.7624526 41.0898445,42.1049784 40.9326172,42.5092773 C40.7753898,42.9135762 40.6967773,43.3702774 40.6967773,43.8793945 C40.6967773,44.3211285 40.7753898,44.7403952 40.9326172,45.137207 C41.0898445,45.5340189 41.305093,45.88216 41.5783691,46.1816406 C41.8516452,46.4811213 42.1735821,46.7169588 42.5441895,46.8891602 C42.9147968,47.0613615 43.309731,47.1474609 43.7290039,47.1474609 C44.1482768,47.1474609 44.543211,47.0557464 44.9138184,46.8723145 C45.2844257,46.6888825 45.6082343,46.4455582 45.8852539,46.142334 C46.1622735,45.8391098 46.3812655,45.4909688 46.5422363,45.0979004 C46.7032072,44.704832 46.7836914,44.2986675 46.7836914,43.8793945 Z M55.2739258,50 L52.2080078,50 L52.2080078,37.972168 L52.9492188,37.972168 L53.9599609,39.3984375 C54.454104,38.9492165 55.0156219,38.6029472 55.6445312,38.3596191 C56.2734406,38.1162911 56.9248013,37.9946289 57.5986328,37.9946289 L60.3051758,37.9946289 L60.3051758,41.0493164 L57.5986328,41.0493164 C57.2766911,41.0493164 56.9734715,41.1092116 56.6889648,41.2290039 C56.4044582,41.3487962 56.1573904,41.5135081 55.9477539,41.7231445 C55.7381174,41.932781 55.5734055,42.1798488 55.4536133,42.4643555 C55.333821,42.7488621 55.2739258,43.0520817 55.2739258,43.3740234 L55.2739258,50 Z M73.3549805,43.8793945 C73.3549805,44.7778365 73.194012,45.6144981 72.8720703,46.3894043 C72.5501286,47.1643105 72.1121447,47.8343884 71.5581055,48.3996582 C71.0040662,48.964928 70.3545773,49.4103988 69.6096191,49.736084 C68.864661,50.0617692 68.065434,50.2246094 67.2119141,50.2246094 C66.3658812,50.2246094 65.5703976,50.0617692 64.8254395,49.736084 C64.0804813,49.4103988 63.4291206,48.964928 62.8713379,48.3996582 C62.3135552,47.8343884 61.8736995,47.1643105 61.5517578,46.3894043 C61.2298161,45.6144981 61.0688477,44.7778365 61.0688477,43.8793945 C61.0688477,42.9659785 61.2298161,42.1199583 61.5517578,41.3413086 C61.8736995,40.5626589 62.3135552,39.8907092 62.8713379,39.3254395 C63.4291206,38.7601697 64.0804813,38.3165706 64.8254395,37.9946289 C65.5703976,37.6726872 66.3658812,37.5117188 67.2119141,37.5117188 C68.065434,37.5117188 68.864661,37.6633286 69.6096191,37.9665527 C70.3545773,38.2697769 71.0040662,38.7002739 71.5581055,39.2580566 C72.1121447,39.8158394 72.5501286,40.4859173 72.8720703,41.2683105 C73.194012,42.0507038 73.3549805,42.9210564 73.3549805,43.8793945 Z M70.2666016,43.8793945 C70.2666016,43.3852514 70.1861173,42.9379089 70.0251465,42.5373535 C69.8641756,42.1367981 69.6451837,41.7924005 69.3681641,41.5041504 C69.0911444,41.2159003 68.7673358,40.9950366 68.3967285,40.8415527 C68.0261212,40.6880689 67.631187,40.6113281 67.2119141,40.6113281 C66.7926411,40.6113281 66.3977069,40.6880689 66.0270996,40.8415527 C65.6564923,40.9950366 65.3345554,41.2159003 65.0612793,41.5041504 C64.7880032,41.7924005 64.5727547,42.1367981 64.4155273,42.5373535 C64.2583,42.9379089 64.1796875,43.3852514 64.1796875,43.8793945 C64.1796875,44.3435896 64.2583,44.7740866 64.4155273,45.1708984 C64.5727547,45.5677103 64.7880032,45.9121079 65.0612793,46.2041016 C65.3345554,46.4960952 65.6564923,46.7263175 66.0270996,46.8947754 C66.3977069,47.0632333 66.7926411,47.1474609 67.2119141,47.1474609 C67.631187,47.1474609 68.0261212,47.0688484 68.3967285,46.9116211 C68.7673358,46.7543937 69.0911444,46.5335301 69.3681641,46.2490234 C69.6451837,45.9645168 69.8641756,45.6201192 70.0251465,45.2158203 C70.1861173,44.8115214 70.2666016,44.3660506 70.2666016,43.8793945 Z M78.1166992,50 L75.0507812,50 L75.0507812,37.972168 L75.7919922,37.972168 L76.8027344,39.1401367 C77.2968775,38.6909157 77.8565236,38.3446464 78.4816895,38.1013184 C79.1068553,37.8579903 79.7600877,37.7363281 80.4414062,37.7363281 C81.1751339,37.7363281 81.8676725,37.8767076 82.519043,38.1574707 C83.1704134,38.4382338 83.7394181,38.8238094 84.2260742,39.314209 C84.7127303,39.8046086 85.0964341,40.3773568 85.3771973,41.0324707 C85.6579604,41.6875847 85.7983398,42.3857385 85.7983398,43.1269531 L85.7983398,50 L82.7324219,50 L82.7324219,43.1269531 C82.7324219,42.8124984 82.6725266,42.514894 82.5527344,42.2341309 C82.4329421,41.9533677 82.2682302,41.7081716 82.0585938,41.4985352 C81.8489573,41.2888987 81.6056329,41.1241868 81.3286133,41.0043945 C81.0515937,40.8846023 80.7558609,40.824707 80.4414062,40.824707 C80.1194645,40.824707 79.8162449,40.8846023 79.5317383,41.0043945 C79.2472317,41.1241868 79.0001638,41.2888987 78.7905273,41.4985352 C78.5808909,41.7081716 78.416179,41.9533677 78.2963867,42.2341309 C78.1765945,42.514894 78.1166992,42.8124984 78.1166992,43.1269531 L78.1166992,50 Z M92.7612305,47.0576172 C92.8810227,47.0950523 93.0008132,47.1193847 93.1206055,47.1306152 C93.2403977,47.1418458 93.3601882,47.1474609 93.4799805,47.1474609 C93.7794611,47.1474609 94.0677069,47.106283 94.3447266,47.0239258 C94.6217462,46.9415686 94.8819161,46.8236499 95.1252441,46.670166 C95.3685722,46.5166822 95.5856924,46.3295096 95.7766113,46.1086426 C95.9675303,45.8877756 96.1228835,45.6425795 96.2426758,45.3730469 L98.4887695,47.6303711 C98.2042629,48.03467 97.8767108,48.3977848 97.5061035,48.7197266 C97.1354962,49.0416683 96.7349468,49.3149403 96.3044434,49.5395508 C95.8739399,49.7641613 95.4209822,49.9344884 94.9455566,50.0505371 C94.4701311,50.1665859 93.9816106,50.2246094 93.4799805,50.2246094 C92.6339476,50.2246094 91.838464,50.0673844 91.0935059,49.7529297 C90.3485477,49.438475 89.697187,49.0004911 89.1394043,48.4389648 C88.5816216,47.8774386 88.1417659,47.2092324 87.8198242,46.4343262 C87.4978825,45.65942 87.3369141,44.8077846 87.3369141,43.8793945 C87.3369141,42.9285434 87.4978825,42.0600625 87.8198242,41.2739258 C88.1417659,40.487789 88.5816216,39.8177111 89.1394043,39.2636719 C89.697187,38.7096326 90.3485477,38.2791356 91.0935059,37.972168 C91.838464,37.6652003 92.6339476,37.5117188 93.4799805,37.5117188 C93.9816106,37.5117188 94.4720028,37.571614 94.9511719,37.6914062 C95.4303409,37.8111985 95.8851704,37.9833973 96.3156738,38.2080078 C96.7461773,38.4326183 97.1485984,38.707762 97.5229492,39.0334473 C97.8973,39.3591325 98.2267238,39.7241191 98.5112305,40.128418 L92.7612305,47.0576172 Z M94.3334961,40.7348633 C94.1912428,40.6824542 94.0508633,40.6487631 93.9123535,40.6337891 C93.7738437,40.618815 93.6297208,40.6113281 93.4799805,40.6113281 C93.0607075,40.6113281 92.6657733,40.6880689 92.295166,40.8415527 C91.9245587,40.9950366 91.6026218,41.2140285 91.3293457,41.4985352 C91.0560696,41.7830418 90.8408211,42.1255677 90.6835938,42.526123 C90.5263664,42.9266784 90.4477539,43.3777644 90.4477539,43.8793945 C90.4477539,43.9916998 90.4533691,44.1189772 90.4645996,44.2612305 C90.4758301,44.4034838 90.4945474,44.5476067 90.520752,44.6936035 C90.5469565,44.8396003 90.5787759,44.9799798 90.6162109,45.1147461 C90.653646,45.2495124 90.7023109,45.3693029 90.762207,45.4741211 L94.3334961,40.7348633 Z M103.666016,34.7041016 C103.666016,34.9886082 103.611736,35.2543933 103.503174,35.5014648 C103.394612,35.7485364 103.246746,35.9637849 103.05957,36.1472168 C102.872395,36.3306487 102.653403,36.4766433 102.402588,36.5852051 C102.151773,36.6937668 101.884116,36.7480469 101.599609,36.7480469 C101.315103,36.7480469 101.047446,36.6937668 100.796631,36.5852051 C100.545816,36.4766433 100.328696,36.3306487 100.145264,36.1472168 C99.9618318,35.9637849 99.8158371,35.7485364 99.7072754,35.5014648 C99.5987136,35.2543933 99.5444336,34.9886082 99.5444336,34.7041016 C99.5444336,34.4270819 99.5987136,34.1631686 99.7072754,33.9123535 C99.8158371,33.6615385 99.9618318,33.4444182 100.145264,33.2609863 C100.328696,33.0775544 100.545816,32.9315598 100.796631,32.822998 C101.047446,32.7144363 101.315103,32.6601562 101.599609,32.6601562 C101.884116,32.6601562 102.151773,32.7144363 102.402588,32.822998 C102.653403,32.9315598 102.872395,33.0775544 103.05957,33.2609863 C103.246746,33.4444182 103.394612,33.6615385 103.503174,33.9123535 C103.611736,34.1631686 103.666016,34.4270819 103.666016,34.7041016 Z M103.138184,50 L100.049805,50 L100.049805,37.972168 L103.138184,37.972168 L103.138184,50 Z M108.540039,50 L105.474121,50 L105.474121,37.972168 L106.215332,37.972168 L107.226074,39.3984375 C107.720217,38.9492165 108.281735,38.6029472 108.910645,38.3596191 C109.539554,38.1162911 110.190915,37.9946289 110.864746,37.9946289 L113.571289,37.9946289 L113.571289,41.0493164 L110.864746,41.0493164 C110.542804,41.0493164 110.239585,41.1092116 109.955078,41.2290039 C109.670571,41.3487962 109.423504,41.5135081 109.213867,41.7231445 C109.004231,41.932781 108.839519,42.1798488 108.719727,42.4643555 C108.599934,42.7488621 108.540039,43.0520817 108.540039,43.3740234 L108.540039,50 Z M126.621094,43.8793945 C126.621094,44.7778365 126.460125,45.6144981 126.138184,46.3894043 C125.816242,47.1643105 125.378258,47.8343884 124.824219,48.3996582 C124.27018,48.964928 123.620691,49.4103988 122.875732,49.736084 C122.130774,50.0617692 121.331547,50.2246094 120.478027,50.2246094 C119.631994,50.2246094 118.836511,50.0617692 118.091553,49.736084 C117.346595,49.4103988 116.695234,48.964928 116.137451,48.3996582 C115.579668,47.8343884 115.139813,47.1643105 114.817871,46.3894043 C114.495929,45.6144981 114.334961,44.7778365 114.334961,43.8793945 C114.334961,42.9659785 114.495929,42.1199583 114.817871,41.3413086 C115.139813,40.5626589 115.579668,39.8907092 116.137451,39.3254395 C116.695234,38.7601697 117.346595,38.3165706 118.091553,37.9946289 C118.836511,37.6726872 119.631994,37.5117188 120.478027,37.5117188 C121.331547,37.5117188 122.130774,37.6633286 122.875732,37.9665527 C123.620691,38.2697769 124.27018,38.7002739 124.824219,39.2580566 C125.378258,39.8158394 125.816242,40.4859173 126.138184,41.2683105 C126.460125,42.0507038 126.621094,42.9210564 126.621094,43.8793945 Z M123.532715,43.8793945 C123.532715,43.3852514 123.452231,42.9379089 123.29126,42.5373535 C123.130289,42.1367981 122.911297,41.7924005 122.634277,41.5041504 C122.357258,41.2159003 122.033449,40.9950366 121.662842,40.8415527 C121.292234,40.6880689 120.8973,40.6113281 120.478027,40.6113281 C120.058754,40.6113281 119.66382,40.6880689 119.293213,40.8415527 C118.922606,40.9950366 118.600669,41.2159003 118.327393,41.5041504 C118.054116,41.7924005 117.838868,42.1367981 117.681641,42.5373535 C117.524413,42.9379089 117.445801,43.3852514 117.445801,43.8793945 C117.445801,44.3435896 117.524413,44.7740866 117.681641,45.1708984 C117.838868,45.5677103 118.054116,45.9121079 118.327393,46.2041016 C118.600669,46.4960952 118.922606,46.7263175 119.293213,46.8947754 C119.66382,47.0632333 120.058754,47.1474609 120.478027,47.1474609 C120.8973,47.1474609 121.292234,47.0688484 121.662842,46.9116211 C122.033449,46.7543937 122.357258,46.5335301 122.634277,46.2490234 C122.911297,45.9645168 123.130289,45.6201192 123.29126,45.2158203 C123.452231,44.8115214 123.532715,44.3660506 123.532715,43.8793945 Z M130.156738,49.3027344 C130.156738,49.4667977 130.127116,49.6206048 130.067871,49.7641602 C130.008626,49.9077156 129.926596,50.0319005 129.821777,50.1367188 C129.716959,50.241537 129.593913,50.3247067 129.452637,50.3862305 C129.31136,50.4477542 129.158692,50.4785156 128.994629,50.4785156 C128.835123,50.4785156 128.683594,50.4477542 128.540039,50.3862305 C128.396484,50.3247067 128.271159,50.241537 128.164062,50.1367188 C128.056966,50.0319005 127.972657,49.9077156 127.911133,49.7641602 C127.849609,49.6206048 127.818848,49.4667977 127.818848,49.3027344 C127.818848,49.1432284 127.849609,48.9928392 127.911133,48.8515625 C127.972657,48.7102858 128.056966,48.5872401 128.164062,48.4824219 C128.271159,48.3776036 128.396484,48.2944339 128.540039,48.2329102 C128.683594,48.1713864 128.835123,48.140625 128.994629,48.140625 C129.158692,48.140625 129.31136,48.1713864 129.452637,48.2329102 C129.593913,48.2944339 129.716959,48.3776036 129.821777,48.4824219 C129.926596,48.5872401 130.008626,48.7102858 130.067871,48.8515625 C130.127116,48.9928392 130.156738,49.1432284 130.156738,49.3027344 Z M137.942871,44.1347656 L136.575684,45.5087891 C136.507324,45.3173819 136.4139,45.1453458 136.29541,44.9926758 C136.17692,44.8400057 136.043621,44.7112635 135.895508,44.6064453 C135.747395,44.5016271 135.586752,44.4218753 135.413574,44.3671875 C135.240396,44.3124997 135.062664,44.2851562 134.880371,44.2851562 C134.625161,44.2851562 134.384767,44.3375646 134.15918,44.4423828 C133.933593,44.547201 133.737631,44.6941722 133.571289,44.8833008 C133.404947,45.0724293 133.273926,45.2968737 133.178223,45.5566406 C133.082519,45.8164075 133.034668,46.1035141 133.034668,46.4179688 C133.034668,46.6731784 133.082519,46.9124338 133.178223,47.1357422 C133.273926,47.3590506 133.404947,47.5550122 133.571289,47.7236328 C133.737631,47.8922534 133.933593,48.0244136 134.15918,48.1201172 C134.384767,48.2158208 134.625161,48.2636719 134.880371,48.2636719 C135.062664,48.2636719 135.238118,48.238607 135.406738,48.1884766 C135.575359,48.1383461 135.733723,48.0665695 135.881836,47.9731445 C136.029949,47.8797196 136.162109,47.7657884 136.27832,47.6313477 C136.394532,47.4969069 136.489095,47.3476571 136.562012,47.1835938 L137.929199,48.5576172 C137.756021,48.8037122 137.556642,49.0247386 137.331055,49.2207031 C137.105468,49.4166676 136.861655,49.5830071 136.599609,49.7197266 C136.337564,49.856446 136.06185,49.9601233 135.772461,50.0307617 C135.483071,50.1014001 135.185711,50.1367188 134.880371,50.1367188 C134.365395,50.1367188 133.881187,50.0398773 133.427734,49.8461914 C132.974282,49.6525055 132.577801,49.387046 132.238281,49.0498047 C131.898761,48.7125634 131.631023,48.3183616 131.435059,47.8671875 C131.239094,47.4160134 131.141113,46.9329453 131.141113,46.4179688 C131.141113,45.8574191 131.239094,45.3333358 131.435059,44.8457031 C131.631023,44.3580705 131.898761,43.9331073 132.238281,43.5708008 C132.577801,43.2084943 132.974282,42.9225271 133.427734,42.7128906 C133.881187,42.5032542 134.365395,42.3984375 134.880371,42.3984375 C135.185711,42.3984375 135.48535,42.4371741 135.779297,42.5146484 C136.073244,42.5921228 136.353514,42.7049146 136.620117,42.8530273 C136.88672,43.0011401 137.132811,43.1822906 137.358398,43.3964844 C137.583986,43.6106782 137.778808,43.8567694 137.942871,44.1347656 Z M145.927246,46.2744141 C145.927246,46.8212918 145.829265,47.330564 145.633301,47.8022461 C145.437336,48.2739281 145.170737,48.6818017 144.833496,49.0258789 C144.496255,49.3699561 144.100914,49.6411123 143.647461,49.8393555 C143.194008,50.0375986 142.707522,50.1367188 142.187988,50.1367188 C141.673012,50.1367188 141.188804,50.0375986 140.735352,49.8393555 C140.281899,49.6411123 139.885418,49.3699561 139.545898,49.0258789 C139.206379,48.6818017 138.93864,48.2739281 138.742676,47.8022461 C138.546711,47.330564 138.44873,46.8212918 138.44873,46.2744141 C138.44873,45.7184217 138.546711,45.2034529 138.742676,44.7294922 C138.93864,44.2555315 139.206379,43.8465186 139.545898,43.5024414 C139.885418,43.1583642 140.281899,42.8883473 140.735352,42.6923828 C141.188804,42.4964183 141.673012,42.3984375 142.187988,42.3984375 C142.707522,42.3984375 143.194008,42.4907217 143.647461,42.675293 C144.100914,42.8598642 144.496255,43.1219059 144.833496,43.4614258 C145.170737,43.8009457 145.437336,44.2088192 145.633301,44.6850586 C145.829265,45.161298 145.927246,45.6910778 145.927246,46.2744141 Z M144.047363,46.2744141 C144.047363,45.9736313 143.998373,45.7013359 143.900391,45.4575195 C143.802408,45.2137032 143.669109,45.0040699 143.500488,44.8286133 C143.331868,44.6531567 143.134767,44.5187179 142.90918,44.425293 C142.683593,44.331868 142.443198,44.2851562 142.187988,44.2851562 C141.932779,44.2851562 141.692384,44.331868 141.466797,44.425293 C141.24121,44.5187179 141.045248,44.6531567 140.878906,44.8286133 C140.712564,45.0040699 140.581543,45.2137032 140.48584,45.4575195 C140.390136,45.7013359 140.342285,45.9736313 140.342285,46.2744141 C140.342285,46.5569676 140.390136,46.8190092 140.48584,47.0605469 C140.581543,47.3020845 140.712564,47.5117179 140.878906,47.6894531 C141.045248,47.8671884 141.24121,48.0073237 141.466797,48.1098633 C141.692384,48.2124029 141.932779,48.2636719 142.187988,48.2636719 C142.443198,48.2636719 142.683593,48.2158208 142.90918,48.1201172 C143.134767,48.0244136 143.331868,47.8899748 143.500488,47.7167969 C143.669109,47.5436189 143.802408,47.3339856 143.900391,47.0878906 C143.998373,46.8417956 144.047363,46.5706395 144.047363,46.2744141 Z M156.27002,50 L154.410645,50 L154.410645,45.3515625 C154.410645,45.2239577 154.386719,45.1031907 154.338867,44.9892578 C154.291015,44.875325 154.223796,44.7750655 154.137207,44.6884766 C154.050618,44.6018876 153.950359,44.5346682 153.836426,44.4868164 C153.722493,44.4389646 153.601726,44.4150391 153.474121,44.4150391 C153.346516,44.4150391 153.226889,44.4389646 153.115234,44.4868164 C153.00358,44.5346682 152.905599,44.6018876 152.821289,44.6884766 C152.736979,44.7750655 152.670899,44.875325 152.623047,44.9892578 C152.575195,45.1031907 152.55127,45.2239577 152.55127,45.3515625 L152.55127,50 L150.685059,50 L150.685059,45.3515625 C150.685059,45.2239577 150.661133,45.1031907 150.613281,44.9892578 C150.565429,44.875325 150.49821,44.7750655 150.411621,44.6884766 C150.325032,44.6018876 150.224773,44.5346682 150.11084,44.4868164 C149.996907,44.4389646 149.87614,44.4150391 149.748535,44.4150391 C149.62093,44.4150391 149.501303,44.4389646 149.389648,44.4868164 C149.277994,44.5346682 149.180013,44.6018876 149.095703,44.6884766 C149.011393,44.7750655 148.945313,44.875325 148.897461,44.9892578 C148.849609,45.1031907 148.825684,45.2239577 148.825684,45.3515625 L148.825684,50 L146.959473,50 L146.959473,42.6787109 L147.410645,42.6787109 L147.916504,43.2392578 C148.176271,43.0205067 148.462238,42.8507493 148.774414,42.7299805 C149.08659,42.6092116 149.411294,42.5488281 149.748535,42.5488281 C150.090334,42.5488281 150.424152,42.6126296 150.75,42.7402344 C151.075848,42.8678392 151.361815,43.0888656 151.60791,43.4033203 C151.721843,43.2483716 151.851725,43.1162115 151.997559,43.0068359 C152.143393,42.8974604 152.2972,42.8085941 152.458984,42.7402344 C152.620769,42.6718747 152.788248,42.6228843 152.961426,42.5932617 C153.134604,42.5636392 153.3055,42.5488281 153.474121,42.5488281 C153.861493,42.5488281 154.224933,42.6217441 154.564453,42.7675781 C154.903973,42.9134122 155.200194,43.1127917 155.453125,43.3657227 C155.706056,43.6186536 155.905435,43.9160139 156.05127,44.2578125 C156.197104,44.5996111 156.27002,44.9641908 156.27002,45.3515625 L156.27002,50 Z" id="droneiro.com"></path>
        </g>
    </g>
</svg>