<?xml version="1.0" encoding="UTF-8"?>
<svg width="108px" height="20px" viewBox="0 0 108 20" version="1.1" xmlns="http://www.w3.org/2000/svg" xmlns:xlink="http://www.w3.org/1999/xlink">
    <!-- Generator: Sketch 45.2 (43514) - http://www.bohemiancoding.com/sketch -->
    <title>OFFICELESS</title>
    <desc>Created with Sketch.</desc>
    <defs></defs>
    <g id="Wireframe-01" stroke="none" stroke-width="1" fill="none" fill-rule="evenodd">
        <g id="21/07---landing-Officeless_2_All-Sections05" transform="translate(-557.000000, -9013.000000)" fill="#FFFFFF">
            <g id="Group-35" transform="translate(557.000000, 9010.000000)">
                <path d="M5.43905706,23 C2.8641843,23 1.12831503,21.8538682 0.405036164,19.7048711 C0.0867934637,18.8166189 0,18.0143266 0,13 C0,7.98567335 0.0867934637,7.18338109 0.405036164,6.29512894 C1.12831503,4.14613181 2.8641843,3 5.43905706,3 C8.01392982,3 9.74979909,4.14613181 10.473078,6.29512894 C10.7913207,7.18338109 10.8781141,7.98567335 10.8781141,13 C10.8781141,18.0143266 10.7913207,18.8166189 10.473078,19.7048711 C9.74979909,21.8538682 8.01392982,23 5.43905706,23 Z M5.43905706,19.6189112 C6.16233592,19.6189112 6.65416555,19.217765 6.82775248,18.6733524 C6.97240825,18.2148997 7.03027056,17.7277937 7.03027056,13 C7.03027056,8.2722063 6.97240825,7.78510029 6.82775248,7.32664756 C6.65416555,6.78223496 6.16233592,6.38108883 5.43905706,6.38108883 C4.71577819,6.38108883 4.22394857,6.78223496 4.05036164,7.32664756 C3.90570587,7.78510029 3.84784356,8.2722063 3.84784356,13 C3.84784356,17.7277937 3.90570587,18.2148997 4.05036164,18.6733524 C4.22394857,19.217765 4.71577819,19.6189112 5.43905706,19.6189112 Z M13.9737477,22.4555874 C13.9737477,22.6275072 14.0894723,22.7421203 14.2630592,22.7421203 L17.4744174,22.7421203 C17.6480043,22.7421203 17.7637289,22.6275072 17.7637289,22.4555874 L17.7637289,14.9770774 C17.7637289,14.8624642 17.8215912,14.8051576 17.9373158,14.8051576 L22.1901956,14.8051576 C22.3637825,14.8051576 22.4795071,14.6905444 22.4795071,14.5186246 L22.4795071,11.6819484 C22.4795071,11.5100287 22.3637825,11.3954155 22.1901956,11.3954155 L17.9373158,11.3954155 C17.8215912,11.3954155 17.7637289,11.3381089 17.7637289,11.2234957 L17.7637289,6.81088825 C17.7637289,6.69627507 17.8215912,6.63896848 17.9373158,6.63896848 L22.8556121,6.63896848 C23.029199,6.63896848 23.1449237,6.5243553 23.1449237,6.35243553 L23.1449237,3.54441261 C23.1449237,3.37249284 23.029199,3.25787966 22.8556121,3.25787966 L14.2630592,3.25787966 C14.0894723,3.25787966 13.9737477,3.37249284 13.9737477,3.54441261 L13.9737477,22.4555874 Z M26.0669703,22.4555874 C26.0669703,22.6275072 26.1826949,22.7421203 26.3562818,22.7421203 L28.8732923,22.7421203 C29.0468792,22.7421203 29.1626038,22.6275072 29.1626038,22.4555874 L29.1626038,14.6045845 C29.1626038,14.4899713 29.2204661,14.4326648 29.3361907,14.4326648 L33.7337262,14.4326648 C33.9073132,14.4326648 34.0230378,14.3180516 34.0230378,14.1461318 L34.0230378,11.9398281 C34.0230378,11.7679083 33.9073132,11.6532951 33.7337262,11.6532951 L29.3361907,11.6532951 C29.2204661,11.6532951 29.1626038,11.5959885 29.1626038,11.4813754 L29.1626038,6.20916905 C29.1626038,6.09455587 29.2204661,6.03724928 29.3361907,6.03724928 L34.4280739,6.03724928 C34.6016609,6.03724928 34.7173855,5.9226361 34.7173855,5.75071633 L34.7173855,3.54441261 C34.7173855,3.37249284 34.6016609,3.25787966 34.4280739,3.25787966 L26.3562818,3.25787966 C26.1826949,3.25787966 26.0669703,3.37249284 26.0669703,3.54441261 L26.0669703,22.4555874 Z M37.6683632,22.4555874 C37.6683632,22.6275072 37.7840879,22.7421203 37.9576748,22.7421203 L40.4746852,22.7421203 C40.6482722,22.7421203 40.7639968,22.6275072 40.7639968,22.4555874 L40.7639968,3.54441261 C40.7639968,3.37249284 40.6482722,3.25787966 40.4746852,3.25787966 L37.9576748,3.25787966 C37.7840879,3.25787966 37.6683632,3.37249284 37.6683632,3.54441261 L37.6683632,22.4555874 Z M44.7854273,20.1346705 C45.3929815,21.9684814 46.7816769,23 49.0093758,23 C51.5842486,23 53.1465309,21.6246418 53.4069113,18.6446991 C53.4358425,18.4441261 53.349049,18.3295129 53.1754621,18.3008596 L51.5263863,17.9856734 C51.3527994,17.9570201 51.2081436,18.0429799 51.2081436,18.2148997 C51.0634878,19.9627507 50.3980713,20.8223496 49.038307,20.8223496 C47.9967854,20.8223496 47.3603,20.3925501 47.0709885,19.4756447 C46.8974016,18.9312321 46.8106081,18.3868195 46.8106081,13 C46.8106081,7.61318052 46.8974016,7.06876791 47.0709885,6.5243553 C47.3603,5.60744986 47.9967854,5.17765043 49.038307,5.17765043 C50.3980713,5.17765043 51.0634878,6.03724928 51.2081436,7.78510029 C51.2081436,7.95702006 51.3527994,8.04297994 51.5263863,8.01432665 L53.1754621,7.6991404 C53.349049,7.67048711 53.4358425,7.55587393 53.4069113,7.35530086 C53.1465309,4.37535817 51.5842486,3 49.0093758,3 C46.7816769,3 45.3929815,4.03151862 44.7854273,5.86532951 C44.5250469,6.66762178 44.4382534,7.46991404 44.4382534,13 C44.4382534,18.530086 44.5250469,19.3323782 44.7854273,20.1346705 Z M56.5025449,22.4555874 C56.5025449,22.6275072 56.6182695,22.7421203 56.7918564,22.7421203 L64.2271631,22.7421203 C64.4007501,22.7421203 64.5164747,22.6275072 64.5164747,22.4555874 L64.5164747,20.8796562 C64.5164747,20.7077364 64.4007501,20.5931232 64.2271631,20.5931232 L59.0195553,20.5931232 C58.9038307,20.5931232 58.8459684,20.5358166 58.8459684,20.4212034 L58.8459684,14.1461318 C58.8459684,14.0315186 58.9038307,13.974212 59.0195553,13.974212 L63.5328154,13.974212 C63.7064024,13.974212 63.822127,13.8595989 63.822127,13.6876791 L63.822127,12.1117479 C63.822127,11.9398281 63.7064024,11.8252149 63.5328154,11.8252149 L59.0195553,11.8252149 C58.9038307,11.8252149 58.8459684,11.7679083 58.8459684,11.6532951 L58.8459684,5.57879656 C58.8459684,5.46418338 58.9038307,5.40687679 59.0195553,5.40687679 L64.2271631,5.40687679 C64.4007501,5.40687679 64.5164747,5.29226361 64.5164747,5.12034384 L64.5164747,3.54441261 C64.5164747,3.37249284 64.4007501,3.25787966 64.2271631,3.25787966 L56.7918564,3.25787966 C56.6182695,3.25787966 56.5025449,3.37249284 56.5025449,3.54441261 L56.5025449,22.4555874 Z M68.0750067,22.4555874 C68.0750067,22.6275072 68.1907313,22.7421203 68.3643182,22.7421203 L75.0184838,22.7421203 C75.1920707,22.7421203 75.3077953,22.6275072 75.3077953,22.4555874 L75.3077953,21.6246418 C75.3077953,21.4527221 75.1920707,21.3381089 75.0184838,21.3381089 L69.7530137,21.3381089 C69.637289,21.3381089 69.5794267,21.2808023 69.5794267,21.1661891 L69.5794267,3.54441261 C69.5794267,3.37249284 69.4637021,3.25787966 69.2901152,3.25787966 L68.3643182,3.25787966 C68.1907313,3.25787966 68.0750067,3.37249284 68.0750067,3.54441261 L68.0750067,22.4555874 Z M78.7506027,22.4555874 C78.7506027,22.6275072 78.8663274,22.7421203 79.0399143,22.7421203 L85.723011,22.7421203 C85.8965979,22.7421203 86.0123225,22.6275072 86.0123225,22.4555874 L86.0123225,21.6246418 C86.0123225,21.4527221 85.8965979,21.3381089 85.723011,21.3381089 L80.4286097,21.3381089 C80.3128851,21.3381089 80.2550228,21.2808023 80.2550228,21.1661891 L80.2550228,13.7449857 C80.2550228,13.6303725 80.3128851,13.5730659 80.4286097,13.5730659 L85.0575944,13.5730659 C85.2311814,13.5730659 85.346906,13.4584527 85.346906,13.286533 L85.346906,12.4555874 C85.346906,12.2836676 85.2311814,12.1690544 85.0575944,12.1690544 L80.4286097,12.1690544 C80.3128851,12.1690544 80.2550228,12.1117479 80.2550228,11.9971347 L80.2550228,4.83381089 C80.2550228,4.71919771 80.3128851,4.66189112 80.4286097,4.66189112 L85.723011,4.66189112 C85.8965979,4.66189112 86.0123225,4.54727794 86.0123225,4.37535817 L86.0123225,3.54441261 C86.0123225,3.37249284 85.8965979,3.25787966 85.723011,3.25787966 L79.0399143,3.25787966 C78.8663274,3.25787966 78.7506027,3.37249284 78.7506027,3.54441261 L78.7506027,22.4555874 Z M96.7457809,17.4985673 C96.7457809,14.4040115 95.9646397,13.2292264 93.5633539,12.2836676 L92.3771765,11.8252149 C90.7281007,11.1948424 90.0916153,10.1919771 90.0916153,7.6991404 C90.0916153,4.94842407 90.9306188,3.80229226 92.8979373,3.80229226 C94.8363247,3.80229226 95.7042593,4.94842407 95.8199839,7.55587393 C95.8199839,7.7277937 95.9357085,7.84240688 96.1382266,7.78510029 L96.3696759,7.7277937 C96.5432628,7.67048711 96.5721939,7.58452722 96.5721939,7.41260745 C96.4854005,4.40401146 95.2413608,3.0286533 92.8979373,3.0286533 C90.4966515,3.0286533 89.2526118,4.51862464 89.2526118,7.7277937 C89.2526118,10.6217765 89.9180284,11.8252149 92.46397,12.7994269 L93.6501473,13.2578797 C95.2413608,13.8595989 95.9067774,14.9197708 95.9067774,17.5558739 C95.9067774,21.2808023 94.894187,22.1977077 92.9268685,22.1977077 C91.0174123,22.1977077 89.9758907,21.1661891 89.7444415,17.9856734 C89.7444415,17.8137536 89.6287168,17.6991404 89.4261988,17.756447 L89.1947495,17.8137536 C89.0211626,17.8710602 88.9922314,17.9570201 88.9922314,18.1289398 C89.1658184,21.3954155 90.3809269,22.9713467 92.9268685,22.9713467 C95.5306724,22.9713467 96.7457809,21.5959885 96.7457809,17.4985673 Z M108,17.4985673 C108,14.4040115 107.218859,13.2292264 104.817573,12.2836676 L103.631396,11.8252149 C101.98232,11.1948424 101.345834,10.1919771 101.345834,7.6991404 C101.345834,4.94842407 102.184838,3.80229226 104.152156,3.80229226 C106.090544,3.80229226 106.958478,4.94842407 107.074203,7.55587393 C107.074203,7.7277937 107.189928,7.84240688 107.392446,7.78510029 L107.623895,7.7277937 C107.797482,7.67048711 107.826413,7.58452722 107.826413,7.41260745 C107.73962,4.40401146 106.49558,3.0286533 104.152156,3.0286533 C101.750871,3.0286533 100.506831,4.51862464 100.506831,7.7277937 C100.506831,10.6217765 101.172248,11.8252149 103.718189,12.7994269 L104.904366,13.2578797 C106.49558,13.8595989 107.160997,14.9197708 107.160997,17.5558739 C107.160997,21.2808023 106.148406,22.1977077 104.181088,22.1977077 C102.271631,22.1977077 101.23011,21.1661891 100.998661,17.9856734 C100.998661,17.8137536 100.882936,17.6991404 100.680418,17.756447 L100.448969,17.8137536 C100.275382,17.8710602 100.246451,17.9570201 100.246451,18.1289398 C100.420038,21.3954155 101.635146,22.9713467 104.181088,22.9713467 C106.784892,22.9713467 108,21.5959885 108,17.4985673 Z" id="OFFICELESS"></path>
            </g>
        </g>
    </g>
</svg>